<svg width="16" height="16" viewBox="0 0 16 16" fill="none" xmlns="http://www.w3.org/2000/svg">
<path d="M8 0C3.58214 0 0 3.58214 0 8C0 12.4178 3.58214 16 8 16C12.4178 16 16 12.4178 16 8C16 3.58214 12.4178 0 8 0ZM8.57143 11.8571C8.57143 11.9357 8.50712 12 8.42857 12H7.57143C7.49288 12 7.42857 11.9357 7.42857 11.8571V7C7.42857 6.92145 7.49288 6.85714 7.57143 6.85714H8.42857C8.50712 6.85714 8.57143 6.92145 8.57143 7V11.8571ZM8 5.71429C7.7757 5.70971 7.56213 5.61739 7.40511 5.45714C7.24815 5.2969 7.16015 5.08149 7.16015 4.85714C7.16015 4.6328 7.24815 4.41739 7.40511 4.25714C7.56213 4.0969 7.7757 4.00458 8 4C8.22431 4.00458 8.43787 4.0969 8.5949 4.25714C8.75185 4.41739 8.83985 4.6328 8.83985 4.85714C8.83985 5.08149 8.75185 5.2969 8.5949 5.45714C8.43787 5.61739 8.22431 5.70971 8 5.71429Z" fill="#40879A"/>
</svg>
