<svg width="22" height="22" viewBox="0 0 22 22" fill="none" xmlns="http://www.w3.org/2000/svg">
<g clip-path="url(#clip0_132_551)">
<path d="M1.87357 14.8318C1.70745 14.4582 1.68525 14.0364 1.81124 13.6475C1.86507 13.483 1.8923 13.3109 1.8919 13.1378C1.892 12.7468 1.75292 12.3686 1.49957 12.0708L1.4959 12.0671C1.24039 11.7704 1.09985 11.3918 1.09985 11.0001C1.09985 10.6085 1.24039 10.2299 1.4959 9.93315L1.49957 9.92948C1.68308 9.71587 1.80822 9.45842 1.86283 9.18215C1.91744 8.90588 1.89967 8.62018 1.81124 8.35281C1.75795 8.18691 1.73073 8.01373 1.73057 7.83948C1.73019 7.53636 1.81398 7.23909 1.97259 6.98078C2.1312 6.72248 2.35841 6.51327 2.6289 6.37648C2.88009 6.2482 3.09441 6.05797 3.2516 5.82379C3.40879 5.58961 3.50366 5.31921 3.52724 5.03815V5.03448C3.55562 4.64419 3.7235 4.27715 4.0002 4.00045C4.27691 3.72375 4.64395 3.55586 5.03424 3.52748H5.0379C5.31937 3.50535 5.59038 3.41106 5.8248 3.25371C6.05922 3.09636 6.24914 2.88125 6.37624 2.62915C6.51303 2.35865 6.72223 2.13144 6.98054 1.97283C7.23885 1.81422 7.53612 1.73044 7.83924 1.73081C8.01351 1.7307 8.18673 1.75792 8.35257 1.81148C8.51709 1.86531 8.68914 1.89254 8.86224 1.89215C9.25321 1.89224 9.63145 1.75317 9.92924 1.49981L9.9329 1.49615C10.2297 1.24063 10.6083 1.1001 10.9999 1.1001C11.3915 1.1001 11.7701 1.24063 12.0669 1.49615L12.0706 1.49981C12.2842 1.68332 12.5416 1.80846 12.8179 1.86307C13.0942 1.91768 13.3799 1.89991 13.6472 1.81148C14.0362 1.6855 14.458 1.7077 14.8316 1.87381L20.1262 7.16848C20.2924 7.54206 20.3146 7.96386 20.1886 8.35281C20.1347 8.51733 20.1075 8.68938 20.1079 8.86248C20.1078 9.25346 20.2469 9.6317 20.5002 9.92948L20.5039 9.93315C20.7594 10.2299 20.9 10.6085 20.9 11.0001C20.9 11.3918 20.7594 11.7704 20.5039 12.0671L20.5002 12.0708C20.3167 12.2844 20.1916 12.5419 20.137 12.8181C20.0824 13.0944 20.1001 13.3801 20.1886 13.6475C20.2419 13.8134 20.2691 13.9866 20.2692 14.1608C20.2696 14.4639 20.1858 14.7612 20.0272 15.0195C19.8686 15.2778 19.6414 15.487 19.3709 15.6238C19.1197 15.7521 18.9054 15.9423 18.7482 16.1765C18.591 16.4107 18.4961 16.6811 18.4726 16.9621V16.9658C18.4442 17.3561 18.2763 17.7231 17.9996 17.9998C17.7229 18.2765 17.3559 18.4444 16.9656 18.4728H16.9619C16.6804 18.4949 16.4094 18.5892 16.175 18.7466C15.9406 18.9039 15.7507 19.119 15.6236 19.3711C15.4868 19.6416 15.2776 19.8689 15.0193 20.0275C14.761 20.1861 14.4637 20.2699 14.1606 20.2695C13.9863 20.2696 13.8131 20.2424 13.6472 20.1888C13.4827 20.135 13.3107 20.1078 13.1376 20.1081C12.7466 20.108 12.3684 20.2471 12.0706 20.5005L12.0669 20.5041C11.7701 20.7597 11.3915 20.9002 10.9999 20.9002C10.6083 20.9002 10.2297 20.7597 9.9329 20.5041L9.92924 20.5005C9.71562 20.317 9.45817 20.1918 9.1819 20.1372C8.90564 20.0826 8.61994 20.1004 8.35257 20.1888C7.96361 20.3148 7.54182 20.2926 7.16824 20.1265L1.87357 14.8318Z" fill="#2C9B40"/>
<path d="M9.18876 18.1061C9.78047 18.2583 10.3891 18.3347 11.0001 18.3334C11.9632 18.3337 12.9169 18.1442 13.8068 17.7758C14.6966 17.4074 15.5052 16.8672 16.1862 16.1862C16.8672 15.5052 17.4074 14.6966 17.7758 13.8068C18.1442 12.9169 18.3337 11.9632 18.3334 11.0001C18.3347 10.3891 18.2583 9.78047 18.1061 9.18876L12.8114 3.8941C12.2197 3.7419 11.6111 3.66551 11.0001 3.66676C10.037 3.66647 9.08326 3.85596 8.19341 4.22439C7.30356 4.59282 6.49502 5.13298 5.814 5.814C5.13298 6.49502 4.59282 7.30356 4.22439 8.19341C3.85596 9.08326 3.66647 10.037 3.66676 11.0001C3.66551 11.6111 3.7419 12.2197 3.8941 12.8114L9.18876 18.1061Z" fill="#33C455"/>
<path d="M15.8963 0.805118L0.803269 15.8981C0.218328 16.4831 0.218329 17.4315 0.803269 18.0164L3.98143 21.1946C4.56637 21.7795 5.51475 21.7795 6.09969 21.1946L21.1927 6.10154C21.7777 5.5166 21.7777 4.56822 21.1927 3.98328L18.0146 0.805117C17.4296 0.220177 16.4812 0.220178 15.8963 0.805118Z" fill="#50E26B"/>
<path d="M4.88485 15.9244C4.67532 15.7245 4.3968 15.6129 4.10715 15.6129C3.8175 15.6129 3.53898 15.7245 3.32945 15.9244C3.12334 16.1307 3.00757 16.4104 3.00757 16.702C3.00757 16.9935 3.12334 17.2732 3.32945 17.4795L4.88155 19.0389C4.91528 19.074 4.95566 19.102 5.00034 19.1214C5.04501 19.1407 5.09309 19.151 5.14177 19.1515C5.19045 19.1521 5.23875 19.1429 5.28385 19.1246C5.32896 19.1063 5.36997 19.0792 5.40449 19.0449C5.43901 19.0105 5.46635 18.9697 5.48491 18.9247C5.50347 18.8797 5.51289 18.8314 5.51261 18.7828C5.51233 18.7341 5.50236 18.6859 5.48328 18.6412C5.4642 18.5964 5.43639 18.5558 5.40148 18.5219L4.88302 18.0012L5.40185 17.4824L5.91775 18.0034C5.95148 18.0385 5.99186 18.0666 6.03654 18.0859C6.08121 18.1052 6.12929 18.1155 6.17797 18.116C6.22665 18.1166 6.27495 18.1075 6.32005 18.0891C6.36516 18.0708 6.40617 18.0437 6.44069 18.0094C6.47521 17.9751 6.50255 17.9342 6.52111 17.8892C6.53967 17.8442 6.54909 17.796 6.54881 17.7473C6.54853 17.6986 6.53856 17.6505 6.51948 17.6057C6.5004 17.5609 6.47259 17.5204 6.43768 17.4864L4.88485 15.9244ZM4.36528 17.4813L3.84792 16.9617C3.81383 16.9277 3.78678 16.8872 3.76833 16.8427C3.74988 16.7982 3.74038 16.7505 3.74038 16.7023C3.74038 16.6541 3.74988 16.6064 3.76833 16.5619C3.78678 16.5174 3.81383 16.477 3.84792 16.4429C3.91771 16.3766 4.01031 16.3396 4.1066 16.3396C4.20289 16.3396 4.29549 16.3766 4.36528 16.4429L4.88338 16.9632L4.36528 17.4813ZM13.1818 7.62677C12.9722 7.42676 12.6936 7.31517 12.4039 7.31517C12.1142 7.31517 11.8356 7.42676 11.626 7.62677C11.4198 7.83305 11.304 8.11279 11.304 8.40447C11.304 8.69615 11.4198 8.97589 11.626 9.18217L12.663 10.2191C12.7651 10.3213 12.8864 10.4023 13.0198 10.4576C13.1533 10.5129 13.2964 10.5414 13.4408 10.5414C13.5853 10.5414 13.7284 10.5129 13.8618 10.4576C13.9953 10.4023 14.1166 10.3213 14.2187 10.2191C14.4249 10.0128 14.5408 9.73309 14.5408 9.44141C14.5408 9.14972 14.4249 8.86999 14.2187 8.66371L13.1818 7.62677ZM13.7002 9.70027C13.6662 9.73436 13.6258 9.76141 13.5812 9.77986C13.5367 9.79831 13.489 9.80781 13.4408 9.80781C13.3926 9.80781 13.3449 9.79831 13.3004 9.77986C13.2559 9.76141 13.2155 9.73436 13.1814 9.70027L12.1445 8.66334C12.0932 8.61206 12.0583 8.54673 12.0442 8.47562C12.03 8.4045 12.0373 8.33079 12.065 8.2638C12.0928 8.19681 12.1398 8.13955 12.2 8.09926C12.2603 8.05897 12.3312 8.03745 12.4037 8.03744C12.4519 8.03719 12.4997 8.04656 12.5442 8.06501C12.5887 8.08346 12.6291 8.11061 12.663 8.14487L13.7002 9.18181C13.7689 9.25055 13.8074 9.34372 13.8074 9.44086C13.8074 9.53799 13.7689 9.63153 13.7002 9.70027ZM14.7926 5.10557C14.7425 5.02218 14.6614 4.96209 14.5671 4.9385C14.4727 4.91491 14.3729 4.92977 14.2895 4.97981C14.2061 5.02984 14.146 5.11095 14.1224 5.20529C14.0988 5.29963 14.1137 5.39948 14.1637 5.48287L14.9645 6.81791L13.6299 6.01674C13.5465 5.96671 13.4466 5.95185 13.3523 5.97543C13.2579 5.99902 13.1768 6.05912 13.1268 6.14251C13.0767 6.22589 13.0619 6.32574 13.0855 6.42009C13.1091 6.51443 13.1692 6.59554 13.2526 6.64557L15.8449 8.20134C15.9148 8.24281 15.9966 8.25984 16.0773 8.24977C16.158 8.23969 16.233 8.20307 16.2907 8.14567C16.3483 8.08827 16.3852 8.01335 16.3955 7.93269C16.4059 7.85203 16.3892 7.77021 16.3479 7.70011L14.7926 5.10557ZM18.8857 5.03481C18.8169 4.96607 18.7236 4.92745 18.6264 4.92745C18.5292 4.92745 18.4359 4.96607 18.3672 5.03481L17.5895 5.81287L17.0707 5.29441L17.3303 5.03481C17.397 4.96565 17.434 4.87303 17.4332 4.77689C17.4323 4.68075 17.3938 4.58879 17.3258 4.52081C17.2578 4.45282 17.1658 4.41426 17.0697 4.41342C16.9736 4.41259 16.8809 4.44955 16.8118 4.51634L16.5522 4.77594L16.0337 4.2571L16.8118 3.47904C16.8468 3.44521 16.8747 3.40475 16.894 3.36002C16.9132 3.31529 16.9233 3.26717 16.9237 3.21849C16.9241 3.1698 16.9149 3.12152 16.8964 3.07646C16.878 3.03139 16.8508 2.99045 16.8163 2.95603C16.7819 2.9216 16.741 2.89437 16.6959 2.87594C16.6508 2.8575 16.6026 2.84822 16.5539 2.84865C16.5052 2.84907 16.4571 2.85918 16.4123 2.8784C16.3676 2.89762 16.3271 2.92555 16.2933 2.96057L15.5153 3.74011C15.4471 3.80821 15.3931 3.88906 15.3562 3.97805C15.3193 4.06704 15.3004 4.16243 15.3004 4.25876C15.3004 4.35508 15.3193 4.45047 15.3562 4.53946C15.3931 4.62845 15.4471 4.70931 15.5153 4.77741L17.0714 6.33317C17.2089 6.47065 17.3954 6.54788 17.5899 6.54788C17.7843 6.54788 17.9708 6.47065 18.1083 6.33317L18.886 5.55547C18.9204 5.52136 18.9476 5.48079 18.9662 5.43609C18.9848 5.3914 18.9943 5.34347 18.9943 5.29506C18.9943 5.24666 18.9846 5.19874 18.966 5.15407C18.9473 5.1094 18.92 5.06887 18.8857 5.03481ZM6.69985 15.6652L6.95908 15.406C7.06124 15.3038 7.14226 15.1825 7.19754 15.049C7.25282 14.9155 7.28126 14.7724 7.28124 14.628C7.28122 14.4835 7.25275 14.3404 7.19744 14.2069C7.14213 14.0735 7.06108 13.9522 6.9589 13.85C6.85672 13.7479 6.73543 13.6668 6.60193 13.6116C6.46844 13.5563 6.32537 13.5279 6.18089 13.5279C6.0364 13.5279 5.89334 13.5564 5.75986 13.6117C5.62638 13.667 5.5051 13.748 5.40295 13.8502L4.88448 14.369C4.81574 14.4378 4.77713 14.531 4.77713 14.6283C4.77713 14.7255 4.81574 14.8187 4.88448 14.8875L5.92178 15.9244L6.95908 16.9614C7.02784 17.0302 7.1211 17.0688 7.21837 17.0689C7.31564 17.0689 7.40893 17.0303 7.47773 16.9616C7.54654 16.8928 7.58521 16.7995 7.58524 16.7023C7.58528 16.605 7.54667 16.5117 7.47792 16.4429L6.69985 15.6652ZM5.92178 14.369C5.95537 14.3332 5.99581 14.3044 6.04072 14.2845C6.08563 14.2646 6.13409 14.2539 6.18321 14.2531C6.23234 14.2522 6.28113 14.2613 6.32669 14.2797C6.37224 14.2981 6.41364 14.3254 6.44842 14.3601C6.4832 14.3948 6.51065 14.4362 6.52913 14.4817C6.54762 14.5272 6.55678 14.576 6.55605 14.6251C6.55532 14.6742 6.54473 14.7227 6.5249 14.7677C6.50507 14.8126 6.47641 14.8531 6.44062 14.8868L6.18102 15.146L5.66255 14.6301L5.92178 14.369ZM8.77408 13.591L9.03332 13.3314C9.13838 13.2299 9.22218 13.1085 9.27983 12.9743C9.33748 12.8401 9.36782 12.6958 9.36909 12.5497C9.37036 12.4037 9.34253 12.2588 9.28722 12.1236C9.23191 11.9884 9.15023 11.8656 9.04695 11.7623C8.94367 11.6591 8.82085 11.5774 8.68567 11.5221C8.55048 11.4668 8.40563 11.4389 8.25958 11.4402C8.11352 11.4415 7.96918 11.4718 7.83497 11.5295C7.70077 11.5871 7.57939 11.6709 7.47792 11.776L6.95908 12.2944C6.89034 12.3632 6.85173 12.4564 6.85173 12.5537C6.85173 12.6509 6.89034 12.7441 6.95908 12.8129L7.99638 13.8498L9.03332 14.8875C9.10247 14.9543 9.19509 14.9913 9.29123 14.9904C9.38737 14.9896 9.47933 14.951 9.54732 14.883C9.6153 14.8151 9.65386 14.7231 9.6547 14.627C9.65553 14.5308 9.61857 14.4382 9.55178 14.369L8.77408 13.591ZM7.99638 12.2944C8.06627 12.2279 8.15909 12.1907 8.25562 12.1907C8.35214 12.1907 8.44496 12.2279 8.51485 12.2944C8.58362 12.3632 8.62226 12.4564 8.62228 12.5537C8.62249 12.6018 8.61309 12.6495 8.59464 12.6939C8.5762 12.7384 8.54907 12.7787 8.51485 12.8125L8.25562 13.0718L7.73678 12.5537L7.99638 12.2944ZM12.1445 10.739C11.952 10.5478 11.6951 10.4351 11.424 10.423C11.4143 10.2104 11.3429 10.0053 11.2185 9.83268C11.0942 9.66005 10.9222 9.52738 10.7237 9.45089C10.5251 9.37439 10.3086 9.35738 10.1006 9.40192C9.89252 9.44647 9.70195 9.55065 9.55215 9.70174L9.03332 10.2206C8.96458 10.2893 8.92596 10.3826 8.92596 10.4798C8.92596 10.577 8.96458 10.6703 9.03332 10.739L10.0706 11.776L11.1075 12.8129C11.1767 12.8797 11.2693 12.9167 11.3655 12.9158C11.4616 12.915 11.5536 12.8764 11.6216 12.8084C11.6895 12.7405 11.7281 12.6485 11.7289 12.5524C11.7298 12.4562 11.6928 12.3636 11.626 12.2944L10.8483 11.5167L11.1075 11.2575C11.1763 11.1888 11.2696 11.1502 11.3668 11.1502C11.464 11.1502 11.5573 11.1888 11.626 11.2575L12.1445 11.776C12.2133 11.8447 12.3067 11.8833 12.404 11.8832C12.5013 11.8832 12.5946 11.8445 12.6633 11.7756C12.7321 11.7068 12.7707 11.6134 12.7706 11.5161C12.7705 11.4188 12.7318 11.3255 12.663 11.2568L12.1445 10.739ZM10.0706 10.2202C10.1047 10.1862 10.1451 10.1592 10.1896 10.1407C10.2341 10.1223 10.2818 10.1129 10.33 10.1129C10.3781 10.1129 10.4258 10.1224 10.4703 10.1408C10.5148 10.1593 10.5552 10.1863 10.5893 10.2204C10.6233 10.2545 10.6503 10.2949 10.6687 10.3394C10.6871 10.3839 10.6966 10.4316 10.6966 10.4798C10.6966 10.5279 10.6871 10.5756 10.6686 10.6201C10.6502 10.6646 10.6232 10.705 10.5891 10.739L10.3299 11.0001L9.81102 10.4816L10.0706 10.2202Z" fill="white"/>
</g>
<defs>
<clipPath id="clip0_132_551">
<rect width="22" height="22" fill="white"/>
</clipPath>
</defs>
</svg>
