<svg width="126" height="292" viewBox="0 0 126 292" fill="none" xmlns="http://www.w3.org/2000/svg">
<path d="M112.799 18.8723C112.903 17.7616 112.663 16.6457 112.112 15.676C111.609 14.7056 110.815 13.9172 109.841 13.4215C109.005 13.0221 108.06 12.909 107.153 13.0997C106.246 13.2904 105.427 13.7744 104.822 14.4769C104.563 13.62 104.037 12.8681 103.322 12.3301C102.606 11.7921 101.738 11.496 100.843 11.4847C99.7499 11.4964 98.6882 11.8503 97.807 12.4966C96.8827 13.121 96.1728 14.0146 95.7737 15.0562C95.2866 16.3914 95.2419 17.848 95.6462 19.2106C96.1585 20.6156 97 21.8774 98.1003 22.8904C99.8632 24.6083 102.205 26.7905 102.205 26.7905C102.205 26.7905 104.889 25.6165 107.233 24.8603C108.669 24.4398 109.983 23.6817 111.065 22.6494C112.034 21.609 112.641 20.2847 112.799 18.8723Z" fill="#C4912D"/>
<path d="M93.4801 11.4413C93.3179 11.0257 93.0314 10.6703 92.6599 10.4235C92.3057 10.1674 91.8801 10.0288 91.4431 10.027C91.0724 10.0348 90.7146 10.1643 90.4249 10.3957C90.1352 10.6271 89.9297 10.9474 89.8401 11.3071C89.5934 11.0479 89.2705 10.874 88.9184 10.8106C88.5662 10.7471 88.2029 10.7974 87.8812 10.9541C87.4928 11.1546 87.177 11.4719 86.9784 11.8613C86.7611 12.2511 86.6683 12.6981 86.7124 13.1422C86.7789 13.7068 87.0255 14.235 87.4155 14.6486C87.8514 15.0581 88.379 15.3573 88.9543 15.5212C89.8939 15.816 91.1225 16.1757 91.1225 16.1757C91.1225 16.1757 91.8683 15.2736 92.5714 14.5816C93.0083 14.1733 93.3411 13.6664 93.542 13.1032C93.7006 12.5569 93.6789 11.9742 93.4801 11.4413Z" fill="#C4912D"/>
<path d="M125.097 36.2335L113.661 20.5637C113.603 20.4835 113.525 20.4198 113.434 20.3788C113.344 20.3378 113.245 20.3209 113.146 20.3297C113.047 20.3385 112.952 20.3728 112.871 20.4292C112.789 20.4856 112.724 20.5621 112.68 20.6514L103.91 38.7407L125.097 36.2335Z" fill="#C4912D"/>
<path d="M125.097 36.2342L113.661 20.5644C113.603 20.4842 113.525 20.4205 113.434 20.3795C113.344 20.3385 113.245 20.3216 113.146 20.3304C113.047 20.3393 112.952 20.3735 112.871 20.4299C112.789 20.4863 112.724 20.5628 112.68 20.6521L103.91 38.7415L125.097 36.2342Z" fill="black"/>
<path d="M113.719 21.3419L124.423 36.2195L121.961 36.0132L106.166 34.6954L111.085 22.0192L113.719 21.3419Z" fill="#EAEAEA"/>
<path d="M116.978 51.8901L125.097 36.2335L100.924 33.5877C100.54 33.5456 100.152 33.6224 99.8128 33.8079C99.4738 33.9933 99.1999 34.2785 99.0282 34.6247L87.2423 58.397C87.1584 58.5663 87.1168 58.7535 87.1209 58.9425C87.125 59.1315 87.1748 59.3166 87.2661 59.4822C87.3573 59.6477 87.4873 59.7887 87.6448 59.8931C87.8024 59.9975 87.9829 60.0622 88.1709 60.0817L110.876 62.4231L116.978 51.8901Z" fill="#C4912D"/>
<path d="M108.451 22.673L122.728 36.0368L103.246 33.8405L108.451 22.673Z" fill="#EAEAEA"/>
<path d="M103.246 33.8398C103.26 33.7647 103.284 33.6922 103.32 33.6246C103.393 33.4595 103.475 33.2561 103.576 33.0173C103.828 32.4506 104.166 31.6848 104.592 30.7326C105.506 28.7317 106.779 25.9422 108.303 22.6066L108.398 22.3988L108.566 22.555C111.272 25.0785 114.462 28.0537 117.877 31.2338L122.857 35.9048L122.589 36.1583L114.294 26.0653L111.912 23.1174L111.287 22.317C111.209 22.2285 111.142 22.1307 111.088 22.0259C111.181 22.0986 111.265 22.1822 111.337 22.275C111.514 22.4754 111.735 22.7275 112.009 23.037C112.613 23.7438 113.444 24.7159 114.475 25.9209C116.583 28.4332 119.503 31.9096 122.877 35.9247L122.608 36.1775L117.618 31.5183L108.337 22.7909L108.599 22.7415L104.767 30.8093C104.309 31.7482 103.94 32.4999 103.668 33.0571C103.548 33.2922 103.447 33.4846 103.368 33.6467C103.337 33.7169 103.296 33.782 103.246 33.8398Z" fill="#371C0F"/>
<path d="M103.965 40.0504C103.783 40.3769 96.9124 53.9794 96.9124 53.9794L109.834 55.4284L117.306 41.2944L103.965 40.0504Z" fill="white"/>
<path d="M8.70456 262.985L15.731 253.811L16.0958 253.335L28.066 262.238L16.9802 274.413L17.387 286.737C23.5607 288.334 24.4871 291.418 24.4871 291.418L11.6547 291.404L0 268.954L8.70456 262.985Z" fill="#634F45"/>
<path d="M0.000732422 268.954L11.6547 291.404L24.4879 291.418C24.1627 290.671 23.6685 290.011 23.0441 289.488L12.6091 288.903L1.84909 267.684L0.000732422 268.954Z" fill="#A0A0A0"/>
<path d="M17.3082 281.09C17.2131 281.221 16.4731 280.8 15.4812 280.828C14.4877 280.828 13.7603 281.27 13.6615 281.139C13.5407 281.042 14.2644 280.274 15.4731 280.263C16.6817 280.241 17.4261 280.989 17.3082 281.09Z" fill="#371C0F"/>
<path d="M17.1032 278.033C16.975 278.124 16.4038 277.37 15.3809 277.166C14.3579 276.962 13.5384 277.433 13.4566 277.3C13.4131 277.242 13.5605 277.027 13.9217 276.83C14.4054 276.582 14.959 276.505 15.492 276.612C16.0251 276.72 16.5061 277.004 16.8563 277.42C17.1128 277.742 17.1659 277.996 17.1032 278.033Z" fill="#371C0F"/>
<path d="M17.1894 274.108C17.0486 274.182 16.6116 273.437 15.7154 273.128C14.8251 272.806 14.0203 273.109 13.9548 272.965C13.9201 272.9 14.083 272.722 14.4382 272.588C14.9134 272.426 15.4297 272.428 15.9032 272.596C16.3768 272.763 16.7799 273.086 17.0472 273.511C17.2425 273.838 17.2565 274.079 17.1894 274.108Z" fill="#371C0F"/>
<path d="M20.6261 271.066C20.4736 271.12 20.1102 270.39 19.3165 269.873C18.5353 269.334 17.7231 269.284 17.7143 269.119C17.6708 268.971 18.665 268.75 19.6304 269.405C20.5959 270.059 20.7794 271.05 20.6261 271.066Z" fill="#371C0F"/>
<path d="M22.3012 268.433C22.2363 268.476 21.8133 267.959 21.1817 267.09L20.0983 265.542C19.8501 265.227 19.6497 264.878 19.5036 264.504C19.4268 264.244 19.4551 263.964 19.5824 263.725C19.6585 263.589 19.7722 263.479 19.9097 263.407C20.0472 263.336 20.2026 263.305 20.357 263.32C20.8078 263.408 21.2237 263.624 21.5546 263.943C22.3638 264.644 22.8814 265.623 23.0057 266.687C23.1365 267.288 23.0309 267.915 22.7109 268.44C22.7094 267.875 22.6752 267.312 22.6085 266.751C22.4837 266.169 22.2426 265.617 21.8995 265.13C21.6982 264.848 21.4617 264.592 21.1957 264.369C20.946 264.137 20.6419 263.971 20.3113 263.886C20.2637 263.877 20.2145 263.884 20.1709 263.905C20.1272 263.926 20.0912 263.96 20.0681 264.002C20.0109 264.115 19.9988 264.245 20.0342 264.366C20.1628 264.683 20.3291 264.983 20.5295 265.26L21.5126 266.87C21.858 267.345 22.1243 267.873 22.3012 268.433Z" fill="#371C0F"/>
<path d="M22.7604 268.814C22.7 268.811 22.7494 268.136 23.4451 267.365C23.9185 266.852 24.5461 266.508 25.2326 266.385C25.9192 266.262 26.6272 266.365 27.2494 266.681C27.314 266.738 27.3652 266.809 27.3995 266.888C27.4339 266.968 27.4506 267.053 27.4484 267.14C27.4401 267.288 27.386 267.429 27.2936 267.545C27.162 267.703 27.0066 267.839 26.833 267.949C26.547 268.148 26.2433 268.321 25.9258 268.465C25.3915 268.71 24.8216 268.869 24.2373 268.936C23.7066 269.054 23.152 269.003 22.6521 268.788C22.6595 268.699 23.2594 268.743 24.1732 268.544C24.7035 268.428 25.2167 268.245 25.7003 267.999C25.9831 267.854 26.2542 267.687 26.511 267.5C26.6346 267.419 26.7464 267.322 26.8433 267.211C26.9067 267.099 26.8898 267.131 26.8691 267.097C26.7567 267.027 26.6314 266.98 26.5006 266.959C26.344 266.921 26.1845 266.896 26.0238 266.885C25.6092 266.853 25.1926 266.905 24.7982 267.036C24.4037 267.168 24.0395 267.377 23.7266 267.651C23.0383 268.259 22.8467 268.85 22.7604 268.814Z" fill="#371C0F"/>
<path d="M10.2381 268.57C10.2382 268.871 10.1491 269.165 9.98181 269.416C9.81455 269.666 9.57676 269.861 9.2985 269.977C9.02025 270.092 8.71405 270.122 8.41862 270.064C8.12319 270.005 7.85182 269.86 7.63883 269.647C7.42585 269.434 7.28082 269.163 7.22209 268.867C7.16337 268.572 7.19358 268.265 7.30891 267.987C7.42424 267.709 7.61952 267.471 7.87003 267.304C8.12053 267.137 8.41501 267.047 8.71622 267.048C9.11985 267.048 9.50694 267.208 9.79235 267.493C10.0778 267.779 10.2381 268.166 10.2381 268.57Z" fill="#EAEAEA"/>
<path d="M26.9508 263.462L24.487 266.168L14.1265 255.906L15.5658 254.026L26.9508 263.462Z" fill="black"/>
<path d="M58.9295 267.648L57.6176 283.251C57.6176 283.251 73.0369 288.512 73.0744 291.418L42.7312 291.271L43.777 266.877L58.9295 267.648Z" fill="#634F45"/>
<path d="M48.2984 281.486C48.0023 281.561 47.7442 281.742 47.5736 281.996C47.4029 282.249 47.3317 282.556 47.3735 282.859C47.4374 283.157 47.6133 283.42 47.865 283.593C48.1167 283.766 48.425 283.836 48.7266 283.788C49.0403 283.708 49.3132 283.514 49.4925 283.245C49.6717 282.975 49.7447 282.649 49.6972 282.328C49.5988 282.024 49.3861 281.769 49.1038 281.618C48.8216 281.466 48.4916 281.431 48.1834 281.518" fill="#EAEAEA"/>
<path d="M42.7312 291.275L42.8359 288.843L71.5607 289.533C71.5607 289.533 73.0899 290.752 73.0744 291.418L42.7312 291.275Z" fill="#A0A0A0"/>
<path d="M58.1145 283.121C58.1027 283.268 57.3584 283.3 56.6059 283.742C55.8424 284.163 55.4356 284.788 55.3029 284.723C55.1673 284.687 55.4312 283.811 56.3509 283.292C57.2707 282.773 58.1558 282.986 58.1145 283.121Z" fill="#371C0F"/>
<path d="M61.2364 284.589C61.2629 284.737 60.6092 284.958 60.0763 285.558C59.5251 286.147 59.3651 286.817 59.2185 286.803C59.0777 286.82 59.0166 285.947 59.6946 285.211C60.3726 284.474 61.2393 284.448 61.2364 284.589Z" fill="#371C0F"/>
<path d="M62.8607 288.485C62.7243 288.51 62.5541 287.761 62.9727 286.968C63.3913 286.174 64.1018 285.885 64.1578 286.01C64.2359 286.135 63.7657 286.548 63.4304 287.206C63.081 287.856 63.0081 288.475 62.8607 288.485Z" fill="#371C0F"/>
<path d="M58.0216 279.531C57.9523 279.664 57.2846 279.427 56.4422 279.444C55.6021 279.444 54.9366 279.693 54.8658 279.562C54.7848 279.451 55.448 278.934 56.4378 278.928C57.4276 278.922 58.0997 279.419 58.0216 279.531Z" fill="#371C0F"/>
<path d="M58.2279 276.379C57.7234 276.49 57.1982 276.462 56.7082 276.298C56.1651 276.175 55.6391 275.985 55.1421 275.733C54.8471 275.585 54.5629 275.416 54.2916 275.228C54.125 275.126 53.9758 274.998 53.8494 274.849C53.7574 274.739 53.7044 274.602 53.699 274.459C53.6935 274.315 53.7358 274.174 53.8192 274.058C53.8979 273.958 53.999 273.878 54.1142 273.825C54.2294 273.771 54.3556 273.746 54.4825 273.75C54.6751 273.757 54.8656 273.793 55.0478 273.856C55.3682 273.95 55.6793 274.073 55.9771 274.225C56.4786 274.48 56.9367 274.813 57.3347 275.211C58.0075 275.897 58.219 276.464 58.1689 276.489C58.0996 276.534 57.7798 276.054 57.0885 275.481C56.6865 275.149 56.2433 274.871 55.77 274.653C55.4923 274.526 55.205 274.422 54.9107 274.342C54.5931 274.242 54.3211 274.227 54.2305 274.366C54.198 274.419 54.1929 274.44 54.2555 274.538C54.3506 274.645 54.46 274.738 54.5805 274.815C54.8312 274.995 55.0918 275.161 55.361 275.312C55.8209 275.568 56.3038 275.78 56.8033 275.945C57.2877 276.056 57.7637 276.201 58.2279 276.379Z" fill="#371C0F"/>
<path d="M58.0246 276.582C57.7573 276.135 57.6413 275.614 57.6937 275.096C57.6936 274.193 57.9422 273.308 58.4123 272.537C58.5036 272.341 58.6443 272.171 58.8207 272.045C58.9972 271.918 59.2033 271.84 59.419 271.817C59.554 271.826 59.6836 271.874 59.7924 271.954C59.9013 272.035 59.985 272.144 60.0336 272.271C60.1028 272.452 60.146 272.642 60.1619 272.836C60.1982 273.178 60.1823 273.523 60.1147 273.86C60.0033 274.424 59.7545 274.953 59.3902 275.398C58.7586 276.156 58.1322 276.303 58.1226 276.253C58.0769 276.176 58.6068 275.915 59.0969 275.181C59.3801 274.758 59.5675 274.278 59.646 273.775C59.6917 273.484 59.6964 273.188 59.66 272.896C59.6283 272.571 59.5192 272.306 59.3969 272.332C59.2495 272.323 58.9783 272.553 58.8412 272.805C58.6792 273.061 58.5404 273.331 58.4263 273.611C58.2328 274.092 58.1087 274.598 58.0578 275.113C57.9752 276.002 58.1064 276.564 58.0246 276.582Z" fill="#371C0F"/>
<path d="M120.842 56.7623C121.099 55.8745 121.022 54.9236 120.626 54.0885C119.243 51.1671 116.021 44.686 114.967 44.9248C114.031 45.1356 113.41 46.9611 114.568 48.892L110.978 46.0855C110.817 45.9591 110.621 45.885 110.417 45.8731C110.213 45.8612 110.01 45.9122 109.835 46.0191C109.661 46.126 109.524 46.2837 109.441 46.4711C109.359 46.6585 109.337 46.8665 109.376 47.0672C109.477 47.512 109.639 47.9409 109.855 48.3422C111.026 50.5812 114.109 52.6167 114.109 52.6167L108.073 52.9056C108.073 52.9056 107.013 54.527 109.124 55.5013C109.604 55.7126 110.119 55.8324 110.643 55.8543L113.78 56.04C113.78 56.04 108.4 62.5108 108.234 63.1004C107.996 64.0465 107.869 65.0169 107.854 65.9923L97.5359 78.4924L101.202 96.6731L119.337 62.0104L120.842 56.7623Z" fill="#FFAB9E"/>
<path d="M119.155 54.073C119.106 54.1084 118.895 53.8313 118.452 53.5269C117.868 53.1418 117.204 52.8962 116.51 52.8091C115.802 52.7328 115.088 52.7239 114.378 52.7826C113.823 52.8143 113.474 52.8201 113.467 52.7663C113.459 52.7125 113.792 52.6138 114.346 52.5121C115.076 52.371 115.823 52.3432 116.562 52.4295C117.319 52.5187 118.034 52.8259 118.62 53.3139C119.059 53.7045 119.195 54.0524 119.155 54.073Z" fill="#AA7324"/>
<path d="M119.174 52.1849C117.42 51.236 115.795 50.0645 114.341 48.6996C116.095 49.6494 117.719 50.8208 119.174 52.1849Z" fill="#AA7324"/>
<path d="M65.5579 143.445C65.7215 143.466 66.2816 179.526 66.527 195.822C66.6051 200.944 65.2853 205.991 62.7094 210.419L27.4475 272.376L7.18848 255.515L39.9476 200.157L27.886 141.804L51.7644 121.27L65.5579 143.445Z" fill="#371C0F"/>
<path d="M82.6952 136.066C82.5884 138.145 63.5395 272.072 63.5395 272.072L39.95 270.387L48.6 135.234L82.6952 136.066Z" fill="#371C0F"/>
<path d="M62.943 145.467C62.943 145.467 62.9652 145.586 62.9887 145.818C63.0131 146.067 63.0455 146.408 63.086 146.85C63.1649 147.777 63.2776 149.113 63.4221 150.825C63.6955 154.297 64.0854 159.291 64.5733 165.453C65.0302 171.637 65.5733 178.991 66.1769 187.156C66.312 189.2 66.4504 191.293 66.5919 193.434C66.6464 194.503 66.7393 195.59 66.7061 196.695C66.6773 197.808 66.57 198.917 66.3848 200.015C66.0013 202.269 65.3125 204.46 64.3374 206.528C63.851 207.582 63.2629 208.591 62.6984 209.607L60.9819 212.683C51.7512 229.178 43.3959 244.108 37.3379 254.932L30.1346 267.715L28.1594 271.178L27.6369 272.075C27.5175 272.276 27.4475 272.37 27.4475 272.37C27.4475 272.37 27.4947 272.26 27.603 272.053L28.0916 271.137L30.0078 267.637C31.6926 264.589 34.1143 260.205 37.105 254.796C43.1372 243.956 51.4578 229.007 60.6503 212.493L62.3675 209.417C62.9342 208.395 63.5179 207.397 63.9955 206.361C64.9574 204.326 65.6377 202.169 66.0177 199.949C66.2011 198.869 66.3084 197.778 66.3391 196.682C66.3759 195.599 66.2823 194.522 66.23 193.452C66.0929 191.314 65.9586 189.222 65.8269 187.177C65.255 179.012 64.7398 171.655 64.3065 165.47C63.8731 159.304 63.5208 154.308 63.2747 150.834C63.1612 149.119 63.0728 147.782 63.0108 146.855C62.9858 146.412 62.9659 146.067 62.9519 145.818C62.9394 145.588 62.943 145.467 62.943 145.467Z" fill="#634F45"/>
<path d="M46.8208 208.798C46.8135 208.823 46.6454 208.798 46.3433 208.725C45.9167 208.614 45.5027 208.46 45.1081 208.264C43.7948 207.615 42.6532 206.666 41.776 205.493C40.8988 204.32 40.3108 202.956 40.0597 201.513C39.9829 201.08 39.9517 200.64 39.9668 200.2C39.9801 199.888 40.0007 199.719 40.0273 199.719C40.0966 199.719 40.0914 200.403 40.3221 201.462C40.6357 202.838 41.2345 204.132 42.0799 205.262C42.9252 206.392 43.9983 207.332 45.2297 208.021C46.1819 208.543 46.8385 208.733 46.8208 208.798Z" fill="#634F45"/>
<path d="M49.4916 204.771C48.9246 204.874 48.3433 204.871 47.7774 204.762C46.3966 204.571 45.067 204.11 43.8644 203.405C42.6618 202.7 41.6099 201.765 40.7687 200.654C40.3975 200.213 40.111 199.708 39.9233 199.163C39.9808 199.131 40.311 199.692 40.9809 200.486C42.7375 202.563 45.1507 203.977 47.8209 204.494C48.8372 204.691 49.4916 204.704 49.4916 204.771Z" fill="#634F45"/>
<path d="M32.8644 147.399C33.0374 147.553 33.229 147.685 33.4348 147.792C33.7248 147.904 34.036 147.951 34.3461 147.929C34.6563 147.907 34.9578 147.817 35.2294 147.666C36.0513 147.184 36.8287 146.63 37.5523 146.011C38.3984 145.334 39.3027 144.558 40.2121 143.7C41.7631 142.232 43.2082 140.656 44.5368 138.984C45.5538 137.695 46.136 136.859 46.1862 136.892C46.1027 137.118 45.9886 137.332 45.8471 137.527C45.6061 137.921 45.2362 138.477 44.7527 139.149C43.4774 140.887 42.0467 142.505 40.4782 143.983C39.5599 144.849 38.6394 145.625 37.7734 146.293C37.0214 146.915 36.2077 147.458 35.3451 147.914C35.0396 148.069 34.7024 148.151 34.3601 148.153C34.0177 148.155 33.6795 148.078 33.3721 147.927C32.9425 147.681 32.8489 147.401 32.8644 147.399Z" fill="#634F45"/>
<path d="M45.997 146.31C45.7686 147.037 45.4559 147.735 45.0654 148.39C44.2232 150.042 43.0707 151.516 41.6708 152.731C40.2327 153.947 38.4243 154.637 36.5422 154.69C35.9776 154.697 35.4153 154.616 34.8751 154.452C34.6724 154.407 34.4804 154.324 34.3098 154.205C35.0426 154.352 35.7883 154.424 36.5355 154.42C38.3343 154.29 40.0461 153.595 41.4269 152.435C42.7883 151.243 43.9387 149.83 44.8296 148.256C45.1835 147.587 45.5731 146.937 45.997 146.31Z" fill="#634F45"/>
<path d="M82.7607 136.406C82.7607 136.406 64.4363 144.652 57.9501 141.635C51.4638 138.617 47.2807 131.805 42.5345 133.315C37.7883 134.824 30.8827 137.101 28.3106 143.819C27.1965 142.274 26.561 140.436 26.4829 138.533C26.5198 135.908 28.7786 132.379 28.7786 132.379L26.2449 101.931L27.0843 50.8089C27.0843 50.8089 32.2594 43.327 45.9829 43.9697L64.9035 46.9604C64.9035 46.9604 74.5404 50.0226 77.1707 55.012C79.801 60.0014 78.1811 95.183 78.1811 95.183C78.1811 95.183 83.7085 129.427 83.668 132.096C83.6822 133.581 83.3726 135.052 82.7607 136.406Z" fill="#C4912D"/>
<path d="M94.9756 77.9521L87.2519 85.0324L77.1552 55.0097L69.2842 73.287L72.9691 102.693C73.2266 104.748 74.0437 106.692 75.3314 108.314C76.619 109.936 78.3276 111.173 80.2705 111.89C82.2134 112.607 84.3159 112.776 86.3484 112.379C88.3809 111.981 90.2652 111.034 91.7955 109.638L99.9546 102.466C100.528 101.962 100.963 101.319 101.217 100.599C101.471 99.879 101.536 99.1058 101.406 98.3534L98.0576 79.0001C98.0009 78.6718 97.8568 78.3649 97.6404 78.1116C97.424 77.8583 97.1433 77.668 96.8279 77.5608C96.5124 77.4535 96.1739 77.4332 95.848 77.5021C95.522 77.571 95.2206 77.7265 94.9756 77.9521Z" fill="#C4912D"/>
<path d="M35.5463 69.3626C35.5463 70.0384 31.9122 102.962 31.9122 102.962L47.3101 136.274C45.7948 139.41 42.9457 142.265 39.7692 145.052C39.7692 145.052 35.8308 141.451 35.6053 133.798C35.6053 133.798 18.1077 113.243 16.3072 107.841C14.5068 102.439 19.4623 65.5457 19.4623 65.5457L35.5463 69.3626Z" fill="#FFAB9E"/>
<path d="M74.2956 75.7346C74.2162 75.9693 74.1056 76.1924 73.9669 76.3979C73.7348 76.8128 73.3869 77.4046 72.9506 78.1327C72.4988 78.8535 72.0286 79.7438 71.3381 80.6635C70.9742 81.155 70.5184 81.5712 69.996 81.8892C69.4204 82.2219 68.7697 82.4032 68.1049 82.4161C66.8346 82.4279 65.5966 82.0161 64.5865 81.2458C63.7882 80.6234 63.0949 79.8769 62.5333 79.0348C62.1545 78.4772 61.8061 77.8996 61.4897 77.3043C61.3558 77.0956 61.2511 76.8694 61.1787 76.6322C61.2369 76.5954 61.7617 77.5166 62.7536 78.8756C63.327 79.6695 64.0153 80.3736 64.7958 80.965C65.7503 81.6684 66.9067 82.0441 68.0924 82.0358C68.6938 82.0244 69.2829 81.8636 69.8066 81.5678C70.2912 81.2765 70.7163 80.8962 71.0595 80.4469C71.7338 79.5824 72.2387 78.6914 72.7185 77.9927C73.1835 77.2822 73.5667 76.7111 73.8387 76.3212C73.964 76.1061 74.1177 75.9088 74.2956 75.7346Z" fill="#371C0F"/>
<path d="M86.5791 102.958C86.4466 102.752 86.343 102.529 86.2711 102.295C86.0285 101.675 85.8245 101.041 85.6601 100.396C84.5443 96.1077 84.7103 91.5861 86.1377 87.3908C86.3488 86.7596 86.5986 86.1421 86.8857 85.5417C86.9731 85.3126 87.0927 85.0972 87.2409 84.902C87.3021 84.9285 86.8783 85.8777 86.3956 87.4741C85.1335 91.648 84.9711 96.0771 85.9239 100.332C86.288 101.957 86.6432 102.935 86.5791 102.958Z" fill="#371C0F"/>
<path d="M90.6155 96.8618C90.2194 96.3862 89.8906 95.8585 89.6382 95.2935C88.2698 92.6342 87.4503 89.7269 87.2283 86.7444C87.1487 86.1308 87.1537 85.5091 87.243 84.8968C87.372 85.4968 87.4572 86.1055 87.498 86.7179C87.8672 89.6396 88.6708 92.4898 89.8822 95.1741C90.167 95.7182 90.4121 96.2822 90.6155 96.8618Z" fill="#371C0F"/>
<path d="M73.6974 81.9017C73.7688 82.0019 73.8249 82.1122 73.8639 82.2289C74.0004 82.5519 74.1192 82.8821 74.2199 83.218C74.5954 84.4611 74.741 85.7623 74.6496 87.0577C74.523 89.0088 73.7345 90.8584 72.4143 92.3006C71.6328 93.1519 70.6646 93.8106 69.5857 94.2249C68.4137 94.6602 67.1411 94.749 65.9199 94.4806C64.6901 94.2298 63.5688 93.6024 62.7118 92.6853C61.9545 91.807 61.4337 90.75 61.1988 89.6143C60.984 88.6113 60.8502 87.5927 60.7986 86.5683C60.7367 85.6198 60.68 84.7325 60.6269 83.9151C60.5355 82.3387 60.4618 81.0409 60.4058 80.0747C60.3896 79.6576 60.3771 79.3127 60.3653 79.0297C60.3528 78.9068 60.3567 78.7829 60.3771 78.6612C60.4157 78.7774 60.4378 78.8984 60.4427 79.0208C60.4736 79.3031 60.5097 79.6465 60.5554 80.0607C60.6416 81.0247 60.7574 82.3203 60.8981 83.893C60.9644 84.7081 61.0374 85.5933 61.1192 86.5403C61.1836 87.5453 61.3265 88.5438 61.5467 89.5266C61.7763 90.6003 62.274 91.5985 62.9934 92.4281C63.801 93.2826 64.8526 93.8671 66.0047 94.1018C67.1545 94.3546 68.3526 94.2741 69.4582 93.8696C70.4857 93.4797 71.4098 92.8589 72.1593 92.0552C73.4416 90.6762 74.2243 88.9069 74.382 87.0304C74.4939 85.7633 74.3918 84.4865 74.0799 83.2533C73.8544 82.3815 73.665 81.9135 73.6974 81.9017Z" fill="#371C0F"/>
<g opacity="0.1">
<path d="M35.9474 113.735C36.2608 111.339 36.8849 108.994 37.8038 106.759C38.9027 103.98 40.3229 101.224 40.4098 98.2378C40.3745 96.3533 40.0698 94.4835 39.5048 92.6853C37.8033 86.2087 36.1011 79.7323 34.3982 73.2561C34.1255 78.2568 33.8531 83.2578 33.5809 88.259C33.3973 89.4759 33.5746 90.7199 34.0909 91.837C34.8677 93.1452 36.489 93.7333 37.3801 94.9677C37.7174 95.445 37.9339 95.997 38.0109 96.5763C38.0879 97.1556 38.0232 97.745 37.8223 98.2938C37.4095 99.3838 36.422 99.652 35.2885 99.9093C34.7731 100.038 34.2507 100.136 33.7239 100.204C32.9464 100.316 31.8401 100.13 31.4716 100.824C30.5556 102.547 31.4945 103.616 31.8563 104.451C33.5138 108.273 35.9474 113.735 35.9474 113.735Z" fill="black"/>
</g>
<path d="M30.2762 48.2295C30.2762 48.2295 14.4089 56.256 12.1942 99.0558C12.1575 99.7447 12.2777 100.433 12.546 101.069C12.8142 101.704 13.2234 102.27 13.7425 102.725C14.2617 103.179 14.8773 103.509 15.5429 103.691C16.2085 103.872 16.9066 103.9 17.5845 103.773C24.0943 102.538 33.9508 100.623 33.8904 100.359C33.8005 99.9645 37.5864 62.687 37.5864 62.687L30.2762 48.2295Z" fill="#C4912D"/>
<path d="M37.3041 62.0236C37.3287 62.2132 37.3361 62.4046 37.3262 62.5955C37.3262 62.9707 37.3262 63.5241 37.3063 64.2361C37.2746 65.6599 37.1928 67.7205 37.0204 70.2617C36.8479 72.8028 36.5936 75.8252 36.2421 79.1741C36.0549 80.8477 35.8589 82.604 35.6525 84.4236C35.542 85.3326 35.4297 86.257 35.3157 87.1969C35.2339 88.155 34.9177 89.0924 34.7703 90.024C34.6852 90.4755 34.6852 90.9389 34.7703 91.3904C34.88 91.8222 35.0996 92.2183 35.4078 92.5401C36.0114 93.2033 36.912 93.5556 37.6114 94.2248C38.2709 94.9031 38.6936 95.7763 38.8164 96.7144C38.8979 97.1618 38.9111 97.619 38.8555 98.0704C38.8091 98.537 38.6138 98.9763 38.2983 99.3233C37.9528 99.6166 37.5226 99.7917 37.0705 99.823L35.881 100.051L33.6074 100.507L29.5311 101.347L23.6286 102.572L22.7014 102.759L22.3293 102.833L22.288 102.841H22.2769C22.2821 102.86 22.2357 102.67 22.2563 102.75H22.2607L22.2813 102.746L22.3602 102.731L22.5076 102.703C22.6934 102.658 22.8828 102.629 23.0736 102.617C22.8957 102.688 22.7116 102.742 22.5238 102.779L22.3764 102.816L22.2983 102.835L22.2777 102.84H22.2725C22.2643 102.81 22.2579 102.78 22.2533 102.75H22.2629L22.3049 102.739C22.4199 102.711 22.5427 102.681 22.6734 102.648L23.5932 102.427L29.4714 101.082L33.5403 100.198L35.8117 99.7235L37.0027 99.4862C37.3855 99.4646 37.7513 99.3207 38.0463 99.0757C38.2787 98.7468 38.4357 98.3706 38.5059 97.974C38.5761 97.5774 38.5578 97.1701 38.4523 96.7814C38.3381 95.9228 37.9505 95.1238 37.3468 94.5027C36.7226 93.8954 35.8124 93.5446 35.1211 92.8076C34.7676 92.437 34.516 91.9813 34.3908 91.4847C34.296 90.9853 34.296 90.4725 34.3908 89.9731C34.5492 88.987 34.8566 88.0887 34.9362 87.1571C35.0516 86.2197 35.1659 85.2962 35.2789 84.3868C35.4896 82.5694 35.6931 80.8161 35.8876 79.1438C36.2561 75.8009 36.5413 72.7851 36.7469 70.2499C36.9526 67.7146 37.0764 65.6592 37.1545 64.2383C37.1928 63.5565 37.223 63.0127 37.2459 62.6014C37.2479 62.4075 37.2674 62.2141 37.3041 62.0236Z" fill="#371C0F"/>
<path d="M30.7721 88.2662C30.7979 88.2736 30.764 88.4527 30.6792 88.7755C30.6329 88.973 30.568 89.1658 30.4854 89.3511C30.392 89.6035 30.2799 89.8487 30.15 90.0844C29.8219 90.706 29.4162 91.2835 28.9429 91.803C27.774 93.0848 26.2667 94.0099 24.5946 94.4717C23.917 94.6588 23.2185 94.7594 22.5156 94.7709C22.2466 94.7794 21.9774 94.7686 21.7101 94.7385C21.5075 94.7279 21.3064 94.6983 21.1094 94.65C20.7837 94.5763 20.6075 94.5292 20.6134 94.5026C20.6252 94.4289 21.346 94.5763 22.5038 94.5026C23.1786 94.4531 23.8459 94.3295 24.4937 94.1341C26.0868 93.6521 27.5284 92.7669 28.679 91.5643C29.1465 91.0738 29.5587 90.5336 29.9083 89.9532C30.5097 88.9546 30.7035 88.2441 30.7721 88.2662Z" fill="#371C0F"/>
<g opacity="0.1">
<path d="M46.7913 126.712C54.1089 131.187 63.1223 132.357 71.6197 131.189C73.0289 131.058 74.404 130.68 75.682 130.072C76.3186 129.762 76.8798 129.317 77.3261 128.768C77.7725 128.219 78.0932 127.578 78.2659 126.892C78.4144 126.199 78.3196 125.476 77.9974 124.845C77.6752 124.214 77.1453 123.714 76.4971 123.428C75.1528 122.95 73.7113 123.668 72.4282 124.293C64.3146 128.204 55.0494 129.007 46.3838 126.551" fill="black"/>
</g>
<path d="M81.1452 127.862C81.0481 127.956 80.9397 128.038 80.8224 128.106C80.6013 128.249 80.2874 128.487 79.8452 128.729C78.6135 129.447 77.3112 130.035 75.959 130.486C71.4572 131.912 66.6847 132.268 62.0211 131.525C57.3902 130.761 52.8606 129.475 48.5188 127.693C46.8465 127.038 45.5052 126.479 44.5818 126.084L43.522 125.62C43.3948 125.573 43.2742 125.511 43.1631 125.433C43.2968 125.455 43.4272 125.494 43.5515 125.548L44.6363 125.946L48.6161 127.44C52.9622 129.138 57.473 130.379 62.0756 131.145C66.6864 131.875 71.402 131.561 75.8757 130.228C77.2212 129.804 78.5252 129.259 79.7715 128.598C80.6529 128.126 81.126 127.832 81.1452 127.862Z" fill="#371C0F"/>
<g opacity="0.1">
<path d="M80.9412 112.577C83.1993 110.391 83.2619 106.412 82.8396 103.298C82.4173 100.183 81.2824 97.1963 80.905 94.0759C80.5461 91.1125 80.88 88.1108 80.7864 85.1267C80.6928 82.1426 80.101 79.023 78.1892 76.7295C76.8788 88.7458 77.812 100.901 80.9412 112.577Z" fill="black"/>
</g>
<g opacity="0.1">
<path d="M60.4677 79.9C60.0992 81.8611 60.3873 83.9165 60.2105 85.9204C59.9578 87.9191 59.9363 89.9402 60.1463 91.9438C60.3648 93.9627 61.2666 95.8463 62.7022 97.2825C63.4284 97.9843 64.3359 98.4697 65.3228 98.684C66.3096 98.8983 67.3367 98.833 68.2886 98.4956C69.2133 98.0641 69.9854 97.3623 70.5029 96.4828C71.0204 95.6033 71.259 94.5875 71.1871 93.5696C69.8494 94.2038 68.3651 94.4646 66.8913 94.3243C65.4117 94.1741 64.0384 93.4872 63.0309 92.3934C61.685 90.682 60.9535 88.5678 60.9541 86.3906C60.848 84.2357 60.6143 82.0262 60.4677 79.9Z" fill="black"/>
</g>
<path d="M36.2695 73.9378C36.0124 74.0271 35.7453 74.0847 35.4743 74.1095C34.9584 74.1942 34.2111 74.3055 33.2825 74.4146C30.8565 74.7441 28.3974 74.7493 25.9701 74.4301C23.5187 74.0899 21.2046 73.0947 19.2716 71.5492C18.6975 71.0733 18.1839 70.5287 17.7424 69.9278C17.5684 69.7167 17.4266 69.481 17.3215 69.2284C17.9659 69.9916 18.6756 70.6971 19.4426 71.3369C21.3753 72.7809 23.6408 73.7142 26.0298 74.0505C28.4269 74.3597 30.8516 74.3911 33.2559 74.1441L35.4558 73.9614C35.7251 73.9203 35.9983 73.9124 36.2695 73.9378Z" fill="#F9F9F9"/>
<path d="M35.2287 79.5934C34.9804 79.7175 34.7178 79.8106 34.4467 79.8705C34.1379 79.9703 33.8233 80.0518 33.5049 80.1144C33.1364 80.1881 32.7126 80.2965 32.2372 80.351C31.1281 80.5178 30.0069 80.5917 28.8854 80.5721C26.1281 80.524 23.4068 79.9366 20.8751 78.8431C19.8452 78.3987 18.8544 77.8687 17.9131 77.2586C17.5019 77.0132 17.1629 76.7427 16.8563 76.5216C16.5913 76.3336 16.3381 76.1295 16.0979 75.9107C15.8769 75.7436 15.6763 75.5512 15.5002 75.3373C15.5474 75.2791 16.4384 76.0536 18.0561 77.0324C19.0043 77.5999 19.9925 78.0977 21.0129 78.5218C23.5164 79.558 26.1862 80.134 28.8943 80.222C29.9987 80.2571 31.1041 80.2113 32.2019 80.085C34.0775 79.8602 35.2088 79.5212 35.2287 79.5934Z" fill="#F9F9F9"/>
<path d="M59.858 79.1019C59.8536 79.208 54.5068 79.082 47.9188 78.8204C41.3309 78.5587 35.9914 78.2602 35.9951 78.1571C35.9988 78.0539 41.3442 78.1777 47.9343 78.4393C54.5245 78.701 59.8617 78.9957 59.858 79.1019Z" fill="#F9F9F9"/>
<path d="M60.5466 85.0663C60.229 85.1964 59.8995 85.2951 59.5627 85.3611C58.9252 85.5314 57.99 85.7333 56.8277 85.9441C50.7482 87.0225 44.5245 87.0012 38.4524 85.8814C37.2917 85.6603 36.3587 85.454 35.7219 85.2801C35.3857 85.2119 35.0569 85.1112 34.7402 84.9794C35.0826 84.997 35.4223 85.0489 35.7543 85.1341C36.3999 85.2631 37.3381 85.4289 38.4981 85.6139C44.5535 86.5787 50.7218 86.5996 56.7835 85.6758C57.9457 85.5019 58.8847 85.3398 59.531 85.2159C59.8638 85.1329 60.204 85.0827 60.5466 85.0663Z" fill="#F9F9F9"/>
<path d="M74.3937 84.1664C74.348 84.3627 74.2628 84.5475 74.1431 84.7096C73.8514 85.1755 73.4791 85.5858 73.0436 85.9212C71.5658 87.0079 69.7259 87.483 67.9068 87.2478C66.1275 86.9813 64.423 86.3476 62.9019 85.3869C62.2508 85.0389 61.6421 84.6168 61.0881 84.1288C61.7569 84.4296 62.4069 84.7704 63.0345 85.1496C64.5548 86.0171 66.2211 86.5989 67.951 86.866C69.6809 87.0845 71.4315 86.6715 72.8814 85.7031C73.4508 85.2595 73.9593 84.7429 74.3937 84.1664Z" fill="#F9F9F9"/>
<path d="M77.7809 79.6863C76.5472 80.1892 75.2278 80.4485 73.8955 80.4498C75.129 79.9462 76.4485 79.6869 77.7809 79.6863Z" fill="#F9F9F9"/>
<path d="M85.5805 79.7976C83.4395 81.2083 81.015 82.1318 78.4781 82.5031C78.4501 82.3925 80.0884 81.9268 82.0415 81.1824C83.9945 80.438 85.5304 79.6966 85.5805 79.7976Z" fill="#F9F9F9"/>
<path d="M83.1254 72.7652C81.628 73.2468 80.1197 73.694 78.6018 74.1065C79.94 73.2136 81.5168 72.746 83.1254 72.7652Z" fill="#F9F9F9"/>
<path d="M78.6763 70.1755C78.687 70.3206 78.6808 70.4666 78.6578 70.6103C78.6254 70.9353 78.5841 71.3473 78.5348 71.8477C78.4714 72.3842 78.4065 73.0416 78.3439 73.8059C78.2812 74.5701 78.1898 75.4376 78.1338 76.4008C77.982 78.3244 77.8951 80.6208 77.839 83.1708C77.811 85.7193 77.8457 88.5235 77.9865 91.4641C78.1412 94.4032 78.3911 97.1957 78.6755 99.7309C78.9865 102.261 79.3027 104.537 79.6476 106.437C79.8002 107.39 79.9719 108.246 80.1171 108.999C80.2623 109.751 80.389 110.399 80.5055 110.926L80.7524 112.146C80.7897 112.287 80.81 112.431 80.8128 112.577C80.7517 112.445 80.7064 112.306 80.6779 112.164C80.5946 111.849 80.4885 111.45 80.3596 110.96C80.2195 110.438 80.0648 109.795 79.9078 109.043C79.7508 108.292 79.5503 107.44 79.3801 106.488C79.0005 104.591 78.6556 102.313 78.324 99.7766C78.0203 97.2362 77.7602 94.4342 77.6039 91.4847C77.4624 88.5368 77.4381 85.723 77.486 83.1656C77.5597 80.609 77.6754 78.3081 77.8626 76.3853C77.9363 75.4206 78.0402 74.5524 78.1287 73.7897C78.2171 73.0269 78.2989 72.3702 78.3859 71.8352C78.4647 71.3355 78.5333 70.9287 78.5819 70.6059C78.5952 70.459 78.6269 70.3144 78.6763 70.1755Z" fill="#371C0F"/>
<g opacity="0.1">
<path d="M62.4766 78.6066C63.5784 79.3286 64.842 79.7666 66.1543 79.8813C67.4667 79.996 68.7871 79.7839 69.9975 79.264C70.2754 79.1171 70.5734 79.0121 70.8819 78.9522C71.0372 78.9248 71.197 78.9408 71.3437 78.9986C71.4904 79.0563 71.6183 79.1535 71.7132 79.2794C71.7939 79.4797 71.8131 79.6994 71.7683 79.9107C71.7236 80.1219 71.6169 80.3149 71.4619 80.4653C70.8747 81.1308 70.1096 81.6148 69.2566 81.8603C68.4037 82.1057 67.4983 82.1024 66.6472 81.8508C64.9427 81.3107 63.5008 80.1545 62.6033 78.608" fill="black"/>
</g>
<path d="M50.8484 15.6067C50.4238 13.9247 50.1663 12.2048 50.0797 10.4721C49.9972 8.72822 50.4331 6.99894 51.3326 5.50261C51.7883 4.76215 52.4173 4.14365 53.1653 3.70044C53.9133 3.25723 54.7579 3.00261 55.6263 2.95853C56.6964 2.94969 57.7635 3.33292 58.8219 3.15678C60.043 2.9519 61.007 2.0513 62.0535 1.38801C63.7047 0.348016 65.6485 -0.128567 67.5935 0.0297472C68.6143 0.0789402 69.6002 0.417351 70.436 1.00552C70.8482 1.30492 71.178 1.70367 71.3947 2.1647C71.6114 2.62573 71.708 3.13407 71.6756 3.64246C72.9073 3.41847 74.1631 3.35702 75.4107 3.45969C76.6704 3.56948 77.8365 4.16976 78.6579 5.13117C79.053 5.61834 79.2821 6.21902 79.3118 6.84559C79.3415 7.47215 79.1702 8.09181 78.8229 8.61417C79.3923 8.45621 80.0001 8.51458 80.529 8.77802C81.0579 9.04147 81.4707 9.49135 81.6876 10.041C81.8775 10.6013 81.902 11.2044 81.7582 11.7783C81.6145 12.3521 81.3085 12.8725 80.8769 13.2771C79.8221 14.1411 78.495 14.6031 77.1316 14.5808C75.8995 14.5863 74.6815 14.3195 73.5646 13.7996" fill="#371C0F"/>
<path d="M52.9474 54.5027C54.1392 54.8389 55.389 54.9174 56.6136 54.733C57.8381 54.5486 59.0093 54.1054 60.0493 53.4331C61.0892 52.7607 61.974 51.8746 62.6448 50.8336C63.3156 49.7927 63.757 48.6208 63.9396 47.396C64.3552 44.6109 64.7156 42.2334 64.7878 41.898C64.7878 41.898 71.8238 42.3786 73.4452 35.6012C75.0666 28.8239 77.4183 12.9514 77.4183 12.9514C73.9302 10.4171 69.8288 8.85987 65.5376 8.44062C61.2465 8.02136 56.9212 8.75525 53.0086 10.5665L51.8294 11.1141L46.7014 44.801C46.3816 46.9015 46.8398 49.0465 47.9899 50.8329C49.1401 52.6194 50.9029 53.9244 52.9474 54.5027Z" fill="#FFAB9E"/>
<path d="M64.8209 41.8051C61.6694 41.1547 58.783 39.5804 56.5298 37.283C56.5298 37.283 57.5181 42.6475 64.4384 43.5695L64.8209 41.8051Z" fill="#AA7324"/>
<path d="M51.0718 18.3431C50.9678 18.2694 46.7139 15.9059 45.8119 20.5865C44.9098 25.2671 49.7916 25.2067 49.8285 25.074C49.8653 24.9414 51.0718 18.3431 51.0718 18.3431Z" fill="#DEC165"/>
<path d="M48.7407 23.0252C48.723 23.0061 48.6479 23.0665 48.499 23.1034C48.289 23.1489 48.0695 23.1114 47.8866 22.9987C47.6212 22.7488 47.4273 22.4327 47.3246 22.083C47.2218 21.7333 47.2141 21.3625 47.3021 21.0088C47.368 20.6055 47.5229 20.2218 47.7554 19.8857C47.8276 19.7474 47.9325 19.6289 48.0609 19.5404C48.1894 19.4519 48.3375 19.3961 48.4924 19.3779C48.5909 19.3712 48.6886 19.3992 48.7686 19.4571C48.8486 19.515 48.9057 19.5991 48.9301 19.6948C48.9685 19.837 48.9206 19.924 48.9434 19.9373C48.9545 19.9513 49.0591 19.879 49.0584 19.6778C49.0547 19.5567 49.0097 19.4405 48.9309 19.3484C48.8207 19.2267 48.6673 19.153 48.5034 19.1428C48.3039 19.1438 48.1079 19.196 47.9342 19.2943C47.7606 19.3926 47.615 19.5338 47.5114 19.7044C47.2335 20.072 47.0501 20.5022 46.9771 20.9573C46.8739 21.3694 46.8949 21.8029 47.0373 22.2032C47.1797 22.6035 47.4372 22.9529 47.7775 23.2073C47.896 23.2682 48.0267 23.3017 48.1599 23.3053C48.293 23.3089 48.4253 23.2824 48.5469 23.2279C48.7105 23.1373 48.7547 23.037 48.7407 23.0252Z" fill="#AA7324"/>
<path d="M73.4586 23.2854C73.4037 23.5391 73.2519 23.7614 73.0354 23.9047C72.819 24.0481 72.5551 24.1011 72.3 24.0526C72.1744 24.0344 72.0536 23.9913 71.9449 23.9258C71.8362 23.8602 71.7416 23.7736 71.6669 23.671C71.5921 23.5685 71.5386 23.452 71.5095 23.3284C71.4804 23.2048 71.4763 23.0767 71.4975 22.9515C71.5526 22.6982 71.7043 22.4764 71.9203 22.333C72.1363 22.1896 72.3997 22.136 72.6545 22.1836C72.7804 22.2015 72.9013 22.2446 73.0103 22.31C73.1193 22.3755 73.214 22.4622 73.2889 22.5649C73.3639 22.6675 73.4175 22.7842 73.4466 22.9079C73.4758 23.0317 73.4798 23.16 73.4586 23.2854Z" fill="#371C0F"/>
<path d="M73.9699 22.2212C73.8225 22.3207 73.2086 21.6095 72.1629 21.3759C71.1222 21.1282 70.2349 21.4923 70.1501 21.3383C70.1074 21.269 70.2806 21.0693 70.666 20.902C71.1888 20.6907 71.7642 20.6464 72.3132 20.7752C72.8561 20.8964 73.3465 21.187 73.7135 21.6051C73.9847 21.9242 74.0422 22.1777 73.9699 22.2212Z" fill="#371C0F"/>
<path d="M63.3302 20.9661C63.2751 21.2196 63.1233 21.4416 62.9071 21.5849C62.6909 21.7282 62.4272 21.7814 62.1723 21.7333C62.0467 21.7151 61.926 21.672 61.8172 21.6065C61.7085 21.541 61.6139 21.4544 61.5392 21.3518C61.4644 21.2492 61.4109 21.1327 61.3818 21.0091C61.3527 20.8855 61.3486 20.7574 61.3698 20.6322C61.4248 20.3789 61.5765 20.157 61.7925 20.0137C62.0086 19.8704 62.272 19.8171 62.5268 19.865C62.6526 19.883 62.7735 19.926 62.8823 19.9914C62.9912 20.0569 63.0859 20.1435 63.1607 20.2461C63.2356 20.3487 63.2892 20.4653 63.3183 20.5889C63.3474 20.7126 63.3514 20.8408 63.3302 20.9661Z" fill="#371C0F"/>
<path d="M63.6589 20.0942C63.5115 20.1945 62.8975 19.4833 61.8532 19.2504C60.8126 19.0013 59.9245 19.3661 59.8405 19.2121C59.7971 19.1428 59.9703 18.9431 60.3564 18.7758C60.879 18.5644 61.4541 18.5201 62.0028 18.649C62.5457 18.7703 63.0361 19.0609 63.4031 19.4789C63.6736 19.7972 63.7311 20.0515 63.6589 20.0942Z" fill="#371C0F"/>
<path d="M65.698 28.6971C66.2871 28.6493 66.8798 28.6755 67.4624 28.7752C67.7358 28.8076 68.0003 28.8121 68.0858 28.6403C68.171 28.3698 68.171 28.0796 68.0858 27.809C67.9812 27.1064 67.8714 26.3694 67.7564 25.5981C67.3142 22.4578 67.0607 19.9019 67.1874 19.8842C67.3142 19.8665 67.7734 22.3995 68.2148 25.5384C68.3165 26.3107 68.4148 27.0477 68.5096 27.7493C68.6042 28.1089 68.5695 28.4902 68.4116 28.8268C68.3514 28.9121 68.2726 28.9826 68.1812 29.033C68.0898 29.0834 67.9882 29.1125 67.8839 29.1179C67.7274 29.1247 67.5706 29.1115 67.4174 29.0788C66.8304 29.0253 66.2526 28.897 65.698 28.6971Z" fill="#371C0F"/>
<path d="M61.9033 28.9396C62.089 28.9698 61.8141 30.1969 62.6668 31.3031C63.5195 32.4093 64.852 32.5693 64.8225 32.7425C64.8225 32.8228 64.4783 32.9149 63.9234 32.8051C63.2038 32.6525 62.5611 32.2512 62.1082 31.6716C61.6729 31.1156 61.4717 30.4118 61.5473 29.7098C61.6152 29.1865 61.8215 28.9138 61.9033 28.9396Z" fill="#371C0F"/>
<path d="M73.9973 20.3919C73.7585 20.5872 73.0952 20.1789 72.2329 19.9711C71.3773 19.7338 70.599 19.7692 70.4862 19.4832C70.4391 19.3462 70.6086 19.1346 70.9793 18.9821C71.4703 18.8105 72.0011 18.7884 72.5046 18.9187C73.0081 19.049 73.4617 19.3257 73.8078 19.7139C74.0591 20.0279 74.1071 20.2947 73.9973 20.3919Z" fill="#371C0F"/>
<path d="M63.126 16.5441C62.9786 16.6444 62.7236 16.5331 62.389 16.3857C61.9849 16.1969 61.5658 16.0421 61.1361 15.9228C60.7032 15.817 60.2621 15.7477 59.8176 15.7158C59.4565 15.6819 59.1786 15.6546 59.0998 15.4947C59.0261 15.3473 59.1941 15.0724 59.6253 14.8557C60.2009 14.6071 60.8432 14.558 61.4499 14.7162C62.0567 14.8745 62.5932 15.2309 62.9741 15.729C63.2527 16.1299 63.2645 16.4527 63.126 16.5441Z" fill="#371C0F"/>
<path d="M77.2834 15.1151C73.8073 15.2655 70.3738 14.3039 67.4815 12.3698C64.2623 10.2385 60.3688 8.9141 59.4034 9.49559C58.4379 10.0771 57.8196 13.5866 54.2968 14.2027C54.2968 14.2027 53.7072 20.9712 51.0481 20.4015C48.3891 19.8318 51.3473 9.59876 51.3473 9.59876L58.3141 7.19324L65.6537 6.71567L72.3751 7.53814L78.3881 10.223L77.2834 15.1151Z" fill="#371C0F"/>
</svg>
