<svg width="233" height="233" viewBox="0 0 233 233" fill="none" xmlns="http://www.w3.org/2000/svg">
<path d="M116.24 0C52.1456 0 0 52.1512 0 116.254C0 180.356 52.1452 232.507 116.24 232.507C180.335 232.507 232.494 180.356 232.494 116.254C232.494 52.1512 180.343 0 116.24 0ZM116.24 199.215C70.4953 199.215 33.2794 161.999 33.2794 116.254C33.2794 70.5089 70.4953 33.2925 116.24 33.2925C161.985 33.2925 199.201 70.5089 199.201 116.254C199.201 161.999 161.985 199.215 116.24 199.215ZM177.146 50.707C161.904 36.5348 141.733 27.6014 119.521 26.7966V6.61547C147.292 7.43578 172.502 18.6281 191.408 36.4444L177.146 50.7066L177.146 50.707ZM112.958 26.7966C90.7467 27.6014 70.5755 36.5344 55.3336 50.707L41.0756 36.4495C59.9794 18.6305 85.1883 7.43625 112.958 6.61594V26.797L112.958 26.7966ZM50.693 55.3477C36.5203 70.5895 27.5873 90.7608 26.7825 112.973H6.61594C7.43625 85.2042 18.6253 59.9958 36.4369 41.0906L50.6939 55.3477H50.693ZM26.7825 119.535C27.5873 141.747 36.5203 161.919 50.693 177.16L36.4359 191.417C18.6248 172.512 7.43578 147.304 6.61547 119.535H26.7825ZM55.3336 181.801C70.575 195.974 90.7462 204.907 112.958 205.711V225.892C85.1883 225.072 59.9798 213.878 41.0761 196.058L55.3336 181.801ZM119.521 205.711C141.733 204.907 161.904 195.973 177.146 181.801L191.408 196.063C172.503 213.879 147.293 225.072 119.521 225.892V205.711ZM181.787 177.16C195.959 161.918 204.892 141.747 205.697 119.535H225.878C225.058 147.307 213.866 172.517 196.049 191.422L181.787 177.16ZM205.697 112.973C204.892 90.7613 195.96 70.5895 181.787 55.3477L196.049 41.0855C213.866 59.9911 225.058 85.2014 225.878 112.973H205.697ZM123.136 66.0413C121.49 63.7819 119.04 62.5378 116.24 62.5378C113.46 62.5378 111.014 63.7777 109.349 66.0333L76.1592 111.191C73.9369 114.219 73.9364 118.288 76.1602 121.318L109.353 166.479C111.014 168.73 113.46 169.97 116.24 169.97C119.042 169.97 121.492 168.724 123.131 166.474L156.322 121.315C157.404 119.849 157.988 118.075 157.987 116.252C157.987 114.43 157.403 112.655 156.32 111.189L123.136 66.0408V66.0413ZM151.032 117.432L117.834 162.6C117.434 163.151 116.926 163.408 116.24 163.408C115.559 163.408 115.049 163.146 114.637 162.588L81.45 117.434C80.9156 116.706 80.9156 115.802 81.4486 115.077L114.634 69.9253C115.049 69.3628 115.56 69.1008 116.24 69.1008C116.927 69.1008 117.434 69.3572 117.834 69.9084L117.843 69.9202L151.031 115.075C151.565 115.802 151.565 116.707 151.033 117.432L151.032 117.432Z" fill="#428DFF"/>
<path d="M181.787 177.16L196.05 191.422C213.866 172.516 225.059 147.306 225.879 119.535H205.698C204.893 141.747 195.96 161.918 181.787 177.16ZM191.408 36.4449C172.503 18.6286 147.292 7.43579 119.521 6.61595V26.7966C141.734 27.6014 161.905 36.5344 177.147 50.707L191.409 36.4449H191.408ZM112.959 26.7966V6.61548C85.1892 7.43579 59.9803 18.63 41.0766 36.4491L55.3345 50.707C70.5764 36.5349 90.7467 27.6014 112.959 26.7966ZM205.698 112.973H225.879C225.059 85.2014 213.866 59.9906 196.05 41.085L181.787 55.3472C195.96 70.5891 204.893 90.7603 205.698 112.973ZM50.6935 55.3472L36.4364 41.0902C18.6249 59.9953 7.43579 85.2038 6.61548 112.973H26.7825C27.5874 90.7608 36.5203 70.5891 50.693 55.3472H50.6935Z" fill="#A4C3FD"/>
<path d="M199.201 116.254C199.201 70.5089 161.985 33.2925 116.24 33.2925C70.4952 33.2925 33.2793 70.5089 33.2793 116.254C33.2793 161.999 70.4957 199.215 116.24 199.215C161.984 199.215 199.201 161.999 199.201 116.254ZM156.321 121.315L123.131 166.474C121.492 168.724 119.042 169.97 116.24 169.97C113.459 169.97 111.014 168.73 109.353 166.479L76.1601 121.318C73.9363 118.288 73.9368 114.219 76.1591 111.191L109.349 66.0333C111.014 63.7776 113.46 62.5378 116.24 62.5378C119.04 62.5378 121.49 63.7819 123.136 66.0412L156.32 111.19C157.403 112.656 157.987 114.43 157.987 116.253C157.988 118.075 157.404 119.85 156.321 121.316V121.315Z" fill="#E8EDFC"/>
<path d="M119.521 205.711V225.892C147.293 225.071 172.503 213.879 191.409 196.063L177.147 181.801C161.905 195.973 141.734 204.906 119.521 205.711ZM117.843 69.9197L117.834 69.908C117.434 69.3567 116.926 69.1003 116.24 69.1003C115.56 69.1003 115.049 69.3624 114.634 69.9249L81.4486 115.076C80.9157 115.802 80.9157 116.706 81.45 117.433L114.638 162.588C115.049 163.145 115.559 163.407 116.24 163.407C116.927 163.407 117.434 163.151 117.834 162.6L151.032 117.431C151.565 116.706 151.565 115.801 151.031 115.074L117.843 69.9192L117.843 69.9197ZM26.783 119.535H6.61597C7.43628 147.304 18.6253 172.512 36.4364 191.417L50.6935 177.16C36.5213 161.918 27.5878 141.747 26.783 119.535ZM41.0766 196.058C59.9803 213.878 85.1888 225.072 112.959 225.892V205.711C90.7472 204.907 70.576 195.974 55.3341 181.801L41.0766 196.058Z" fill="#A4C3FD"/>
</svg>
