<svg width="20" height="20" viewBox="0 0 20 20" fill="none" xmlns="http://www.w3.org/2000/svg">
<g clip-path="url(#clip0_132_564)">
<path d="M19.5121 3.26758L19.5118 3.26731L19.5114 3.26692C19.2124 2.97589 18.8114 2.81348 18.3942 2.81446H1.60587C1.19303 2.81354 0.795878 2.97258 0.497786 3.25821L0.497239 3.25872L0.496926 3.25899L0.496731 3.25918L0.496379 3.25957C0.338818 3.40892 0.213496 3.58893 0.128131 3.78854C0.042766 3.98814 -0.000835367 4.20311 1.21214e-05 4.4202V15.5798C0.000281174 16.0056 0.169556 16.4139 0.470655 16.715C0.771753 17.0161 1.18005 17.1854 1.60587 17.1856H18.3941C18.8199 17.1854 19.2283 17.0161 19.5294 16.715C19.8305 16.4139 19.9998 16.0056 20 15.5798V4.4202C20.0007 4.20508 19.9579 3.99205 19.874 3.79395C19.7902 3.59585 19.667 3.41679 19.5121 3.26758ZM12.848 9.98918L19.1886 4.10715C19.2277 4.20687 19.2477 4.31308 19.2475 4.4202V15.5798C19.2476 15.6863 19.2277 15.7919 19.1889 15.8911L12.848 9.98918ZM18.3941 3.56664C18.4737 3.56671 18.5529 3.57787 18.6295 3.59981L10.0066 11.5991L5.45384 7.37579L1.38126 3.59711C1.45445 3.57706 1.52998 3.56681 1.60587 3.56664H18.3941ZM0.810793 15.8911C0.771994 15.7919 0.75212 15.6863 0.7522 15.5798V4.4202C0.751938 4.30973 0.773165 4.20026 0.8147 4.09789L4.94212 7.92731L7.15822 9.98305L0.810793 15.8911ZM1.60587 16.4333C1.52565 16.4332 1.44583 16.4219 1.36876 16.3996L7.7113 10.4961L9.75075 12.388C9.82033 12.4525 9.91172 12.4884 10.0066 12.4884C10.1015 12.4884 10.1929 12.4525 10.2625 12.388L12.2952 10.5022L18.6311 16.3997C18.5541 16.4219 18.4742 16.4332 18.394 16.4333H1.60587Z" fill="#6A7282"/>
</g>
<defs>
<clipPath id="clip0_132_564">
<rect width="20" height="20" fill="white"/>
</clipPath>
</defs>
</svg>
