<svg width="24" height="24" viewBox="0 0 24 24" fill="none" xmlns="http://www.w3.org/2000/svg">
<g clip-path="url(#clip0_132_640)">
<path d="M1.49996 1.63305C-0.386045 3.59205 -4.48897e-05 5.67305 -4.48897e-05 11.995C-4.48897e-05 17.245 -0.916045 22.508 3.87795 23.747C5.37495 24.132 18.639 24.132 20.134 23.745C22.13 23.23 23.754 21.611 23.976 18.788C24.007 18.394 24.007 5.60305 23.975 5.20105C23.739 2.19405 21.888 0.461046 19.449 0.110046C18.89 0.0290464 18.778 0.00504639 15.91 4.6391e-05C5.73695 0.00504639 3.50695 -0.447954 1.49996 1.63305Z" fill="url(#paint0_linear_132_640)"/>
<path d="M11.9981 3.13917C8.36706 3.13917 4.91906 2.81617 3.60206 6.19617C3.05806 7.59217 3.13706 9.40517 3.13706 12.0012C3.13706 14.2792 3.06406 16.4202 3.60206 17.8052C4.91606 21.1872 8.39206 20.8632 11.9961 20.8632C15.4731 20.8632 19.0581 21.2252 20.3911 17.8052C20.9361 16.3952 20.8561 14.6092 20.8561 12.0012C20.8561 8.53917 21.0471 6.30417 19.3681 4.62617C17.6681 2.92617 15.3691 3.13917 11.9941 3.13917H11.9981ZM11.2041 4.73617C18.7781 4.72417 19.7421 3.88217 19.2101 15.5792C19.0211 19.7162 15.8711 19.2622 11.9991 19.2622C4.93906 19.2622 4.73606 19.0602 4.73606 11.9972C4.73606 4.85217 5.29606 4.74017 11.2041 4.73417V4.73617ZM16.7281 6.20717C16.4461 6.20717 16.1758 6.31916 15.9764 6.51851C15.7771 6.71786 15.6651 6.98824 15.6651 7.27017C15.6651 7.55209 15.7771 7.82247 15.9764 8.02182C16.1758 8.22117 16.4461 8.33317 16.7281 8.33317C17.01 8.33317 17.2804 8.22117 17.4797 8.02182C17.6791 7.82247 17.7911 7.55209 17.7911 7.27017C17.7911 6.98824 17.6791 6.71786 17.4797 6.51851C17.2804 6.31916 17.01 6.20717 16.7281 6.20717ZM11.9981 7.45017C11.4005 7.45023 10.8088 7.568 10.2567 7.79675C9.70463 8.02549 9.20302 8.36073 8.78052 8.78333C7.92723 9.63681 7.44793 10.7943 7.44806 12.0012C7.44819 13.208 7.92774 14.3654 8.78122 15.2187C9.6347 16.072 10.7922 16.5513 11.9991 16.5512C13.2059 16.551 14.3633 16.0715 15.2166 15.218C16.0699 14.3645 16.5492 13.207 16.5491 12.0002C16.5489 10.7933 16.0694 9.63592 15.2159 8.78263C14.3624 7.92933 13.2049 7.45004 11.9981 7.45017ZM11.9981 9.04717C15.9031 9.04717 15.9081 14.9552 11.9981 14.9552C8.09406 14.9552 8.08806 9.04717 11.9981 9.04717Z" fill="white"/>
</g>
<defs>
<linearGradient id="paint0_linear_132_640" x1="1.54598" y1="22.4671" x2="23.8514" y2="3.16202" gradientUnits="userSpaceOnUse">
<stop stop-color="#FFDD55"/>
<stop offset="0.5" stop-color="#FF543E"/>
<stop offset="1" stop-color="#C837AB"/>
</linearGradient>
<clipPath id="clip0_132_640">
<rect width="24" height="24" fill="white"/>
</clipPath>
</defs>
</svg>
