<svg width="207" height="245" viewBox="0 0 207 245" fill="none" xmlns="http://www.w3.org/2000/svg">
<path d="M23.4734 161.984L75.4109 190.571L83.204 194.847L87.3353 197.108V187.433L23.4734 152.295V161.984ZM87.3353 179.434V169.738L23.4734 134.621V144.311L75.4109 172.897L83.204 177.173L87.3353 179.434ZM206.056 74.3057V56.3432L103.012 112.918L0 56.3432V74.0818L15.5538 82.6298L83.3304 119.844L91.1236 124.12L95.2513 126.384V222.647L91.1236 220.382L75.5698 211.834L15.5538 178.878V100.354L0 91.806V188.087L15.5538 196.616L75.5698 229.577L91.1236 238.121L95.2513 240.385L103.012 244.661L110.805 240.385L119.931 235.373L135.485 226.839L206.06 188.087V92.0299L200.033 95.3415L190.521 100.563V178.878L135.485 209.101L119.931 217.634L110.805 222.65V126.384L148.464 105.709V159.731L161.908 144.336L175.35 147.763V90.9393L190.517 82.6334V82.8573L206.056 74.3057Z" fill="#40879A"/>
<path d="M204.435 56.3827L102.915 1L1.64697 56.3827L16.3703 64.5407L102.915 16.9728L189.651 64.4829L204.435 56.3827Z" fill="#40879A" stroke="#40879A"/>
<path d="M8.59131 64.537L102.062 13.4625L197.92 64.537L102.062 116.572L8.59131 64.537Z" fill="#40879A" stroke="#40879A"/>
</svg>
