<svg width="20" height="25" viewBox="0 0 20 25" fill="none" xmlns="http://www.w3.org/2000/svg">
<path d="M18.4193 17.5849C18.2942 17.5849 18.1742 17.5352 18.0857 17.4467C17.9972 17.3582 17.9475 17.2382 17.9475 17.1131V11.1909C17.947 10.7658 17.778 10.3582 17.4773 10.0576C17.1767 9.75695 16.7691 9.58786 16.344 9.58739H3.65624C3.2311 9.58786 2.82351 9.75695 2.5229 10.0576C2.22228 10.3582 2.05319 10.7658 2.05272 11.1909V17.1131C2.05272 17.2382 2.00301 17.3582 1.91454 17.4467C1.82606 17.5352 1.70605 17.5849 1.58093 17.5849C1.4558 17.5849 1.3358 17.5352 1.24732 17.4467C1.15884 17.3582 1.10913 17.2382 1.10913 17.1131V11.1909C1.10991 10.5156 1.37852 9.8682 1.85602 9.39069C2.33353 8.91318 2.98094 8.64458 3.65624 8.6438H16.344C17.0193 8.64458 17.6667 8.91318 18.1442 9.39069C18.6217 9.8682 18.8903 10.5156 18.8911 11.1909V17.1131C18.8911 17.2382 18.8414 17.3582 18.7529 17.4467C18.6644 17.5352 18.5444 17.5849 18.4193 17.5849Z" fill="#6A7282"/>
<path d="M16.5572 9.58688C16.4321 9.58688 16.3121 9.53718 16.2236 9.4487C16.1351 9.36022 16.0854 9.24022 16.0854 9.11509V7.02916C16.0854 3.67352 13.3555 0.943296 9.99987 0.943296C9.20066 0.943257 8.40928 1.10065 7.67091 1.40648C6.93253 1.71232 6.26164 2.1606 5.69653 2.72574C5.13142 3.29087 4.68316 3.96179 4.37737 4.70018C4.07157 5.43857 3.91422 6.22996 3.91429 7.02916V9.11509C3.91429 9.24022 3.86459 9.36022 3.77611 9.4487C3.68763 9.53718 3.56763 9.58688 3.4425 9.58688C3.31737 9.58688 3.19737 9.53718 3.10889 9.4487C3.02041 9.36022 2.9707 9.24022 2.9707 9.11509V7.02916C2.9707 5.16491 3.71127 3.37702 5.0295 2.05879C6.34772 0.74057 8.13562 0 9.99987 0C11.8641 0 13.652 0.74057 14.9702 2.05879C16.2885 3.37702 17.029 5.16491 17.029 7.02916V9.11509C17.029 9.24022 16.9793 9.36022 16.8908 9.4487C16.8024 9.53718 16.6824 9.58688 16.5572 9.58688Z" fill="#6A7282"/>
<path d="M18.4193 17.5849C18.2942 17.5849 18.1742 17.5352 18.0857 17.4467C17.9972 17.3582 17.9475 17.2382 17.9475 17.1131V11.1909C17.947 10.7658 17.778 10.3582 17.4773 10.0576C17.1767 9.75695 16.7691 9.58786 16.344 9.58739H3.65624C3.2311 9.58786 2.82351 9.75695 2.5229 10.0576C2.22228 10.3582 2.05319 10.7658 2.05272 11.1909V17.1131C2.05272 17.2382 2.00301 17.3582 1.91454 17.4467C1.82606 17.5352 1.70605 17.5849 1.58093 17.5849C1.4558 17.5849 1.3358 17.5352 1.24732 17.4467C1.15884 17.3582 1.10913 17.2382 1.10913 17.1131V11.1909C1.10991 10.5156 1.37852 9.8682 1.85602 9.39069C2.33353 8.91318 2.98094 8.64458 3.65624 8.6438H16.344C17.0193 8.64458 17.6667 8.91318 18.1442 9.39069C18.6217 9.8682 18.8903 10.5156 18.8911 11.1909V17.1131C18.8911 17.2382 18.8414 17.3582 18.7529 17.4467C18.6644 17.5352 18.5444 17.5849 18.4193 17.5849Z" fill="#6A7282"/>
<path d="M11.5936 17.5844C11.4685 17.5844 11.3485 17.5347 11.26 17.4462C11.1715 17.3578 11.1218 17.2378 11.1218 17.1126V15.9314C11.1218 15.8485 11.1436 15.7672 11.185 15.6954C11.2264 15.6237 11.286 15.5641 11.3577 15.5227C11.8979 15.2113 12.2075 14.7492 12.2075 14.2547C12.2075 13.8466 11.9935 13.4553 11.6048 13.1528C11.1811 12.8231 10.6111 12.6415 9.99954 12.6415C9.38798 12.6415 8.81799 12.8231 8.39426 13.1528C8.00562 13.4553 7.79154 13.8466 7.79154 14.2547C7.79154 14.7486 8.10116 15.2107 8.64136 15.5227C8.7131 15.5641 8.77267 15.6237 8.81408 15.6954C8.85549 15.7672 8.87728 15.8485 8.87726 15.9314V17.1126C8.87726 17.2378 8.82755 17.3578 8.73908 17.4462C8.6506 17.5347 8.53059 17.5844 8.40547 17.5844C8.28034 17.5844 8.16034 17.5347 8.07186 17.4462C7.98338 17.3578 7.93367 17.2378 7.93367 17.1126V16.1894C7.24868 15.7079 6.84766 15.0014 6.84766 14.2553C6.84766 13.5497 7.19089 12.8939 7.81454 12.4085C8.40429 11.9509 9.17892 11.6985 9.99925 11.6985C10.8196 11.6985 11.5954 11.9509 12.184 12.4085C12.8076 12.8939 13.1508 13.5497 13.1508 14.2553C13.1508 15.0014 12.7498 15.7079 12.0648 16.1894V17.1126C12.0648 17.2377 12.0152 17.3576 11.9269 17.446C11.8385 17.5345 11.7186 17.5843 11.5936 17.5844Z" fill="#6A7282"/>
<path d="M19.5282 24.5333H0.471795C0.346668 24.5333 0.226665 24.4836 0.138186 24.3951C0.049707 24.3067 0 24.1866 0 24.0615V17.1132C0 16.988 0.049707 16.868 0.138186 16.7795C0.226665 16.6911 0.346668 16.6414 0.471795 16.6414H19.5282C19.6533 16.6414 19.7733 16.6911 19.8618 16.7795C19.9503 16.868 20 16.988 20 17.1132V24.0615C20 24.1866 19.9503 24.3067 19.8618 24.3951C19.7733 24.4836 19.6533 24.5333 19.5282 24.5333ZM0.943591 23.5897H19.0564V17.5849H0.943591V23.5897Z" fill="#6A7282"/>
<path d="M15.7482 23.1424C15.623 23.1424 15.503 23.0927 15.4146 23.0042C15.3261 22.9157 15.2764 22.7957 15.2764 22.6706V18.504C15.2764 18.3789 15.3261 18.2589 15.4146 18.1704C15.503 18.0819 15.623 18.0322 15.7482 18.0322C15.8733 18.0322 15.9933 18.0819 16.0818 18.1704C16.1703 18.2589 16.22 18.3789 16.22 18.504V22.6706C16.22 22.7957 16.1703 22.9157 16.0818 23.0042C15.9933 23.0927 15.8733 23.1424 15.7482 23.1424Z" fill="#6A7282"/>
<path d="M17.8314 21.0591H13.6652C13.54 21.0591 13.42 21.0094 13.3315 20.9209C13.2431 20.8324 13.1934 20.7124 13.1934 20.5873C13.1934 20.4621 13.2431 20.3421 13.3315 20.2537C13.42 20.1652 13.54 20.1155 13.6652 20.1155H17.8314C17.9565 20.1155 18.0765 20.1652 18.165 20.2537C18.2535 20.3421 18.3032 20.4621 18.3032 20.5873C18.3032 20.7124 18.2535 20.8324 18.165 20.9209C18.0765 21.0094 17.9565 21.0591 17.8314 21.0591Z" fill="#6A7282"/>
<path d="M17.2211 22.5318C17.096 22.5319 16.9761 22.4822 16.8876 22.3938L13.9415 19.4478C13.8966 19.4042 13.8609 19.3522 13.8363 19.2947C13.8117 19.2372 13.7988 19.1753 13.7984 19.1128C13.7979 19.0503 13.8098 18.9883 13.8336 18.9304C13.8573 18.8725 13.8922 18.8199 13.9365 18.7757C13.9807 18.7315 14.0332 18.6965 14.0911 18.6727C14.1489 18.649 14.2109 18.637 14.2735 18.6375C14.336 18.6379 14.3978 18.6508 14.4554 18.6753C14.5129 18.6999 14.5649 18.7356 14.6085 18.7805L17.5549 21.7265C17.6208 21.7925 17.6657 21.8766 17.6839 21.9681C17.7021 22.0596 17.6927 22.1545 17.657 22.2407C17.6213 22.3269 17.5608 22.4006 17.4832 22.4524C17.4056 22.5042 17.3144 22.5319 17.2211 22.5318Z" fill="#6A7282"/>
<path d="M14.2758 22.532C14.1825 22.5319 14.0913 22.5042 14.0138 22.4524C13.9362 22.4005 13.8758 22.3269 13.8401 22.2407C13.8044 22.1545 13.7951 22.0597 13.8132 21.9682C13.8314 21.8767 13.8763 21.7927 13.9423 21.7267L16.8883 18.7806C16.9768 18.6921 17.0968 18.6424 17.222 18.6424C17.3471 18.6424 17.4671 18.6921 17.5556 18.7806C17.6441 18.8691 17.6938 18.9891 17.6938 19.1143C17.6938 19.2394 17.6441 19.3594 17.5556 19.4479L14.6093 22.394C14.5208 22.4824 14.4008 22.532 14.2758 22.532ZM10.0001 23.1424C9.87499 23.1424 9.75498 23.0927 9.66651 23.0042C9.57803 22.9157 9.52832 22.7957 9.52832 22.6706V18.504C9.52832 18.3789 9.57803 18.2589 9.66651 18.1704C9.75498 18.0819 9.87499 18.0322 10.0001 18.0322C10.1252 18.0322 10.2452 18.0819 10.3337 18.1704C10.4222 18.2589 10.4719 18.3789 10.4719 18.504V22.6706C10.4719 22.7957 10.4222 22.9157 10.3337 23.0042C10.2452 23.0927 10.1252 23.1424 10.0001 23.1424Z" fill="#6A7282"/>
<path d="M12.0832 21.0591H7.91662C7.79149 21.0591 7.67149 21.0094 7.58301 20.9209C7.49453 20.8324 7.44482 20.7124 7.44482 20.5873C7.44482 20.4621 7.49453 20.3421 7.58301 20.2537C7.67149 20.1652 7.79149 20.1155 7.91662 20.1155H12.0832C12.2083 20.1155 12.3283 20.1652 12.4168 20.2537C12.5053 20.3421 12.555 20.4621 12.555 20.5873C12.555 20.7124 12.5053 20.8324 12.4168 20.9209C12.3283 21.0094 12.2083 21.0591 12.0832 21.0591Z" fill="#6A7282"/>
<path d="M11.4745 22.5314C11.4125 22.5315 11.3511 22.5193 11.2938 22.4956C11.2366 22.4719 11.1845 22.4372 11.1407 22.3934L8.1946 19.4473C8.15078 19.4035 8.11603 19.3515 8.09231 19.2943C8.0686 19.237 8.0564 19.1757 8.0564 19.1137C8.0564 19.0517 8.0686 18.9904 8.09231 18.9331C8.11603 18.8759 8.15078 18.8239 8.1946 18.78C8.23841 18.7362 8.29043 18.7015 8.34768 18.6778C8.40492 18.6541 8.46628 18.6418 8.52825 18.6418C8.59021 18.6418 8.65157 18.6541 8.70882 18.6778C8.76606 18.7015 8.81808 18.7362 8.86189 18.78L11.808 21.7261C11.8739 21.7921 11.9188 21.8761 11.937 21.9676C11.9552 22.0591 11.9458 22.154 11.9101 22.2401C11.8744 22.3263 11.814 22.4 11.7365 22.4518C11.6589 22.5037 11.5677 22.5314 11.4745 22.5314Z" fill="#6A7282"/>
<path d="M8.52546 22.532C8.43218 22.5319 8.341 22.5042 8.26346 22.4524C8.18591 22.4005 8.12547 22.3269 8.08978 22.2407C8.05409 22.1545 8.04475 22.0597 8.06293 21.9682C8.08112 21.8767 8.12602 21.7927 8.19196 21.7267L11.138 18.7806C11.2265 18.6921 11.3465 18.6424 11.4717 18.6424C11.5968 18.6424 11.7168 18.6921 11.8053 18.7806C11.8938 18.8691 11.9435 18.9891 11.9435 19.1143C11.9435 19.2394 11.8938 19.3594 11.8053 19.4479L8.85925 22.394C8.81541 22.4378 8.76336 22.4725 8.70608 22.4962C8.64881 22.5199 8.58743 22.532 8.52546 22.532ZM4.25158 23.1424C4.12645 23.1424 4.00645 23.0927 3.91797 23.0042C3.82949 22.9157 3.77979 22.7957 3.77979 22.6706V18.504C3.77979 18.3789 3.82949 18.2589 3.91797 18.1704C4.00645 18.0819 4.12645 18.0322 4.25158 18.0322C4.37671 18.0322 4.49671 18.0819 4.58519 18.1704C4.67367 18.2589 4.72338 18.3789 4.72338 18.504V22.6706C4.72338 22.7957 4.67367 22.9157 4.58519 23.0042C4.49671 23.0927 4.37671 23.1424 4.25158 23.1424Z" fill="#6A7282"/>
<path d="M6.33482 21.0591H2.16857C2.04344 21.0591 1.92344 21.0094 1.83496 20.9209C1.74648 20.8324 1.69678 20.7124 1.69678 20.5873C1.69678 20.4621 1.74648 20.3421 1.83496 20.2537C1.92344 20.1652 2.04344 20.1155 2.16857 20.1155H6.33482C6.45995 20.1155 6.57995 20.1652 6.66843 20.2537C6.75691 20.3421 6.80662 20.4621 6.80662 20.5873C6.80662 20.7124 6.75691 20.8324 6.66843 20.9209C6.57995 21.0094 6.45995 21.0591 6.33482 21.0591Z" fill="#6A7282"/>
<path d="M5.72422 22.5314C5.66228 22.5315 5.60093 22.5194 5.54369 22.4957C5.48646 22.472 5.43447 22.4373 5.39072 22.3934L2.44435 19.4473C2.40054 19.4035 2.36578 19.3515 2.34207 19.2943C2.31836 19.237 2.30615 19.1757 2.30615 19.1137C2.30615 19.0517 2.31836 18.9904 2.34207 18.9331C2.36578 18.8759 2.40054 18.8239 2.44435 18.78C2.48817 18.7362 2.54019 18.7015 2.59743 18.6778C2.65468 18.6541 2.71604 18.6418 2.778 18.6418C2.83997 18.6418 2.90132 18.6541 2.95857 18.6778C3.01582 18.7015 3.06783 18.7362 3.11165 18.78L6.05772 21.7261C6.12366 21.7921 6.16855 21.8761 6.18674 21.9676C6.20493 22.0591 6.19558 22.154 6.15989 22.2401C6.1242 22.3263 6.06376 22.4 5.98622 22.4518C5.90867 22.5037 5.8175 22.5314 5.72422 22.5314Z" fill="#6A7282"/>
<path d="M2.77876 22.5318C2.68545 22.5319 2.59424 22.5042 2.51664 22.4524C2.43905 22.4006 2.37857 22.3269 2.34284 22.2407C2.30711 22.1545 2.29775 22.0596 2.31592 21.9681C2.3341 21.8766 2.37901 21.7925 2.44496 21.7265L5.39132 18.7805C5.4349 18.7356 5.48697 18.6999 5.54448 18.6753C5.602 18.6508 5.66382 18.6379 5.72636 18.6375C5.78889 18.637 5.85089 18.649 5.90875 18.6727C5.96661 18.6965 6.01917 18.7315 6.06338 18.7757C6.1076 18.8199 6.14257 18.8725 6.16628 18.9304C6.18999 18.9883 6.20195 19.0503 6.20148 19.1128C6.20101 19.1753 6.18811 19.2372 6.16354 19.2947C6.13896 19.3522 6.1032 19.4042 6.05832 19.4478L3.11226 22.3938C3.02378 22.4822 2.90382 22.5319 2.77876 22.5318Z" fill="#6A7282"/>
</svg>
