<svg width="454" height="392" viewBox="0 0 454 392" fill="none" xmlns="http://www.w3.org/2000/svg">
<path d="M94.6538 392.052H0C0 392.052 43.2768 366.391 82.7655 357.326C122.254 348.261 129.161 351.872 153.182 335.035C177.203 318.198 157.429 314.303 188.604 284.883C219.778 255.463 232.091 259.037 275.603 234.571C319.115 210.105 305.765 215.163 316.632 210.129C327.5 205.095 329.094 208.751 341.01 205.237C352.925 201.722 326.506 188.835 362.309 159.031C398.111 129.227 370.063 105.882 395.755 62.7531C421.447 19.6243 454 0.0524902 454 0.0524902V116.329L431.242 146.784L378.84 234.571L302.975 284.882L240.612 290.383L188.603 370.96L94.6538 392.052Z" fill="#FAF8EC"/>
</svg>
