<svg width="25" height="24" viewBox="0 0 25 24" fill="none" xmlns="http://www.w3.org/2000/svg">
<path d="M12.5 0.5H12.502C12.7786 0.498875 13.0506 0.566318 13.2939 0.695312L13.3965 0.753906C13.6312 0.900445 13.8258 1.10287 13.9629 1.3418L14.0176 1.44629L14.0215 1.45312L16.75 6.87891L16.8672 7.11133L17.125 7.14941L23.0371 8.00195V8.00293C23.6862 8.10033 24.2152 8.54361 24.416 9.15039V9.15137C24.6042 9.73087 24.4699 10.3541 24.0635 10.8115L23.9795 10.9004L23.9775 10.9014L19.667 15.1709L19.4814 15.3545L19.5254 15.6104L20.5361 21.5049V21.5078C20.7182 22.5351 19.9189 23.4824 18.8623 23.4824C18.6642 23.4824 18.4597 23.446 18.2637 23.373L18.0713 23.2881L12.6768 20.5068L12.4453 20.3877L12.2148 20.5088L6.92578 23.2891L6.9248 23.29C6.34667 23.5952 5.66521 23.5408 5.13965 23.1611H5.14062C4.63933 22.7966 4.38481 22.2176 4.44727 21.626L4.46387 21.5078V21.5049L5.47461 15.6104L5.49414 15.4951L5.46094 15.3828L5.42969 15.2783L5.3916 15.1543L5.29883 15.0635L1.01953 10.8984H1.01855C0.548614 10.4351 0.383661 9.76836 0.583984 9.15137L0.583008 9.15039C0.783798 8.54346 1.31373 8.10034 1.96289 8.00293L1.96191 8.00195L7.875 7.14941L8.00098 7.13086L8.10352 7.05371L8.18652 6.99121L8.28223 6.91992L8.33496 6.8125L10.9805 1.4502C11.2536 0.896271 11.7775 0.545471 12.3789 0.503906L12.5 0.5Z" fill="white" stroke="black"/>
</svg>
