<svg width="28" height="28" viewBox="0 0 28 28" fill="none" xmlns="http://www.w3.org/2000/svg">
<path d="M23.0165 9.4307C23.3078 9.80452 23.5024 10.2445 23.583 10.7115C23.6636 11.1786 23.6277 11.6583 23.4784 12.1081L23.4834 12.1131C23.9332 12.6378 24.1802 13.3063 24.1798 13.9974C24.1793 14.6886 23.9314 15.3567 23.4809 15.8809L23.4785 15.8834C23.6461 16.3924 23.6692 16.938 23.5451 17.4594C23.421 17.9808 23.1546 18.4576 22.7756 18.8365C22.5669 19.0451 22.3161 19.2264 22.0379 19.3705L22.0379 19.3754C21.9843 20.0638 21.6866 20.7103 21.1984 21.1985C20.7102 21.6867 20.0637 21.9844 19.3754 22.038L19.3704 22.038C19.2263 22.3162 19.045 22.567 18.8339 22.7781C18.0789 23.5332 16.9438 23.8287 15.8833 23.4785C15.3591 23.9314 14.6884 24.1786 13.9957 24.174C13.303 24.1786 12.6322 23.9314 12.1081 23.4785C11.6581 23.6271 11.1785 23.6626 10.7116 23.5821C10.2447 23.5015 9.80476 23.3073 9.43062 23.0166L4.97486 18.5608C4.68351 18.187 4.48891 17.747 4.40833 17.28C4.32774 16.8129 4.36366 16.3332 4.51289 15.8834L4.50792 15.8784C4.05813 15.3536 3.8111 14.6852 3.81156 13.994C3.81201 13.3029 4.05992 12.6348 4.5104 12.1106L4.51289 12.1081C4.3452 11.5991 4.32212 11.0535 4.44622 10.5321C4.57032 10.0106 4.83673 9.53394 5.21577 9.15501C5.42441 8.94637 5.67526 8.76506 5.95343 8.62101L5.95343 8.61604C6.00702 7.92772 6.30474 7.28119 6.79293 6.79301C7.28112 6.30482 7.92765 6.0071 8.61597 5.95351L8.62093 5.95351C8.76499 5.67534 8.9463 5.42448 9.15741 5.21337C9.91246 4.45832 11.0475 4.16276 12.1081 4.51296L12.113 4.508C13.1959 3.57909 14.7954 3.57909 15.8808 4.51048L15.8833 4.51296C16.3332 4.36442 16.8128 4.32886 17.2797 4.40942C17.7466 4.48998 18.1866 4.6842 18.5607 4.97493L23.0165 9.4307Z" fill="#FF8271"/>
<path d="M19.4598 19.4607C22.4776 16.443 22.4776 11.5502 19.4598 8.53243C16.4421 5.51467 11.5493 5.51467 8.53153 8.53243C5.51377 11.5502 5.51377 16.443 8.53153 19.4607C11.5493 22.4785 16.4421 22.4785 19.4598 19.4607Z" fill="#FF9B80"/>
<path d="M19.3803 3.5924L3.58077 19.3919C3.25759 19.7151 3.24573 20.2272 3.55428 20.5357L7.46502 24.4465C7.77357 24.755 8.28569 24.7432 8.60887 24.42L24.4084 8.62049C24.7315 8.29732 24.7434 7.7852 24.4348 7.47665L20.5241 3.56591C20.2156 3.25736 19.7034 3.26922 19.3803 3.5924Z" fill="#DD4752"/>
<path d="M5.93534 18.9773L5.35572 19.5569C5.27886 19.6337 5.23568 19.738 5.23568 19.8467C5.23568 19.9554 5.27886 20.0596 5.35572 20.1365L7.67418 22.4549C7.75104 22.5318 7.85529 22.575 7.96399 22.575C8.07269 22.575 8.17693 22.5318 8.25379 22.4549C8.33066 22.3781 8.37384 22.2738 8.37384 22.1651C8.37384 22.0564 8.33066 21.9522 8.25379 21.8753L7.38437 21.0059L7.67418 20.7161C7.75104 20.6392 7.85529 20.5961 7.96399 20.5961C8.07269 20.5961 8.17693 20.6392 8.25379 20.7161L8.83341 21.2957C8.91027 21.3726 9.01452 21.4158 9.12322 21.4158C9.23191 21.4158 9.33616 21.3726 9.41302 21.2957C9.48988 21.2189 9.53306 21.1146 9.53306 21.0059C9.53306 20.8972 9.48988 20.793 9.41302 20.7161L8.83341 20.1365C8.6181 19.9226 8.3309 19.7966 8.02774 19.7829C8.01267 19.4896 7.89762 19.2007 7.67418 18.9773C7.19484 18.4979 6.41468 18.4979 5.93534 18.9773ZM6.80476 20.4263L6.22515 19.8467L6.51495 19.5569C6.59181 19.48 6.69606 19.4368 6.80476 19.4368C6.91346 19.4368 7.0177 19.48 7.09457 19.5569C7.17143 19.6337 7.21461 19.738 7.21461 19.8467C7.21461 19.9554 7.17143 20.0596 7.09457 20.1365L6.80476 20.4263ZM8.83341 17.2384C8.91027 17.1616 8.95345 17.0573 8.95345 16.9486C8.95345 16.8399 8.91027 16.7357 8.83341 16.6588C8.75655 16.5819 8.6523 16.5388 8.5436 16.5388C8.4349 16.5388 8.33066 16.5819 8.25379 16.6588L7.38437 17.5282C7.30751 17.6051 7.26433 17.7093 7.26433 17.818C7.26433 17.9267 7.30751 18.031 7.38437 18.1078L9.70283 20.4263C9.77969 20.5032 9.88394 20.5463 9.99264 20.5463C10.1013 20.5463 10.2056 20.5032 10.2824 20.4263L11.1519 19.5569C11.2287 19.48 11.2719 19.3758 11.2719 19.2671C11.2719 19.1584 11.2287 19.0541 11.1519 18.9773C11.075 18.9004 10.9708 18.8572 10.8621 18.8572C10.7534 18.8572 10.6491 18.9004 10.5722 18.9773L9.99264 19.5569L9.41302 18.9773L9.70283 18.6875C9.77969 18.6106 9.82287 18.5063 9.82287 18.3976C9.82287 18.2889 9.77969 18.1847 9.70283 18.1078C9.62597 18.031 9.52172 17.9878 9.41302 17.9878C9.30432 17.9878 9.20008 18.031 9.12321 18.1078L8.83341 18.3976L8.25379 17.818L8.83341 17.2384ZM10.2824 14.6302L9.12321 15.7894C9.04635 15.8662 9.00317 15.9705 9.00317 16.0792C9.00317 16.1879 9.04635 16.2921 9.12321 16.369C9.20008 16.4459 9.30432 16.489 9.41302 16.489C9.52172 16.489 9.62597 16.4459 9.70283 16.369L9.99264 16.0792L11.4417 17.5282C11.6016 17.6882 11.6016 17.9479 11.4417 18.1078C11.3648 18.1847 11.3216 18.2889 11.3216 18.3976C11.3216 18.5063 11.3648 18.6106 11.4417 18.6875C11.5185 18.7643 11.6228 18.8075 11.7315 18.8075C11.8402 18.8075 11.9444 18.7643 12.0213 18.6875C12.5006 18.2081 12.5006 17.428 12.0213 16.9486L10.5722 15.4996L10.8621 15.2098C10.9389 15.1329 10.9821 15.0287 10.9821 14.92C10.9821 14.8113 10.9389 14.707 10.8621 14.6302C10.7852 14.5533 10.6809 14.5101 10.5722 14.5101C10.4636 14.5101 10.3593 14.5533 10.2824 14.6302ZM12.6009 13.4709C12.6778 13.3941 12.7209 13.2898 12.7209 13.1811C12.7209 13.0724 12.6778 12.9682 12.6009 12.8913C12.524 12.8145 12.4198 12.7713 12.3111 12.7713C12.2024 12.7713 12.0981 12.8145 12.0213 12.8913L11.1519 13.7607C11.075 13.8376 11.0318 13.9418 11.0318 14.0505C11.0318 14.1592 11.075 14.2635 11.1519 14.3403L13.4703 16.6588C13.5472 16.7357 13.6514 16.7788 13.7601 16.7788C13.8688 16.7788 13.9731 16.7357 14.0499 16.6588L14.9194 15.7894C14.9962 15.7125 15.0394 15.6083 15.0394 15.4996C15.0394 15.3909 14.9962 15.2866 14.9194 15.2098C14.8425 15.1329 14.7382 15.0897 14.6295 15.0897C14.5208 15.0897 14.4166 15.1329 14.3397 15.2098L13.7601 15.7894L13.1805 15.2098L13.4703 14.92C13.5472 14.8431 13.5904 14.7389 13.5904 14.6302C13.5904 14.5215 13.5472 14.4172 13.4703 14.3403C13.3935 14.2635 13.2892 14.2203 13.1805 14.2203C13.0718 14.2203 12.9676 14.2635 12.8907 14.3403L12.6009 14.6302L12.0213 14.0505L12.6009 13.4709ZM14.0499 12.0219C14.2099 11.8619 14.4696 11.8619 14.6295 12.0219C14.7064 12.0988 14.8107 12.1419 14.9194 12.1419C15.0281 12.1419 15.1323 12.0988 15.2092 12.0219C15.286 11.945 15.3292 11.8408 15.3292 11.7321C15.3292 11.6234 15.286 11.5191 15.2092 11.4423C14.7298 10.9629 13.9497 10.9629 13.4703 11.4423C12.991 11.9216 12.991 12.7018 13.4703 13.1811L14.6295 14.3403C15.1089 14.8197 15.889 14.8197 16.3684 14.3403C16.8477 13.861 16.8477 13.0808 16.3684 12.6015C16.2915 12.5246 16.1873 12.4815 16.0786 12.4815C15.9699 12.4815 15.8656 12.5246 15.7888 12.6015C15.7119 12.6784 15.6687 12.7826 15.6687 12.8913C15.6687 13 15.7119 13.1043 15.7888 13.1811C15.8656 13.258 15.9088 13.3622 15.9088 13.4709C15.9088 13.5796 15.8656 13.6839 15.7888 13.7607C15.7119 13.8376 15.6077 13.8808 15.499 13.8808C15.3903 13.8808 15.286 13.8376 15.2092 13.7607L14.0499 12.6015C13.9731 12.5246 13.9299 12.4204 13.9299 12.3117C13.9299 12.203 13.9731 12.0988 14.0499 12.0219ZM16.0786 8.83402L14.9194 9.99325C14.8425 10.0701 14.7993 10.1744 14.7993 10.2831C14.7993 10.3918 14.8425 10.496 14.9194 10.5729C14.9962 10.6497 15.1005 10.6929 15.2092 10.6929C15.3179 10.6929 15.4221 10.6497 15.499 10.5729L15.7888 10.2831L17.8174 12.3117C17.8943 12.3886 17.9985 12.4317 18.1072 12.4317C18.2159 12.4317 18.3202 12.3886 18.397 12.3117C18.4739 12.2348 18.5171 12.1306 18.5171 12.0219C18.5171 11.9132 18.4739 11.8089 18.397 11.7321L16.3684 9.70344L16.6582 9.41363C16.7351 9.33677 16.7782 9.23252 16.7782 9.12382C16.7782 9.01513 16.7351 8.91088 16.6582 8.83402C16.5813 8.75716 16.4771 8.71397 16.3684 8.71397C16.2597 8.71397 16.1554 8.75716 16.0786 8.83402ZM19.2665 5.64614L18.6868 6.22575C18.61 6.30262 18.5668 6.40686 18.5668 6.51556C18.5668 6.62426 18.61 6.72851 18.6868 6.80537L21.0053 9.12382C21.0822 9.20069 21.1864 9.24387 21.2951 9.24387C21.4038 9.24387 21.5081 9.20069 21.5849 9.12382L22.1645 8.54421C22.6439 8.06487 22.6439 7.28471 22.1645 6.80537L21.0053 5.64614C20.526 5.1668 19.7458 5.1668 19.2665 5.64614ZM21.5849 7.38498C21.6618 7.46184 21.705 7.56609 21.705 7.67479C21.705 7.78349 21.6618 7.88773 21.5849 7.9646L21.2951 8.2544L19.5563 6.51556L19.8461 6.22576C19.9229 6.14889 20.0272 6.10571 20.1359 6.10571C20.2446 6.10571 20.3488 6.14889 20.4257 6.22576L21.5849 7.38498ZM18.397 7.67479C18.4739 7.59793 18.5171 7.49368 18.5171 7.38498C18.5171 7.27628 18.4739 7.17204 18.397 7.09518C18.3202 7.01831 18.2159 6.97513 18.1072 6.97513C17.9985 6.97513 17.8943 7.01831 17.8174 7.09518L16.948 7.9646C16.8711 8.04146 16.828 8.1457 16.828 8.2544C16.828 8.3631 16.8711 8.46735 16.948 8.54421L19.2665 10.8627C19.3433 10.9395 19.4476 10.9827 19.5563 10.9827C19.665 10.9827 19.7692 10.9395 19.8461 10.8627L20.7155 9.99325C20.7924 9.91638 20.8355 9.81214 20.8355 9.70344C20.8355 9.59474 20.7924 9.49049 20.7155 9.41363C20.6386 9.33677 20.5344 9.29359 20.4257 9.29359C20.317 9.29359 20.2127 9.33677 20.1359 9.41363L19.5563 9.99325L18.9766 9.41363L19.2665 9.12382C19.3433 9.04696 19.3865 8.94272 19.3865 8.83402C19.3865 8.72532 19.3433 8.62107 19.2665 8.54421C19.1896 8.46735 19.0853 8.42417 18.9767 8.42417C18.868 8.42417 18.7637 8.46735 18.6868 8.54421L18.397 8.83402L17.8174 8.2544L18.397 7.67479Z" fill="#962445"/>
</svg>
