<svg width="58" height="58" viewBox="0 0 58 58" fill="none" xmlns="http://www.w3.org/2000/svg">
<g clip-path="url(#clip0_132_546)">
<path d="M1.02189 21.9771L31.8884 35.3893C28.8661 38.8984 26.9754 43.2003 26.4391 47.8047H24.5819C23.6434 47.8047 22.8826 48.5655 22.8826 49.5039V56.3008C22.8826 57.2392 23.6434 58 24.5819 58H31.3787C32.3171 58 33.0779 57.2392 33.0779 56.3008V49.5039C33.0779 48.5655 32.3171 47.8047 31.3787 47.8047H29.8651C30.4694 43.3895 32.5381 39.3202 35.7989 36.1994C39.0932 33.0467 43.3051 31.1543 47.8045 30.7725V31.822C47.8045 32.7604 48.5653 33.5212 49.5037 33.5212H56.3005C57.239 33.5212 57.9998 32.7604 57.9998 31.822V25.0251C57.9998 24.0867 57.239 23.3259 56.3005 23.3259H49.5037C48.5653 23.3259 47.8045 24.0867 47.8045 25.0251V27.3622C43.2991 27.688 39.0295 29.3069 35.4521 32.0332L21.977 1.02202C21.8384 0.703423 21.6055 0.434944 21.3097 0.252758C21.0139 0.0705681 20.6693 -0.0165787 20.3225 0.00305939C19.9756 0.0226974 19.6431 0.148178 19.3697 0.362591C19.0963 0.577003 18.8952 0.870052 18.7935 1.20225L15.709 11.2877C15.3908 12.3306 14.8212 13.2792 14.0502 14.0503C13.2792 14.8213 12.3305 15.3909 11.2876 15.7091L1.20224 18.7937C0.869949 18.8953 0.576805 19.0963 0.362324 19.3697C0.147839 19.6431 0.0223236 19.9757 0.00270081 20.3226C-0.0169754 20.6695 0.070179 21.0141 0.252419 21.3099C0.434658 21.6058 0.703217 21.8386 1.02189 21.9771ZM29.6795 54.6016H26.2811V51.2031H29.6795V54.6016ZM51.2029 26.7244H54.6013V30.1228H51.2029V26.7244ZM12.2816 18.9591C13.8566 18.4785 15.2893 17.6182 16.4536 16.4538C17.618 15.2895 18.4782 13.8567 18.9587 12.2817L20.696 6.60168L31.5263 31.5266L6.60155 20.6961L12.2816 18.9591Z" fill="black"/>
</g>
<defs>
<clipPath id="clip0_132_546">
<rect width="58" height="58" fill="white" transform="matrix(-1 0 0 -1 58 58)"/>
</clipPath>
</defs>
</svg>
