<svg width="20" height="21" viewBox="0 0 20 21" fill="none" xmlns="http://www.w3.org/2000/svg">
<g clip-path="url(#clip0_132_558)">
<path fill-rule="evenodd" clip-rule="evenodd" d="M10.0001 1.36644C11.0603 1.36647 12.0877 1.74305 12.9072 2.43202C13.7267 3.12099 14.2877 4.07973 14.4945 5.14487C14.7013 6.21001 14.5411 7.31566 14.0414 8.27342C13.5416 9.23118 12.7331 9.98181 11.7536 10.3974C10.7741 10.813 9.68425 10.8678 8.66973 10.5525C7.6552 10.2373 6.77877 9.57144 6.18977 8.66846C5.60077 7.76547 5.33564 6.68122 5.43956 5.60045C5.54348 4.51967 6.01001 3.50924 6.75967 2.74132C7.6191 1.86099 8.78472 1.36643 10.0001 1.36644ZM15.9175 6.06069C15.9175 4.65847 15.4429 3.29963 14.5745 2.2157C13.7061 1.13176 12.4976 0.389802 11.1551 0.116232C9.81251 -0.157337 8.41888 0.0544141 7.21164 0.715405C6.0044 1.3764 5.05824 2.44573 4.53439 3.74121C4.01053 5.03668 3.94139 6.47814 4.33875 7.81998C4.7361 9.16182 5.57536 10.321 6.71353 11.1001C7.85171 11.8791 9.21836 12.2298 10.5806 12.0923C11.9429 11.9549 13.2165 11.3379 14.1845 10.3464C14.7339 9.78356 15.1698 9.11542 15.4671 8.38008C15.7645 7.64475 15.9175 6.85662 15.9175 6.06069Z" fill="#6A7282"/>
<path fill-rule="evenodd" clip-rule="evenodd" d="M10 12.1222C11.1381 12.1222 12.2651 12.3518 13.3166 12.7979C14.3681 13.2441 15.3235 13.898 16.1283 14.7224C16.9331 15.5468 17.5715 16.5254 18.007 17.6025C18.4425 18.6797 18.6667 19.8341 18.6667 20.9999H20C20 18.2832 18.9464 15.6777 17.0711 13.7566C15.1957 11.8356 12.6522 10.7563 10 10.7563C7.34784 10.7563 4.8043 11.8356 2.92893 13.7566C1.05357 15.6777 0 18.2832 0 20.9999H1.33337C1.33337 18.6454 2.24646 16.3873 3.87177 14.7224C5.49708 13.0575 7.70147 12.1222 10 12.1222Z" fill="#6A7282"/>
</g>
<defs>
<clipPath id="clip0_132_558">
<rect width="20" height="21" fill="white"/>
</clipPath>
</defs>
</svg>
