<svg width="17" height="16" viewBox="0 0 17 16" fill="none" xmlns="http://www.w3.org/2000/svg">
<path d="M8.19051 15.9205L8.18441 15.9178L8.16523 15.9071C8.05302 15.8442 7.94171 15.7796 7.83133 15.7134C6.5043 14.9093 5.26414 13.9648 4.13144 12.8955C2.12544 10.987 0 8.15494 0 4.66685C0 2.06412 2.1481 6.30694e-05 4.74082 6.30694e-05C5.46158 -0.00353651 6.17386 0.158592 6.82469 0.474391C7.47552 0.79019 8.04815 1.25153 8.5 1.82411C8.95194 1.25142 9.52471 0.790001 10.1757 0.474198C10.8267 0.158394 11.5391 -0.00367036 12.2601 6.30694e-05C14.8519 6.30694e-05 17 2.06412 17 4.66685C17 8.15583 14.8746 10.9879 12.8686 12.8946C11.7359 13.964 10.4957 14.9085 9.16867 15.7125C9.05829 15.779 8.94698 15.8439 8.83477 15.9071L8.81559 15.9178L8.80949 15.9214L8.80687 15.9222C8.71234 15.9733 8.60698 16 8.5 16C8.39302 16 8.28766 15.9733 8.19313 15.9222L8.19051 15.9205Z" fill="#40879A"/>
</svg>
