<svg width="150" height="150" viewBox="0 0 150 150" fill="none" xmlns="http://www.w3.org/2000/svg">
<g clip-path="url(#clip0_303_4817)">
<path d="M147.651 103.81H132.62V21.1376C132.62 20.4732 132.884 19.8361 133.354 19.3663C133.824 18.8965 134.461 18.6325 135.125 18.6324H145.146C145.81 18.6325 146.448 18.8965 146.917 19.3663C147.387 19.8361 147.651 20.4732 147.651 21.1376V103.81Z" fill="#FFDC64"/>
<path d="M105.063 18.6324H95.0417C94.3773 18.6325 93.7401 18.8965 93.2703 19.3663C92.8005 19.8361 92.5366 20.4732 92.5365 21.1376V101.305C92.5366 101.969 92.8005 102.606 93.2703 103.076C93.7401 103.546 94.3773 103.81 95.0417 103.81H107.568V21.1376C107.568 20.4732 107.304 19.8361 106.834 19.3663C106.364 18.8965 105.727 18.6325 105.063 18.6324Z" fill="#00AAF0"/>
<path d="M52.4531 103.81H37.4218V21.1376C37.4218 20.4732 37.6858 19.8361 38.1556 19.3663C38.6254 18.8965 39.2625 18.6325 39.9269 18.6324H49.9479C50.6123 18.6325 51.2495 18.8965 51.7193 19.3663C52.1891 19.8361 52.453 20.4732 52.4531 21.1376V103.81Z" fill="#FF5050"/>
<path d="M17.3801 103.81H2.34875V21.1376C2.34883 20.4732 2.61279 19.8361 3.08259 19.3663C3.55238 18.8965 4.18954 18.6325 4.85393 18.6324H14.8749C15.5393 18.6325 16.1765 18.8965 16.6463 19.3663C17.1161 19.8361 17.38 20.4732 17.3801 21.1376V103.81Z" fill="#959CB5"/>
<path d="M132.62 103.81H107.568V16.1274C107.568 15.463 107.832 14.8258 108.302 14.356C108.772 13.8862 109.409 13.6223 110.073 13.6222H130.115C130.779 13.6223 131.416 13.8862 131.886 14.356C132.356 14.8258 132.62 15.463 132.62 16.1274V103.81Z" fill="#785353"/>
<path d="M37.4218 103.81H17.3801V11.117C17.3802 10.4526 17.6442 9.81545 18.114 9.34565C18.5838 8.87586 19.2209 8.61189 19.8853 8.61182H34.9166C35.581 8.61189 36.2182 8.87586 36.688 9.34565C37.1578 9.81545 37.4217 10.4526 37.4218 11.117V103.81Z" fill="#FFDC64"/>
<path d="M90.0314 13.6222H69.9897C69.3253 13.6223 68.6881 13.8862 68.2183 14.356C67.7485 14.8258 67.4846 15.463 67.4845 16.1274V103.81H92.5365V16.1274C92.5365 15.463 92.2725 14.8258 91.8027 14.356C91.3329 13.8862 90.6958 13.6223 90.0314 13.6222Z" fill="#7DF5A5"/>
<path d="M92.5365 83.5915L85.3248 76.3798C84.6267 75.6817 83.7979 75.1279 82.8857 74.7502C81.9735 74.3725 80.9959 74.1782 80.0086 74.1785C78.3269 74.1785 76.6207 74.743 75.1761 75.929C73.3951 77.3912 72.4945 79.6795 72.4945 81.9837V103.81H92.5362V83.5915H92.5365Z" fill="#64DCA0"/>
<path d="M95.0417 103.81H107.568V98.6229L92.5365 83.5916V101.305C92.5366 101.969 92.8005 102.606 93.2703 103.076C93.7401 103.546 94.3773 103.81 95.0417 103.81Z" fill="#0096DC"/>
<path d="M80.0104 81.6943V123.332L89.1443 117.346L99.1032 141.388L108.72 137.405L98.7613 113.362L109.504 111.187L80.0104 81.6943Z" fill="#464655"/>
<path d="M52.4531 103.81H67.4845V11.117C67.4844 10.4526 67.2204 9.81545 66.7506 9.34565C66.2808 8.87586 65.6437 8.61189 64.9793 8.61182H54.9583C54.2939 8.61189 53.6568 8.87586 53.187 9.34565C52.7172 9.81545 52.4532 10.4526 52.4531 11.117V103.81Z" fill="#707487"/>
<path d="M64.9791 8.61182H54.9581C54.2937 8.61189 53.6565 8.87586 53.1867 9.34565C52.7169 9.81545 52.453 10.4526 52.4529 11.117V16.1273H67.4842V11.117C67.4843 10.788 67.4195 10.4622 67.2936 10.1583C67.1677 9.8543 66.9832 9.57811 66.7506 9.34548C66.5179 9.11284 66.2417 8.92832 65.9378 8.80243C65.6338 8.67655 65.308 8.61178 64.9791 8.61182ZM52.4532 96.2944H67.4845V103.81H52.4532V96.2944Z" fill="#5B5D6E"/>
<path d="M145.146 18.6324H135.125C134.461 18.6325 133.824 18.8965 133.354 19.3663C132.884 19.8361 132.62 20.4732 132.62 21.1376V26.148H147.651V21.1376C147.651 20.4732 147.387 19.836 146.917 19.3662C146.448 18.8964 145.81 18.6324 145.146 18.6324ZM132.62 96.2944H147.651V103.81H132.62V96.2944Z" fill="#FFC850"/>
<path d="M145.146 16.2838H135.125C135.072 16.2838 135.021 16.2899 134.969 16.2917V16.1273C134.969 13.4508 132.791 11.2734 130.115 11.2734H110.073C107.396 11.2734 105.219 13.4508 105.219 16.1273V16.2917C105.167 16.2902 105.115 16.2838 105.063 16.2838H95.0417C94.9887 16.2838 94.9374 16.2899 94.8853 16.2917V16.1273C94.8853 13.4508 92.7079 11.2734 90.0313 11.2734H69.9896C69.9366 11.2734 69.8854 11.2796 69.8332 11.2813V11.117C69.8332 8.44041 67.6559 6.26306 64.9793 6.26306H54.9583C52.2817 6.26306 50.1044 8.44041 50.1044 11.117V16.2917C50.052 16.2902 50.0007 16.2838 49.9479 16.2838H39.927C39.8739 16.2838 39.8227 16.2899 39.7705 16.2917V11.117C39.7705 8.44041 37.5932 6.26306 34.9166 6.26306H19.8853C17.2087 6.26306 15.0313 8.44041 15.0313 11.117V16.2917C14.9789 16.2902 14.9276 16.2838 14.8749 16.2838H4.85391C2.17734 16.2838 0 18.4611 0 21.1377V103.81C0 104.433 0.247455 105.03 0.687927 105.471C1.1284 105.911 1.72581 106.159 2.34873 106.159H77.6619V123.332C77.6617 123.756 77.7761 124.171 77.993 124.535C78.2098 124.899 78.5211 125.198 78.8938 125.399C79.2665 125.6 79.6868 125.697 80.11 125.679C80.5332 125.661 80.9437 125.529 81.298 125.297L88.0597 120.865L96.9331 142.287C97.1107 142.717 97.4118 143.083 97.7981 143.342C98.1843 143.6 98.6385 143.737 99.1031 143.737C99.4116 143.737 99.717 143.676 100.002 143.558L109.619 139.575C109.904 139.457 110.163 139.284 110.381 139.066C110.599 138.848 110.772 138.589 110.89 138.304C111.009 138.019 111.069 137.714 111.069 137.405C111.069 137.097 111.008 136.791 110.89 136.506L102.023 115.099L109.97 113.49C110.386 113.406 110.772 113.21 111.086 112.924C111.4 112.638 111.63 112.273 111.753 111.866C111.875 111.46 111.885 111.027 111.782 110.616C111.678 110.204 111.465 109.828 111.165 109.528L107.797 106.159H147.652C148.275 106.159 148.872 105.912 149.313 105.471C149.753 105.031 150.001 104.433 150.001 103.811V21.1377C150 18.4611 147.823 16.2838 145.146 16.2838ZM103.099 101.462L97.7754 96.1377H105.219V101.461L103.099 101.462ZM81.6712 80.0335C81.3427 79.7052 80.9242 79.4818 80.4687 79.3913C80.0132 79.3008 79.5411 79.3473 79.1121 79.525C78.683 79.7027 78.3163 80.0036 78.0582 80.3896C77.8 80.7757 77.6622 81.2296 77.6619 81.694V91.4402H69.8332V25.9916H90.1881V88.5504L81.6712 80.0335ZM95.0417 91.4405C94.9887 91.4405 94.9371 91.4449 94.8853 91.4484V31.0019H105.219V91.4402H95.0417V91.4405ZM109.917 36.0126H130.271V81.4198H109.917V36.0126ZM130.271 31.3151H109.917V25.9916H130.271V31.3151ZM109.917 86.117H130.271V91.4405H109.917V86.117ZM109.917 16.1273C109.917 16.0409 109.987 15.9709 110.073 15.9709H130.115C130.201 15.9709 130.271 16.0409 130.271 16.1273V21.2941H109.916V16.1273H109.917ZM95.0417 20.9812H105.063C105.149 20.9812 105.219 21.0512 105.219 21.1377V26.3048H94.8853V21.1377C94.8853 21.0512 94.9553 20.9812 95.0417 20.9812ZM69.9896 15.9709H90.0313C90.1178 15.9709 90.1878 16.0409 90.1878 16.1273V21.2941H69.8329V16.1273C69.8329 16.0409 69.9032 15.9709 69.9896 15.9709ZM4.69717 31.0019H15.0311V91.4402H4.69717V31.0019ZM19.7285 36.0126H35.073V81.4198H19.7285V36.0126ZM35.073 31.3151H19.7285V25.9916H35.073V31.3151ZM19.7285 86.117H35.073V91.4405H19.7285V86.117ZM39.7702 31.0019H50.1041V91.4402H39.7702V31.0019ZM39.927 20.9812H49.9479C50.0344 20.9812 50.1044 21.0512 50.1044 21.1377V26.3048H39.7705V21.1377C39.7705 21.1171 39.7745 21.0968 39.7823 21.0778C39.7902 21.0588 39.8017 21.0415 39.8162 21.027C39.8308 21.0124 39.848 21.0009 39.867 20.9931C39.886 20.9852 39.9064 20.9812 39.927 20.9812ZM19.7285 11.117C19.7285 11.0305 19.7985 10.9605 19.885 10.9605H34.9163C35.0027 10.9605 35.0728 11.0305 35.0728 11.117V21.2941H19.7285V11.117ZM4.85391 20.9812H14.8749C14.9613 20.9812 15.0313 21.0512 15.0313 21.1377V26.3048H4.69717V21.1377C4.69717 21.0512 4.76748 20.9812 4.85391 20.9812ZM4.69717 96.1377H15.0311V101.461H4.69717V96.1377ZM19.7285 96.1377H35.073V101.461H19.7285V96.1377ZM39.7702 96.1377H50.1041V101.461H39.7702V96.1377ZM54.8016 11.117C54.8016 11.0305 54.8716 10.9605 54.958 10.9605H64.979C65.0654 10.9605 65.1354 11.0305 65.1354 11.117V101.461H54.8016V11.117ZM69.8329 101.462V96.1377H77.6616V101.461L69.8329 101.462ZM98.2951 111.06C97.9554 111.129 97.6352 111.272 97.3574 111.479C97.0796 111.687 96.8511 111.953 96.6883 112.259C96.5254 112.565 96.4323 112.903 96.4155 113.249C96.3987 113.595 96.4587 113.941 96.5912 114.261L105.651 136.134L100.374 138.32L91.314 116.447C91.1818 116.128 90.9808 115.842 90.7253 115.609C90.4698 115.377 90.1662 115.203 89.836 115.102C89.5058 115 89.1573 114.972 88.8152 115.021C88.4731 115.069 88.1459 115.192 87.8569 115.382L82.3591 118.985V87.3647L104.749 109.755L98.2951 111.06ZM109.917 96.1377H130.271V101.461H109.917V96.1377ZM145.303 101.462H134.969V21.1377C134.969 21.0512 135.039 20.9812 135.125 20.9812H145.146C145.233 20.9812 145.303 21.0512 145.303 21.1377V101.462Z" fill="black"/>
<path d="M80.0103 61.3778C79.3874 61.3778 78.79 61.6252 78.3495 62.0657C77.909 62.5062 77.6616 63.1036 77.6616 63.7265V71.242C77.6616 71.8649 77.909 72.4623 78.3495 72.9028C78.79 73.3433 79.3874 73.5907 80.0103 73.5907C80.6332 73.5907 81.2306 73.3433 81.6711 72.9028C82.1116 72.4623 82.359 71.8649 82.359 71.242V63.7265C82.359 63.1036 82.1116 62.5062 81.6711 62.0657C81.2306 61.6252 80.6332 61.3778 80.0103 61.3778ZM80.0103 31.3151C79.3874 31.3151 78.79 31.5625 78.3495 32.003C77.909 32.4435 77.6616 33.0409 77.6616 33.6638V53.7055C77.6616 54.3284 77.909 54.9258 78.3495 55.3663C78.79 55.8068 79.3874 56.0542 80.0103 56.0542C80.6332 56.0542 81.2306 55.8068 81.6711 55.3663C82.1116 54.9258 82.359 54.3284 82.359 53.7055V33.6638C82.359 33.0409 82.1116 32.4435 81.6711 32.003C81.2306 31.5625 80.6332 31.3151 80.0103 31.3151ZM27.4007 41.3361C26.7778 41.3361 26.1804 41.5835 25.7399 42.024C25.2995 42.4645 25.052 43.0619 25.052 43.6848V73.7475C25.052 74.3704 25.2995 74.9678 25.7399 75.4083C26.1804 75.8488 26.7778 76.0962 27.4007 76.0962C28.0237 76.0962 28.6211 75.8488 29.0615 75.4083C29.502 74.9678 29.7495 74.3704 29.7495 73.7475V43.6848C29.7495 43.0619 29.502 42.4645 29.0615 42.024C28.6211 41.5835 28.0237 41.3361 27.4007 41.3361ZM120.094 56.3674C119.471 56.3674 118.874 56.6149 118.433 57.0553C117.993 57.4958 117.745 58.0932 117.745 58.7161V73.7475C117.745 74.3704 117.993 74.9678 118.433 75.4083C118.874 75.8488 119.471 76.0962 120.094 76.0962C120.717 76.0962 121.314 75.8488 121.755 75.4083C122.195 74.9678 122.443 74.3704 122.443 73.7475V58.7161C122.443 58.0932 122.195 57.4958 121.755 57.0553C121.314 56.6149 120.717 56.3674 120.094 56.3674ZM120.094 41.3361C119.471 41.3361 118.874 41.5835 118.433 42.024C117.993 42.4645 117.745 43.0619 117.745 43.6848V48.6954C117.745 49.3184 117.993 49.9158 118.433 50.3562C118.874 50.7967 119.471 51.0442 120.094 51.0442C120.717 51.0442 121.314 50.7967 121.755 50.3562C122.195 49.9158 122.443 49.3184 122.443 48.6954V43.6848C122.443 43.0619 122.195 42.4645 121.755 42.0241C121.314 41.5836 120.717 41.3361 120.094 41.3361Z" fill="black"/>
</g>
<defs>
<clipPath id="clip0_303_4817">
<rect width="150" height="150" fill="white"/>
</clipPath>
</defs>
</svg>
