<svg width="150" height="150" viewBox="0 0 150 150" fill="none" xmlns="http://www.w3.org/2000/svg">
<path d="M118.432 21.7954V114.886C118.432 120.909 113.557 125.784 107.534 125.784H13.1704C7.15907 125.795 2.27271 120.909 2.27271 114.886V21.7954C2.27271 15.7727 7.14771 10.8977 13.1704 10.8977H107.523C113.545 10.8977 118.432 15.7727 118.432 21.7954Z" fill="#FF444A"/>
<path d="M115.58 10.8977H21.2273C15.2045 10.8977 10.3295 15.7727 10.3295 21.7954V114.886C10.3295 118.42 12.0227 121.545 14.625 123.545L123.67 14.5C121.67 12.2954 118.795 10.8977 115.58 10.8977Z" fill="#FF7D83"/>
<path d="M14.625 123.545C16.5191 124.999 18.84 125.785 21.2273 125.784H115.58C121.602 125.784 126.477 120.909 126.477 114.886V21.7955C126.477 18.9886 125.409 16.4318 123.659 14.5L14.625 123.545Z" fill="#FF5671"/>
<path d="M115.58 126.364H21.2273C14.9091 126.364 9.76135 121.216 9.76135 114.898V21.7955C9.76135 15.4773 14.9091 10.3296 21.2273 10.3296H37.2273C37.5454 10.3296 37.7954 10.5796 37.7954 10.8978C37.7954 11.216 37.5454 11.466 37.2273 11.466H21.2273C15.5341 11.466 10.8977 16.1023 10.8977 21.7955V114.886C10.8977 120.58 15.5341 125.216 21.2273 125.216H115.58C121.273 125.216 125.909 120.58 125.909 114.886V93.5114C125.909 93.1932 126.159 92.9432 126.477 92.9432C126.795 92.9432 127.045 93.1932 127.045 93.5114V114.886C127.045 121.216 121.909 126.364 115.58 126.364ZM126.477 86.2841C126.159 86.2841 125.909 86.0341 125.909 85.716V21.7955C125.909 16.1023 121.273 11.466 115.58 11.466H45.875C45.5568 11.466 45.3068 11.216 45.3068 10.8978C45.3068 10.5796 45.5568 10.3296 45.875 10.3296H115.58C121.898 10.3296 127.045 15.4773 127.045 21.7955V85.716C127.045 86.0341 126.795 86.2841 126.477 86.2841Z" fill="black"/>
<path d="M21.2272 109.489V36.966C21.2272 33.9887 23.6477 31.5682 26.625 31.5682L110.17 31.5796C113.148 31.5796 115.568 34.0001 115.568 36.9773V109.489C115.568 112.466 113.148 114.886 110.17 114.886H26.625C23.6477 114.886 21.2272 112.466 21.2272 109.489Z" fill="white"/>
<path d="M110.182 31.5681H110.091V114.886H110.17C113.148 114.886 115.568 112.466 115.568 109.489V36.9772C115.571 36.268 115.434 35.5653 115.164 34.9093C114.895 34.2533 114.498 33.657 113.998 33.1545C113.497 32.6519 112.903 32.2531 112.248 31.9809C111.593 31.7087 110.891 31.5684 110.182 31.5681ZM28.2159 31.5568H26.625C23.6477 31.5568 21.2272 33.9772 21.2272 36.9545V109.477C21.2272 112.466 23.6477 114.875 26.625 114.875H28.2159V31.5568Z" fill="#FADFCB"/>
<path d="M110.17 115.455H26.625C25.0341 115.455 23.5341 114.83 22.4091 113.705C21.2841 112.58 20.6591 111.08 20.6591 109.489V36.9659C20.6591 33.6705 23.3409 31 26.625 31H71.9091C72.2272 31 72.4772 31.25 72.4772 31.5682C72.4772 31.8864 72.2272 32.1364 71.9091 32.1364H26.625C25.345 32.1394 24.1183 32.6492 23.2133 33.5542C22.3082 34.4593 21.7984 35.686 21.7954 36.9659V109.489C21.7954 110.784 22.2954 111.989 23.2159 112.909C24.125 113.818 25.3409 114.33 26.6363 114.33H110.182C111.462 114.327 112.688 113.817 113.593 112.912C114.499 112.007 115.008 110.78 115.011 109.5V36.9886C115.008 35.7087 114.499 34.482 113.593 33.5769C112.688 32.6719 111.462 32.1621 110.182 32.1591H82.375C82.0568 32.1591 81.8068 31.9091 81.8068 31.5909C81.8068 31.2727 82.0568 31.0227 82.375 31.0227H110.182C113.477 31.0227 116.148 33.7045 116.148 36.9886V109.5C116.148 112.773 113.466 115.455 110.17 115.455Z" fill="black"/>
<path d="M23.4772 21.7728C23.4772 23.8069 21.8182 25.4319 19.7841 25.4319C17.75 25.4319 16.0909 23.7955 16.0909 21.7728C16.0909 19.716 17.75 18.0796 19.7841 18.0796C21.8182 18.0796 23.4772 19.716 23.4772 21.7728ZM37.2272 21.7728C37.2272 23.8069 35.5682 25.4319 33.5341 25.4319C31.5 25.4319 29.8409 23.7955 29.8409 21.7728C29.8409 19.716 31.5 18.0796 33.5341 18.0796C35.5682 18.0796 37.2272 19.716 37.2272 21.7728ZM50.9659 21.7728C50.9659 23.8069 49.3068 25.4319 47.2727 25.4319C45.2386 25.4319 43.5795 23.7955 43.5795 21.7728C43.5795 19.716 45.2386 18.0796 47.2727 18.0796C49.3182 18.0796 50.9659 19.716 50.9659 21.7728ZM116.148 21.7614C116.148 22.1449 116.072 22.5247 115.925 22.879C115.779 23.2333 115.564 23.5553 115.292 23.8265C115.021 24.0977 114.699 24.3128 114.345 24.4596C113.991 24.6063 113.611 24.6819 113.227 24.6819H64.5341C63.7595 24.6819 63.0167 24.3742 62.469 23.8265C61.9213 23.2788 61.6136 22.536 61.6136 21.7614C61.6136 20.9869 61.9213 20.244 62.469 19.6963C63.0167 19.1486 63.7595 18.841 64.5341 18.841H113.227C114.002 18.841 114.745 19.1486 115.292 19.6963C115.84 20.244 116.148 20.9869 116.148 21.7614Z" fill="#FF5671"/>
<path d="M25.7614 21.7728C25.7614 23.8069 24.1023 25.4319 22.0682 25.4319C20.0341 25.4319 18.375 23.7955 18.375 21.7728C18.375 19.716 20.0341 18.0796 22.0682 18.0796C24.1023 18.0796 25.7614 19.716 25.7614 21.7728Z" fill="white"/>
<path d="M22.0682 25.8636C19.7954 25.8636 17.9545 24.0227 17.9545 21.7727C17.9545 19.5 19.7954 17.6591 22.0682 17.6591C24.3409 17.6591 26.1818 19.5 26.1818 21.7727C26.1818 24.0227 24.3409 25.8636 22.0682 25.8636ZM22.0682 18.5113C20.2727 18.5113 18.8068 19.9772 18.8068 21.7727C18.8068 23.5568 20.2727 25.0113 22.0682 25.0113C23.8636 25.0113 25.3295 23.5568 25.3295 21.7727C25.3295 19.9772 23.8636 18.5113 22.0682 18.5113Z" fill="black"/>
<path d="M39.5 21.7728C39.5 23.8069 37.8409 25.4319 35.8068 25.4319C33.7727 25.4319 32.1136 23.7955 32.1136 21.7728C32.1136 19.716 33.7727 18.0796 35.8068 18.0796C37.8409 18.0796 39.5 19.716 39.5 21.7728Z" fill="white"/>
<path d="M35.8182 25.8636C33.5455 25.8636 31.7046 24.0227 31.7046 21.7727C31.7046 19.5 33.5455 17.6591 35.8182 17.6591C38.091 17.6591 39.9319 19.5 39.9319 21.7727C39.9319 24.0227 38.0796 25.8636 35.8182 25.8636ZM35.8182 18.5113C34.0228 18.5113 32.5569 19.9772 32.5569 21.7727C32.5569 23.5568 34.0228 25.0113 35.8182 25.0113C37.6137 25.0113 39.0796 23.5568 39.0796 21.7727C39.0796 19.9772 37.6137 18.5113 35.8182 18.5113Z" fill="black"/>
<path d="M53.25 21.7728C53.25 23.8069 51.5909 25.4319 49.5568 25.4319C47.5227 25.4319 45.8636 23.7955 45.8636 21.7728C45.8636 19.716 47.5227 18.0796 49.5568 18.0796C51.5909 18.0796 53.25 19.716 53.25 21.7728Z" fill="white"/>
<path d="M49.5682 25.8636C47.2955 25.8636 45.4546 24.0227 45.4546 21.7727C45.4546 19.5 47.2955 17.6591 49.5682 17.6591C51.841 17.6591 53.6819 19.5 53.6819 21.7727C53.6819 24.0227 51.8296 25.8636 49.5682 25.8636ZM49.5682 18.5113C47.7728 18.5113 46.3069 19.9772 46.3069 21.7727C46.3069 23.5568 47.7728 25.0113 49.5682 25.0113C51.3637 25.0113 52.8296 23.5568 52.8296 21.7727C52.8296 19.9772 51.3637 18.5113 49.5682 18.5113Z" fill="black"/>
<path d="M118.432 21.7614C118.432 22.1449 118.356 22.5247 118.209 22.879C118.063 23.2333 117.848 23.5553 117.576 23.8265C117.305 24.0977 116.983 24.3128 116.629 24.4595C116.275 24.6063 115.895 24.6819 115.511 24.6819H66.8182C66.0436 24.6819 65.3008 24.3742 64.7531 23.8265C64.2054 23.2788 63.8977 22.5359 63.8977 21.7614C63.8977 20.9868 64.2054 20.244 64.7531 19.6963C65.3008 19.1486 66.0436 18.8409 66.8182 18.8409H115.511C116.286 18.8409 117.029 19.1486 117.576 19.6963C118.124 20.244 118.432 20.9868 118.432 21.7614Z" fill="white"/>
<path d="M118.239 20.7614C117.83 19.6364 116.761 18.8409 115.511 18.8409H66.8182C65.5568 18.8409 64.4887 19.6478 64.0909 20.7614H118.239Z" fill="#FF7D83"/>
<path d="M115.511 25.25H66.8182C64.8977 25.25 63.3295 23.6818 63.3295 21.7614C63.3295 19.8409 64.8977 18.2727 66.8182 18.2727H115.511C117.432 18.2727 119 19.8409 119 21.7614C119 23.6818 117.432 25.25 115.511 25.25ZM66.8182 19.4091C65.5227 19.4091 64.4659 20.4659 64.4659 21.7614C64.4659 23.0568 65.5227 24.1136 66.8182 24.1136H115.511C116.807 24.1136 117.864 23.0568 117.864 21.7614C117.864 20.4659 116.807 19.4091 115.511 19.4091H66.8182ZM2.27271 90.6023C1.95453 90.6023 1.70453 90.3523 1.70453 90.0341V21.7955C1.70453 21.4773 1.95453 21.2273 2.27271 21.2273C2.59089 21.2273 2.84089 21.4773 2.84089 21.7955V90.0227C2.84089 90.3409 2.59089 90.6023 2.27271 90.6023ZM2.27271 115.455C1.95453 115.455 1.70453 115.205 1.70453 114.886V98.3636C1.70453 98.0455 1.95453 97.7955 2.27271 97.7955C2.59089 97.7955 2.84089 98.0455 2.84089 98.3636V114.898C2.84089 115.205 2.59089 115.455 2.27271 115.455ZM131.614 52.5568C130.045 52.5568 128.761 51.2727 128.761 49.7045C128.761 48.1364 130.045 46.8636 131.614 46.8636C133.182 46.8636 134.466 48.1364 134.466 49.7045C134.466 51.2727 133.193 52.5568 131.614 52.5568ZM131.614 48.1818C130.773 48.1818 130.08 48.8636 130.08 49.7045C130.08 50.5455 130.773 51.2386 131.614 51.2386C132.455 51.2386 133.148 50.5455 133.148 49.7045C133.148 48.8636 132.466 48.1818 131.614 48.1818ZM138.25 87.8068C136.682 87.8068 135.398 86.5227 135.398 84.9546C135.398 83.3864 136.682 82.1136 138.25 82.1136C139.818 82.1136 141.102 83.3864 141.102 84.9546C141.102 86.5341 139.83 87.8068 138.25 87.8068ZM138.25 83.4318C137.409 83.4318 136.716 84.1136 136.716 84.9546C136.716 85.7955 137.409 86.4886 138.25 86.4886C139.091 86.4886 139.784 85.7955 139.784 84.9546C139.784 84.1136 139.102 83.4318 138.25 83.4318ZM9.89771 143.273C9.89771 143.707 9.72531 144.123 9.41843 144.43C9.11155 144.737 8.69534 144.909 8.26135 144.909C7.82736 144.909 7.41114 144.737 7.10426 144.43C6.79739 144.123 6.62498 143.707 6.62498 143.273C6.62498 142.386 7.36362 141.648 8.26135 141.648C9.17044 141.648 9.89771 142.386 9.89771 143.273ZM141.5 27.7386C141.5 28.1726 141.328 28.5888 141.021 28.8957C140.714 29.2026 140.298 29.375 139.864 29.375C139.43 29.375 139.013 29.2026 138.707 28.8957C138.4 28.5888 138.227 28.1726 138.227 27.7386C138.227 26.8523 138.966 26.1136 139.864 26.1136C140.773 26.1136 141.5 26.8523 141.5 27.7386ZM147.477 64.2273C147.477 64.6613 147.305 65.0775 146.998 65.3844C146.691 65.6912 146.275 65.8636 145.841 65.8636C145.407 65.8636 144.991 65.6912 144.684 65.3844C144.377 65.0775 144.205 64.6613 144.205 64.2273C144.205 63.3409 144.943 62.6023 145.841 62.6023C146.75 62.6023 147.477 63.3409 147.477 64.2273ZM130.716 8.06818C129.148 8.06818 127.864 6.78409 127.864 5.21591C127.864 3.64773 129.148 2.375 130.716 2.375C132.284 2.375 133.568 3.64773 133.568 5.21591C133.568 6.79545 132.284 8.06818 130.716 8.06818ZM130.716 3.69318C129.875 3.69318 129.182 4.375 129.182 5.21591C129.182 6.05682 129.875 6.75 130.716 6.75C131.557 6.75 132.25 6.05682 132.25 5.21591C132.25 4.375 131.557 3.69318 130.716 3.69318ZM44.8636 144.909C44.8636 145.343 44.6912 145.759 44.3843 146.066C44.0775 146.373 43.6613 146.545 43.2273 146.545C42.7933 146.545 42.3771 146.373 42.0702 146.066C41.7633 145.759 41.5909 145.343 41.5909 144.909C41.5909 144.023 42.3295 143.284 43.2273 143.284C44.1364 143.284 44.8636 144.011 44.8636 144.909ZM27.0227 140.023C25.4545 140.023 24.1704 138.739 24.1704 137.17C24.1704 135.602 25.4545 134.33 27.0227 134.33C28.5909 134.33 29.875 135.602 29.875 137.17C29.875 138.739 28.6023 140.023 27.0227 140.023ZM27.0227 135.648C26.1818 135.648 25.4886 136.33 25.4886 137.17C25.4886 138.011 26.1818 138.705 27.0227 138.705C27.8636 138.705 28.5568 138.011 28.5568 137.17C28.5568 136.33 27.875 135.648 27.0227 135.648Z" fill="black"/>
<path d="M105.352 53V97.9773C105.352 100.114 103.625 101.841 101.5 101.841H75.6705C75.0154 103.089 74.0321 104.135 72.8267 104.866C71.6213 105.597 70.2393 105.985 68.8296 105.989H67.9773C65.1023 105.989 62.466 104.386 61.1364 101.841H35.3069C33.1819 101.841 31.4546 100.114 31.4546 97.9773V53C31.4546 50.8636 33.1819 49.1477 35.3069 49.1477H101.5C103.625 49.1477 105.352 50.8636 105.352 53Z" fill="#158ED8"/>
<path d="M35.5569 49.1477H35.3069C33.1819 49.1477 31.4546 50.8636 31.4546 53V97.9773C31.4546 100.114 33.1819 101.841 35.3069 101.841H35.5569V49.1477ZM101.25 49.1477H101.5C103.625 49.1477 105.352 50.8636 105.352 53V97.9773C105.352 100.114 103.625 101.841 101.5 101.841H101.25V49.1477Z" fill="#015ED4"/>
<path d="M68.8295 106.557H67.9773C65 106.557 62.2841 104.977 60.7954 102.409H35.3068C32.875 102.409 30.8864 100.421 30.8864 97.9773V53C30.8864 50.5682 32.8636 48.5796 35.3068 48.5796H101.5C103.932 48.5796 105.92 50.5569 105.92 53V97.9773C105.92 100.421 103.943 102.409 101.5 102.409H76.0114C75.2812 103.668 74.2338 104.713 72.9737 105.441C71.7136 106.169 70.2847 106.553 68.8295 106.557ZM35.3068 49.716C33.5 49.716 32.0227 51.1932 32.0227 53V97.9773C32.0227 99.7955 33.5 101.273 35.3068 101.273H61.1364C61.3523 101.273 61.5454 101.386 61.6364 101.58C62.2391 102.74 63.1495 103.712 64.2679 104.39C65.3863 105.067 66.6696 105.424 67.9773 105.42H68.8295C70.1364 105.42 71.4204 105.057 72.5341 104.375C73.6477 103.693 74.5568 102.727 75.1704 101.568C75.2727 101.386 75.4659 101.261 75.6704 101.261H101.5C102.372 101.258 103.207 100.91 103.823 100.292C104.438 99.6745 104.784 98.838 104.784 97.966V53C104.784 51.1932 103.307 49.716 101.5 49.716H35.3068Z" fill="black"/>
<path d="M99.0796 46.2046V92.2046C99.0796 93.0796 98.3637 93.7955 97.4887 93.7955H74.4318C71.1023 93.7955 68.3978 96.5 68.3978 99.8296V50.6477C68.3978 47.3182 71.1023 44.6136 74.4318 44.6136H97.4887C98.3637 44.6136 99.0796 45.3296 99.0796 46.2046ZM68.3978 50.6477V99.8182C68.3978 96.4887 65.7046 93.7841 62.375 93.7841H39.3182C38.4432 93.7841 37.7273 93.0682 37.7273 92.1932V46.2046C37.7273 45.3296 38.4432 44.6136 39.3182 44.6136H62.375C65.7046 44.6136 68.3978 47.3182 68.3978 50.6477Z" fill="#FADFCB"/>
<path d="M65.9659 45.8068V94.9773C67.4432 96.0796 68.3978 97.8296 68.3978 99.8182V50.6477C68.3978 48.6705 67.4432 46.9091 65.9659 45.8068ZM40.0909 44.6136H39.3182C38.4432 44.6136 37.7273 45.3296 37.7273 46.2046V92.2046C37.7273 93.0796 38.4432 93.7955 39.3182 93.7955H40.0909V44.6136ZM70.8409 45.8068V94.9773C69.3637 96.0796 68.4091 97.8296 68.4091 99.8182V50.6477C68.4064 49.7067 68.6251 48.7781 69.0476 47.9372C69.47 47.0963 70.0843 46.3665 70.8409 45.8068ZM96.7159 44.6136H97.4887C98.3637 44.6136 99.0796 45.3296 99.0796 46.2046V92.2046C99.0796 93.0796 98.3637 93.7955 97.4887 93.7955H96.7159V44.6136Z" fill="#FBD3C2"/>
<path d="M68.3978 100.386C68.0796 100.386 67.8296 100.136 67.8296 99.8181V50.6477C67.8296 47.0113 70.7955 44.0454 74.4319 44.0454H97.4887C98.6819 44.0454 99.6478 45.0113 99.6478 46.2045V92.2045C99.6478 92.7771 99.4203 93.3263 99.0154 93.7312C98.6105 94.1361 98.0613 94.3636 97.4887 94.3636H74.4319C71.4205 94.3636 68.966 96.8181 68.966 99.8295C68.966 100.136 68.716 100.386 68.3978 100.386ZM74.4319 45.1818C71.4205 45.1818 68.966 47.6363 68.966 50.6477V96.125C69.5704 95.2307 70.3845 94.4981 71.3373 93.991C72.2901 93.4839 73.3525 93.2178 74.4319 93.2159H97.4887C98.0455 93.2159 98.5114 92.7613 98.5114 92.1931V46.2045C98.5114 45.6363 98.0569 45.1818 97.4887 45.1818H74.4319Z" fill="black"/>
<path d="M68.3977 100.386C68.0795 100.386 67.8295 100.136 67.8295 99.8181C67.8295 96.8068 65.3863 94.3522 62.375 94.3522H39.3181C38.7455 94.3522 38.1963 94.1248 37.7914 93.7199C37.3865 93.3149 37.1591 92.7658 37.1591 92.1931V46.2045C37.1591 45.0113 38.125 44.0454 39.3181 44.0454H62.375C66.0113 44.0454 68.9659 47.0113 68.9659 50.6477V99.8181C68.9659 100.136 68.7159 100.386 68.3977 100.386ZM39.3181 45.1818C38.7613 45.1818 38.2954 45.6363 38.2954 46.2045V92.2045C38.2954 92.7727 38.75 93.2272 39.3181 93.2272H62.375C64.6477 93.2272 66.6477 94.375 67.8295 96.125V50.6477C67.8295 47.6363 65.3863 45.1818 62.375 45.1818H39.3181Z" fill="black"/>
<path d="M60.6137 54.0796H45.5228C45.2046 54.0796 44.9546 53.8296 44.9546 53.5114C44.9546 53.1932 45.2046 52.9432 45.5228 52.9432H60.625C60.9432 52.9432 61.1932 53.1932 61.1932 53.5114C61.1932 53.8296 60.9319 54.0796 60.6137 54.0796ZM60.6137 64.7614H45.5228C45.2046 64.7614 44.9546 64.5114 44.9546 64.1932C44.9546 63.8751 45.2046 63.6251 45.5228 63.6251H60.625C60.9432 63.6251 61.1932 63.8751 61.1932 64.1932C61.1932 64.5114 60.9319 64.7614 60.6137 64.7614ZM60.6137 75.4432H45.5228C45.2046 75.4432 44.9546 75.1932 44.9546 74.8751C44.9546 74.5569 45.2046 74.3069 45.5228 74.3069H60.625C60.9432 74.3069 61.1932 74.5569 61.1932 74.8751C61.1932 75.1932 60.9319 75.4432 60.6137 75.4432ZM60.6137 86.1251H45.5228C45.2046 86.1251 44.9546 85.8751 44.9546 85.5569C44.9546 85.2387 45.2046 84.9887 45.5228 84.9887H60.625C60.9432 84.9887 61.1932 85.2387 61.1932 85.5569C61.1932 85.8751 60.9319 86.1251 60.6137 86.1251ZM91.2841 54.0796H76.1932C75.875 54.0796 75.625 53.8296 75.625 53.5114C75.625 53.1932 75.875 52.9432 76.1932 52.9432H91.2955C91.6137 52.9432 91.8637 53.1932 91.8637 53.5114C91.8637 53.8296 91.6023 54.0796 91.2841 54.0796ZM91.2841 64.7614H76.1932C75.875 64.7614 75.625 64.5114 75.625 64.1932C75.625 63.8751 75.875 63.6251 76.1932 63.6251H91.2955C91.6137 63.6251 91.8637 63.8751 91.8637 64.1932C91.8637 64.5114 91.6023 64.7614 91.2841 64.7614ZM91.2841 75.4432H76.1932C75.875 75.4432 75.625 75.1932 75.625 74.8751C75.625 74.5569 75.875 74.3069 76.1932 74.3069H91.2955C91.6137 74.3069 91.8637 74.5569 91.8637 74.8751C91.8637 75.1932 91.6023 75.4432 91.2841 75.4432ZM91.2841 86.1251H76.1932C75.875 86.1251 75.625 85.8751 75.625 85.5569C75.625 85.2387 75.875 84.9887 76.1932 84.9887H91.2955C91.6137 84.9887 91.8637 85.2387 91.8637 85.5569C91.8637 85.8751 91.6023 86.1251 91.2841 86.1251Z" fill="black"/>
<path d="M145.477 123.023L126.75 126.341C125.807 126.511 125.011 127.159 124.682 128.057L117.989 145.852C117.057 148.318 113.523 148.159 112.818 145.625L100.318 100.5C99.6932 98.2386 102.034 96.2955 104.136 97.3295L146.205 117.898C148.568 119.057 148.068 122.557 145.477 123.023Z" fill="#FFC378"/>
<path d="M145.489 123.011L126.761 126.33C125.818 126.5 125.023 127.148 124.682 128.057L117.989 145.852C117.511 147.125 116.341 147.705 115.216 147.602C114.159 147.511 113.159 146.841 112.818 145.614L100.318 100.5C99.6931 98.25 102.023 96.2955 104.136 97.341L114.239 102.273L146.204 117.898C148.557 119.045 148.068 122.557 145.489 123.011Z" fill="#FFC378"/>
<path d="M145.489 123.011L126.761 126.33C125.818 126.5 125.023 127.148 124.682 128.057L117.989 145.852C117.511 147.125 116.341 147.705 115.216 147.602L114.239 102.273L146.205 117.898C148.557 119.045 148.068 122.557 145.489 123.011Z" fill="#FFAB41"/>
<path d="M115.443 148.193H115.284C114.589 148.168 113.92 147.921 113.376 147.487C112.832 147.053 112.441 146.456 112.261 145.784L109.511 135.864C109.491 135.791 109.486 135.716 109.495 135.641C109.504 135.566 109.527 135.494 109.564 135.429C109.601 135.364 109.651 135.306 109.71 135.26C109.769 135.213 109.837 135.179 109.909 135.159C109.981 135.139 110.057 135.133 110.132 135.142C110.206 135.151 110.278 135.175 110.344 135.212C110.409 135.249 110.467 135.298 110.513 135.358C110.559 135.417 110.593 135.484 110.614 135.557L113.364 145.477C113.67 146.591 114.591 147.023 115.341 147.057C116.102 147.091 117.045 146.739 117.455 145.659L124.148 127.864C124.557 126.784 125.511 125.989 126.648 125.784L145.375 122.466C146.511 122.261 147.023 121.398 147.136 120.648C147.239 119.898 146.989 118.92 145.955 118.42L103.886 97.8409C103.515 97.6552 103.097 97.5832 102.684 97.6337C102.272 97.6842 101.884 97.8551 101.568 98.125C100.909 98.6704 100.636 99.5227 100.864 100.352L109.261 130.693C109.302 130.839 109.283 130.996 109.208 131.128C109.134 131.26 109.01 131.357 108.864 131.398C108.717 131.438 108.561 131.419 108.429 131.345C108.297 131.27 108.2 131.146 108.159 131L99.7614 100.659C99.4091 99.3977 99.8182 98.0909 100.83 97.25C101.841 96.4091 103.193 96.25 104.375 96.8295L146.443 117.398C147.75 118.034 148.455 119.375 148.25 120.807C148.045 122.239 147 123.33 145.568 123.591L126.841 126.909C126.474 126.976 126.13 127.136 125.843 127.375C125.556 127.614 125.336 127.923 125.205 128.273L118.511 146.068C118.281 146.695 117.863 147.236 117.314 147.617C116.765 147.997 116.111 148.198 115.443 148.193Z" fill="black"/>
</svg>
