<svg width="30" height="30" viewBox="0 0 30 30" fill="none" xmlns="http://www.w3.org/2000/svg">
<path d="M20.25 29.6875H9.75C4.5625 29.6875 0.3125 25.4375 0.3125 20.25V9.75C0.3125 4.5625 4.5625 0.3125 9.75 0.3125H20.25C25.4375 0.3125 29.6875 4.5625 29.6875 9.75V20.25C29.6875 25.4375 25.4375 29.6875 20.25 29.6875ZM9.75 2.75C5.875 2.75 2.75 5.875 2.75 9.75V20.25C2.75 24.125 5.875 27.25 9.75 27.25H20.25C24.125 27.25 27.25 24.125 27.25 20.25V9.75C27.25 5.875 24.125 2.75 20.25 2.75H9.75Z" fill="#677615"/>
<path d="M9.125 22.875C8.8125 22.875 8.5625 22.75 8.3125 22.5625C7.8125 22.125 7.75 21.3125 8.1875 20.8125L13.75 14.5625V8.375C13.75 7.6875 14.3125 7.125 15 7.125C15.6875 7.125 16.25 7.6875 16.25 8.375V15C16.25 15.3125 16.125 15.5625 15.9375 15.8125L10 22.4375C9.8125 22.75 9.4375 22.875 9.125 22.875ZM15 4.3125C14.3125 4.3125 13.75 3.75 13.75 3.0625V1.5625C13.75 0.875 14.3125 0.3125 15 0.3125C15.6875 0.3125 16.25 0.875 16.25 1.5625V3.0625C16.25 3.75 15.6875 4.3125 15 4.3125ZM15 29.6875C14.3125 29.6875 13.75 29.125 13.75 28.4375V26.9375C13.75 26.25 14.3125 25.6875 15 25.6875C15.6875 25.6875 16.25 26.25 16.25 26.9375V28.4375C16.25 29.125 15.6875 29.6875 15 29.6875ZM28.4375 16.25H26.9375C26.25 16.25 25.6875 15.6875 25.6875 15C25.6875 14.3125 26.25 13.75 26.9375 13.75H28.4375C29.125 13.75 29.6875 14.3125 29.6875 15C29.6875 15.6875 29.125 16.25 28.4375 16.25ZM3.0625 16.25H1.5625C0.875 16.25 0.3125 15.6875 0.3125 15C0.3125 14.3125 0.875 13.75 1.5625 13.75H3.0625C3.75 13.75 4.3125 14.3125 4.3125 15C4.3125 15.6875 3.75 16.25 3.0625 16.25ZM24.75 6.5C24.4375 6.5 24.125 6.375 23.875 6.125C23.375 5.625 23.375 4.875 23.875 4.375L25.125 3.125C25.625 2.625 26.375 2.625 26.875 3.125C27.375 3.625 27.375 4.375 26.875 4.875L25.625 6.125C25.375 6.375 25.0625 6.5 24.75 6.5ZM4 27.1875C3.6875 27.1875 3.375 27.0625 3.125 26.8125C2.625 26.3125 2.625 25.5625 3.125 25.0625L4.375 23.8125C4.875 23.3125 5.625 23.3125 6.125 23.8125C6.625 24.3125 6.625 25.0625 6.125 25.5625L4.875 26.8125C4.625 27.0625 4.3125 27.1875 4 27.1875ZM26 27.1875C25.6875 27.1875 25.375 27.0625 25.125 26.8125L23.875 25.5625C23.375 25.0625 23.375 24.3125 23.875 23.8125C24.375 23.3125 25.125 23.3125 25.625 23.8125L26.875 25.0625C27.375 25.5625 27.375 26.3125 26.875 26.8125C26.625 27.0625 26.3125 27.1875 26 27.1875ZM5.25 6.5C4.9375 6.5 4.625 6.375 4.375 6.125L3.125 4.875C2.625 4.375 2.625 3.625 3.125 3.125C3.625 2.625 4.375 2.625 4.875 3.125L6.125 4.375C6.625 4.875 6.625 5.625 6.125 6.125C5.875 6.375 5.5625 6.5 5.25 6.5Z" fill="#677615"/>
</svg>
