<svg width="30" height="30" viewBox="0 0 30 30" fill="none" xmlns="http://www.w3.org/2000/svg">
<path d="M13.5 13.5H2.75C1.25 13.5 0 12.25 0 10.75V2.75C0 1.25 1.25 0 2.75 0H10.75C12.25 0 13.5 1.25 13.5 2.75V13.5ZM16.5 13.5V2.75C16.5 1.25 17.75 0 19.25 0H27.25C28.75 0 30 1.25 30 2.75V10.75C30 12.25 28.75 13.5 27.25 13.5H16.5ZM16.5 16.5H27.25C28.75 16.5 30 17.75 30 19.25V27.25C30 28.75 28.75 30 27.25 30H19.25C17.75 30 16.5 28.75 16.5 27.25V16.5ZM13.5 16.5V27.25C13.5 28.75 12.25 30 10.75 30H2.75C1.25 30 0 28.75 0 27.25V19.25C0 17.75 1.25 16.5 2.75 16.5H13.5Z" fill="#2C384C"/>
</svg>
