<svg width="24" height="30" viewBox="0 0 24 30" fill="none" xmlns="http://www.w3.org/2000/svg">
<path d="M5.80616 6.39598C5.82046 6.41701 5.82116 6.43898 5.80827 6.46137L4.93622 7.9718C4.91589 8.00699 4.90312 8.04603 4.89869 8.08643C4.89427 8.12682 4.8983 8.1677 4.91053 8.20646C4.92276 8.24521 4.94292 8.281 4.96972 8.31155C4.99653 8.3421 5.0294 8.36673 5.06624 8.38389C7.08538 9.3242 8.87225 10.7535 10.2412 12.5196V17.4452C9.22042 14.3476 6.92559 11.7557 3.8343 10.4016C3.76827 10.3726 3.69389 10.3691 3.62539 10.3916C3.5569 10.4141 3.4991 10.461 3.46305 10.5234L2.5787 12.0552C2.56587 12.0774 2.54618 12.0877 2.52098 12.0858C2.4955 12.0839 2.47786 12.0709 2.46843 12.0471L0.558269 7.215C0.548953 7.1915 0.554929 7.17287 0.56155 7.16139C0.568172 7.1499 0.581355 7.13543 0.606375 7.13168L5.74604 6.3699C5.77153 6.36609 5.79186 6.37488 5.80616 6.39598ZM13.7589 17.4452C14.7797 14.3476 17.0745 11.7557 20.1658 10.4016C20.2318 10.3726 20.3062 10.3691 20.3747 10.3916C20.4432 10.4141 20.501 10.461 20.537 10.5234L21.4214 12.0552C21.4342 12.0773 21.4534 12.0877 21.4791 12.0858C21.5046 12.0839 21.5222 12.0709 21.5317 12.0471L23.4418 7.21506C23.4511 7.19156 23.4452 7.17293 23.4385 7.16145C23.4319 7.14996 23.4187 7.13549 23.3937 7.13174L18.254 6.36996C18.2283 6.36603 18.2082 6.37488 18.1939 6.39598C18.1796 6.41701 18.1789 6.43898 18.1918 6.46137L19.0638 7.9718C19.0841 8.00699 19.0969 8.04602 19.1013 8.08641C19.1057 8.1268 19.1017 8.16767 19.0895 8.20642C19.0772 8.24517 19.0571 8.28096 19.0303 8.3115C19.0035 8.34204 18.9706 8.36667 18.9338 8.38383C16.9147 9.3242 15.1278 10.7535 13.7588 12.5196V17.4452L13.7589 17.4452ZM12.3273 27.4106C12.6167 27.983 12.9448 28.5349 13.3096 29.0625H16.3141C15.4116 28.0981 14.6863 26.9986 14.1534 25.7858C13.879 25.1615 13.6603 24.5142 13.4998 23.8514C13.2652 25.0837 12.8711 26.2802 12.3273 27.4106ZM7.68602 29.0625H10.6906C12.315 26.7154 13.173 23.9643 13.173 21.0966V5.42344C13.173 5.34574 13.2038 5.27122 13.2588 5.21628C13.3137 5.16133 13.3882 5.13047 13.4659 5.13047H15.2297C15.2555 5.13047 15.2742 5.11887 15.2853 5.09596C15.2964 5.07305 15.2938 5.05119 15.2778 5.03098L12.0482 0.960703C12.033 0.941543 12.0136 0.9375 12.0001 0.9375C11.9866 0.9375 11.9672 0.941543 11.9519 0.960703L8.72243 5.03092C8.70638 5.05113 8.70386 5.07305 8.71493 5.0959C8.726 5.11881 8.7447 5.13041 8.77059 5.13041H10.5343C10.612 5.13041 10.6865 5.16128 10.7415 5.21622C10.7964 5.27116 10.8273 5.34568 10.8273 5.42338V21.0966C10.8273 22.7271 10.4974 24.3048 9.84679 25.7858C9.31399 26.9986 8.58866 28.0981 7.68614 29.0625H7.68602Z" fill="#677615"/>
</svg>
