<svg width="30" height="30" viewBox="0 0 30 30" fill="none" xmlns="http://www.w3.org/2000/svg">
<path d="M29.081 0H26.4048C25.8973 0 25.486 0.411328 25.486 0.91875C25.486 1.42617 25.8973 1.8375 26.4048 1.8375H28.1623V3.59502C28.1623 4.10244 28.5737 4.51377 29.0811 4.51377C29.5885 4.51377 29.9998 4.10244 29.9998 3.59502V0.91875C29.9998 0.411328 29.5884 0 29.081 0ZM29.081 16.1769C28.5736 16.1769 28.1623 16.5882 28.1623 17.0957V18.8532H26.4048C25.8973 18.8532 25.486 19.2646 25.486 19.772C25.486 20.2794 25.8973 20.6907 26.4048 20.6907H29.081C29.5884 20.6907 29.9998 20.2794 29.9998 19.772V17.0957C29.9998 16.5882 29.5884 16.1769 29.081 16.1769ZM10.2278 4.51377C10.7353 4.51377 11.1466 4.10244 11.1466 3.59502V1.8375H12.9041C13.4115 1.8375 13.8229 1.42617 13.8229 0.91875C13.8229 0.411328 13.4115 0 12.9041 0H10.2279C9.72047 0 9.30914 0.411328 9.30914 0.91875V3.59502C9.30914 4.10244 9.72042 4.51377 10.2278 4.51377ZM14.358 13.4736L0.44813 27.3834C-0.149702 27.9812 -0.149702 28.9501 0.44813 29.5479C1.04596 30.1457 2.01487 30.1457 2.6127 29.5479L16.5225 15.6381L15.9352 14.0609L14.358 13.4736ZM27.1639 12.2791L25.1307 9.12984C25.0613 9.0219 25.0152 8.90065 24.9954 8.77386C24.9756 8.64707 24.9825 8.51753 25.0156 8.39355L25.979 4.80352C26.1072 4.32563 25.6698 3.88828 25.1919 4.0166L21.6023 4.98047C21.4784 5.01362 21.3489 5.0205 21.2221 5.00067C21.0954 4.98085 20.9741 4.93475 20.8662 4.86533L17.7168 2.83213C17.3 2.56324 16.7484 2.84795 16.7267 3.34371L16.5628 7.04748C16.5571 7.17792 16.5237 7.30564 16.4648 7.42215C16.4058 7.53866 16.3228 7.64128 16.2211 7.72318L13.2932 10.0792C12.905 10.3917 13.0048 11.0078 13.4718 11.1818L15.7869 12.0446C17.6136 12.7249 17.2719 12.3843 17.9514 14.2092L18.8143 16.5244C18.9882 16.9912 19.6044 17.091 19.9168 16.7029L22.2729 13.775C22.3548 13.6734 22.4574 13.5903 22.5739 13.5314C22.6904 13.4725 22.8182 13.439 22.9486 13.4333L26.6524 13.2694C27.1481 13.2475 27.4328 12.6961 27.1639 12.279L27.1639 12.2791Z" fill="#677615"/>
</svg>
