<svg width="150" height="150" viewBox="0 0 150 150" fill="none" xmlns="http://www.w3.org/2000/svg">
<path d="M96.6829 133.023C96.5657 133.538 96.097 133.902 95.5696 133.902H54.554C53.3795 133.934 52.9688 132.221 54.0384 131.722C54.0501 131.71 54.6243 131.429 55.4564 130.913C62.1756 127.168 62.4404 122.012 61.6201 115.339C61.3878 113.751 63.8874 113.576 63.9173 115.175H86.2064C86.2342 113.579 88.7277 113.748 88.5032 115.339C88.1986 117.495 87.7767 123.683 89.4993 126.261C92.2995 130.643 97.0497 131.139 96.6829 133.023Z" fill="#BDE0E0"/>
<path d="M96.0847 131.725C96.0407 131.703 91.6362 129.468 89.4952 126.256C87.7764 123.678 88.1974 117.5 88.5053 115.338C88.7297 113.759 86.231 113.573 86.2058 115.175H81.4644C81.2291 117.443 80.6868 123.576 82.4637 126.256C84.605 129.469 89.0092 131.703 89.0531 131.725C90.1225 132.219 89.7176 133.942 88.5381 133.904H95.5694C96.7477 133.94 97.1555 132.22 96.0847 131.725Z" fill="#8DB5B4"/>
<path d="M137.734 48.847V99.9407H124.843V48.847C124.979 42.3135 119.204 36.5625 112.679 36.6829H125.57C132.095 36.5628 137.87 42.3132 137.734 48.847Z" fill="#2D9DF4"/>
<path d="M125.57 116.325H25.7259C19.0181 116.325 13.5604 110.868 13.5604 104.16V78.8473C13.5738 77.3637 15.8572 77.3488 15.8607 78.8473V104.16C15.8607 109.6 20.2863 114.025 25.7262 114.025H125.57C131.01 114.025 135.436 109.6 135.436 104.16V65.9567C135.379 64.4807 137.784 64.4526 137.736 65.9567V104.16C137.735 110.868 132.278 116.325 125.57 116.325ZM136.585 60.0754C136.28 60.0754 135.988 59.9542 135.772 59.7385C135.556 59.5228 135.435 59.2302 135.435 58.9252V48.847C135.535 43.559 130.878 38.8791 125.57 38.9816H25.7259C20.286 38.9816 15.8604 43.4072 15.8604 48.847V54.8236C15.8604 55.1287 15.7393 55.4212 15.5236 55.6369C15.3079 55.8526 15.0153 55.9738 14.7103 55.9738C14.4052 55.9738 14.1126 55.8526 13.8969 55.6369C13.6812 55.4212 13.5601 55.1287 13.5601 54.8236V48.847C13.5601 42.1392 19.0178 36.6815 25.7256 36.6815H125.57C132.11 36.5579 137.865 42.3203 137.735 48.8473V58.9255C137.735 59.2304 137.614 59.5229 137.398 59.7386C137.183 59.9542 136.89 60.0754 136.585 60.0754ZM14.7103 74.1379C14.4052 74.1379 14.1126 74.0167 13.8969 73.801C13.6812 73.5853 13.5601 73.2927 13.5601 72.9877V58.3392C13.5601 58.0342 13.6812 57.7416 13.8969 57.5259C14.1126 57.3102 14.4052 57.189 14.7103 57.189C15.0153 57.189 15.3079 57.3102 15.5236 57.5259C15.7393 57.7416 15.8604 58.0342 15.8604 58.3392V72.9877C15.8604 73.2927 15.7393 73.5853 15.5236 73.801C15.3079 74.0167 15.0153 74.1379 14.7103 74.1379Z" fill="black"/>
<path d="M125.679 47.5652L120.992 42.8777C120.309 42.1435 118.994 42.7072 119.029 43.6907H31.0751C31.1402 42.776 29.9666 42.1889 29.2546 42.7705C28.819 43.2937 23.8224 46.296 24.1072 47.206V94.0813C24.1072 94.2323 24.1369 94.3819 24.1947 94.5215C24.2525 94.661 24.3373 94.7878 24.4441 94.8946C24.5509 95.0014 24.6777 95.0861 24.8172 95.1439C24.9568 95.2017 25.1063 95.2315 25.2574 95.2315H124.867C125.172 95.2315 125.464 95.1103 125.68 94.8946C125.896 94.6789 126.017 94.3864 126.017 94.0813C125.694 93.2751 126.643 48.1303 125.679 47.5652Z" fill="#6EA9B7"/>
<path d="M124.867 95.2316C124.076 95.623 119.79 89.3127 119.281 88.9407C119.095 88.7022 119.01 88.3998 119.045 88.0993C119.081 87.7987 119.233 87.5241 119.469 87.3351C119.705 87.146 120.007 87.0577 120.308 87.0893C120.609 87.1209 120.885 87.2699 121.077 87.5039L125.764 93.3633C126.377 94.0788 125.795 95.2615 124.867 95.2316ZM25.2565 95.2316C24.3295 95.26 23.7456 94.0796 24.3594 93.3633L29.0469 87.5039C29.1412 87.386 29.2578 87.2878 29.39 87.2149C29.5223 87.1421 29.6676 87.096 29.8177 87.0793C29.9678 87.0626 30.1197 87.0757 30.2647 87.1177C30.4097 87.1598 30.545 87.23 30.6629 87.3244C30.7809 87.4186 30.8791 87.5352 30.952 87.6675C31.0249 87.7997 31.071 87.9451 31.0877 88.0951C31.1044 88.2452 31.0913 88.3971 31.0492 88.5422C31.0072 88.6872 30.9369 88.8225 30.8425 88.9404C30.3111 89.3382 26.0695 95.601 25.2565 95.2316Z" fill="black"/>
<path d="M122.522 95.2315C109.828 88.7033 91.0368 83.7516 77.4782 93.8534C76.2843 94.7229 74.9147 92.8058 76.1604 91.9679C76.6549 91.6216 88.4205 83.514 101.635 85.9192C114.421 88.5015 127.653 93.4925 122.522 95.2315Z" fill="black"/>
<path d="M26.2099 95.2315C20.4712 93.2906 36.98 88.5905 49.66 85.9186C62.8427 83.5213 75.7225 91.5934 76.265 91.938C77.5192 92.7205 76.2888 94.6972 75.0308 93.8789C59.5172 83.1559 39.7811 89.7246 26.2099 95.2315ZM108.458 47.1835C107.164 46.9863 104.135 43.7663 95.4073 42.4857C94.3647 42.336 93.3996 42.2874 92.4609 42.3307C91.8229 42.3674 91.2879 41.8725 91.2568 41.238C91.4751 39.191 94.2609 40.2064 95.7319 40.2085C104.423 41.5889 112.724 45.7643 108.458 47.1835ZM83.8503 46.0087C80.8506 45.1769 84.104 42.1312 88.5214 40.6447C89.9405 40.19 90.624 42.4347 89.1876 42.8452C85.026 44.1653 85.5275 45.636 83.8503 46.0087ZM108.458 58.9022C107.175 58.7004 104.127 55.4883 95.4073 54.2045C87.9674 53.1375 84.8018 57.2294 84.7711 57.2713C83.9007 58.4765 82.0122 57.0721 82.931 55.8911C89.9232 46.1138 115.182 56.9639 108.458 58.9022ZM108.458 70.621C107.127 70.3702 105.869 68.5702 99.9422 66.8865C98.5046 66.4989 99.1392 64.2477 100.572 64.6743C106.555 66.5197 112.174 69.3032 108.458 70.621ZM83.8497 69.4503C80.0402 68.4929 86.6716 62.286 95.7319 63.646C97.2085 63.8379 96.8836 66.1526 95.407 65.9235C86.5477 64.9468 85.7344 69.1011 83.8497 69.4503ZM42.8839 47.1835C37.8316 45.4134 50.7466 40.1727 58.05 40.0098C59.5099 39.9047 59.6001 42.324 58.0887 42.3088C51.6284 42.2991 43.2161 46.8146 43.5706 46.9558C43.3722 47.1037 43.1313 47.1835 42.8839 47.1835ZM67.4927 46.0128C65.7691 45.6246 66.0929 43.8041 61.3307 42.6328C59.872 42.324 60.3902 40.0386 61.8401 40.3898C66.866 41.6285 70.6453 45.2432 67.4927 46.0128ZM42.8827 58.9022C36.1564 56.9587 61.4455 46.1153 68.4103 55.8917C69.3141 57.0688 67.4599 58.476 66.5745 57.276C66.4327 57.0929 63.2877 53.1515 55.9345 54.2045C47.1855 55.4953 44.2058 58.6922 42.8827 58.9022ZM42.8839 70.621C39.3826 69.3583 44.129 66.9668 49.2812 65.1348C50.6862 64.6438 51.4318 66.8666 50.0068 67.3172C44.9517 68.9833 44.2178 70.3541 42.8839 70.621ZM67.4927 69.4503C65.5582 69.017 64.6834 64.9265 55.9353 65.9232C54.4676 66.1456 54.1257 63.8379 55.6107 63.6457C64.6679 62.2872 71.2995 68.4873 67.4927 69.4503ZM55.7259 99.919H14.7103C14.4052 99.919 14.1126 99.7979 13.8969 99.5821C13.6812 99.3664 13.5601 99.0739 13.5601 98.7688C13.5601 98.4638 13.6812 98.1712 13.8969 97.9555C14.1126 97.7398 14.4052 97.6186 14.7103 97.6186H55.7259C57.2062 97.597 57.2268 99.941 55.7259 99.919ZM136.585 99.919H62.7571C62.4521 99.919 62.1595 99.7979 61.9438 99.5821C61.7281 99.3664 61.6069 99.0739 61.6069 98.7688C61.6069 98.4638 61.7281 98.1712 61.9438 97.9555C62.1595 97.7398 62.4521 97.6186 62.7571 97.6186H136.585C138.056 97.597 138.093 99.941 136.585 99.919Z" fill="black"/>
<path d="M75.0618 101.134C80.4249 101.226 80.424 109.203 75.0615 109.294C69.6987 109.202 69.6996 101.225 75.0618 101.134Z" fill="#0091B8"/>
<path d="M63.0164 122.185C62.3625 122.187 61.8343 121.634 61.8662 120.982C62.2834 117.03 60.6386 114.547 62.596 114.036C63.2141 113.946 63.8065 114.384 63.8959 115.014C63.9123 115.133 64.3072 117.969 64.1642 121.087C64.1507 121.382 64.0239 121.661 63.8101 121.866C63.5964 122.07 63.3121 122.184 63.0164 122.185ZM95.5696 133.903H54.554C53.378 133.938 52.9667 132.222 54.0389 131.725C54.0829 131.703 58.4874 129.468 60.6284 126.256C61.4089 125.525 61.1423 122.79 62.8737 123.099C66.0088 124.516 60.0729 130.762 58.5164 131.603H91.6072C90.2103 130.556 88.6734 129.17 87.5818 127.532C85.1909 123.738 85.369 113.065 87.5291 114.037C87.831 114.08 88.1035 114.242 88.2866 114.486C88.4697 114.729 88.5484 115.036 88.5055 115.338C88.1976 117.5 87.7766 123.678 89.4955 126.256C91.6368 129.469 96.041 131.703 96.0849 131.725C97.1534 132.218 96.75 133.942 95.5696 133.903Z" fill="black"/>
<path d="M107.861 17.8535C103.174 17.492 105.401 13.2536 103.173 13.166C100.957 13.2384 103.159 17.5022 98.4852 17.8535C96.9677 17.8315 96.963 20.2198 98.4855 20.1973C100.424 20.1973 102.001 21.7743 102.001 23.7129C101.979 25.2305 104.367 25.2352 104.345 23.7129C104.345 21.7743 105.922 20.1973 107.861 20.1973C109.378 20.2195 109.383 17.8313 107.861 17.8535Z" fill="black"/>
<path d="M38.7199 130.354C34.0333 129.992 36.2607 125.754 34.0324 125.666C31.8167 125.738 34.0186 130.002 29.3446 130.354C27.827 130.331 27.8224 132.72 29.3449 132.697C31.2835 132.697 32.8605 134.274 32.8605 136.213C32.8383 137.73 35.2266 137.735 35.2043 136.213C35.2043 134.274 36.7813 132.697 38.7199 132.697C40.2375 132.72 40.2422 130.331 38.7199 130.354Z" fill="black"/>
<path d="M118.918 142.027C118.608 142.027 118.309 141.903 118.09 141.683C117.87 141.464 117.746 141.166 117.746 140.855V134.995C117.746 134.685 117.87 134.386 118.09 134.167C118.309 133.947 118.608 133.823 118.918 133.823C119.229 133.823 119.527 133.947 119.747 134.167C119.967 134.386 120.09 134.685 120.09 134.995V140.855C120.09 141.166 119.967 141.464 119.747 141.683C119.527 141.903 119.229 142.027 118.918 142.027Z" fill="black"/>
<path d="M121.848 139.097H115.989C115.678 139.097 115.38 138.973 115.16 138.754C114.94 138.534 114.817 138.236 114.817 137.925C114.817 137.614 114.94 137.316 115.16 137.096C115.38 136.877 115.678 136.753 115.989 136.753H121.848C123.367 136.731 123.37 139.119 121.848 139.097ZM33.3715 24.8391C33.0607 24.8391 32.7626 24.7156 32.5428 24.4959C32.3231 24.2761 32.1996 23.978 32.1996 23.6672V17.8079C32.1996 17.4971 32.3231 17.199 32.5428 16.9792C32.7626 16.7595 33.0607 16.636 33.3715 16.636C33.6823 16.636 33.9803 16.7595 34.2001 16.9792C34.4199 17.199 34.5433 17.4971 34.5433 17.8079V23.6672C34.5433 23.978 34.4199 24.2761 34.2001 24.4959C33.9803 24.7156 33.6823 24.8391 33.3715 24.8391Z" fill="black"/>
<path d="M36.3011 21.9094H30.4418C30.131 21.9094 29.8329 21.786 29.6131 21.5662C29.3933 21.3464 29.2699 21.0483 29.2699 20.7375C29.2699 20.4267 29.3933 20.1287 29.6131 19.9089C29.8329 19.6891 30.131 19.5657 30.4418 19.5657H36.3011C37.8199 19.5434 37.8231 21.9317 36.3011 21.9094ZM43.4212 124.55C41.141 124.582 41.141 121.003 43.4214 121.035C45.701 121.003 45.7013 124.582 43.4212 124.55ZM126.038 128.066C124.52 128.088 124.517 125.704 126.035 125.722C126.856 126.046 133.669 124.079 135.044 120.902C135.789 119.578 137.856 120.778 137.07 122.082C135.238 126.112 127.398 128.43 126.038 128.066ZM137.079 119.828C136.368 119.834 135.804 119.179 135.919 118.476C136.257 116.297 135.513 114.477 135.506 114.459C134.902 113.074 137.086 112.14 137.663 113.543C137.705 113.641 138.68 115.97 138.236 118.836C138.193 119.112 138.053 119.363 137.84 119.545C137.628 119.727 137.359 119.827 137.079 119.828ZM132.93 134.983C131.552 135.017 131.339 132.877 132.721 132.659C137.474 132.072 141.724 125.434 141.414 122.39C141.381 121.747 141.873 121.194 142.515 121.156C144.772 121.145 144.116 126.07 139.802 131.191C136.939 134.332 133.311 134.932 132.93 134.983ZM23.5341 128.066C23.175 128.414 15.9987 126.781 13.7493 123.757C12.6958 122.664 14.4351 121.032 15.4602 122.156C17.2725 124.634 23.4732 126.036 23.5341 125.722C25.0517 125.699 25.0567 128.089 23.5341 128.066ZM13.0582 121.762C12.8292 121.762 12.6053 121.695 12.4141 121.569C12.2228 121.443 12.0725 121.264 11.9818 121.054C10.3476 117.271 11.8456 113.692 11.9103 113.542C12.4904 112.137 14.6838 113.076 14.0642 114.465C14.0545 114.488 12.909 117.29 14.1334 120.125C14.4785 120.875 13.8779 121.777 13.0582 121.762ZM16.6385 134.983C16.2709 134.949 12.6187 134.32 9.76607 131.191C5.44478 126.069 4.79117 121.112 7.06373 121.151C7.37234 121.172 7.66019 121.314 7.86447 121.546C8.06875 121.779 8.17288 122.082 8.15416 122.391C7.86207 125.518 12.1303 132.069 16.8503 132.658C18.2232 132.879 18.0155 135.021 16.6385 134.983ZM110.805 30.8001C109.755 30.8379 109.204 29.3857 110.054 28.728L117.085 22.8686C117.26 22.7225 117.474 22.6307 117.7 22.6044C117.927 22.578 118.156 22.6183 118.36 22.7204L122.2 24.6405C127.855 18.2634 124.727 17.9918 132.443 21.0838L135.509 13.9319C135.569 13.7902 135.657 13.6619 135.767 13.5543C135.877 13.4466 136.007 13.3618 136.15 13.3046C136.293 13.2475 136.446 13.2191 136.6 13.2212C136.754 13.2232 136.906 13.2557 137.047 13.3167C137.189 13.3772 137.317 13.4651 137.424 13.5752C137.532 13.6854 137.617 13.8156 137.674 13.9585C137.731 14.1014 137.759 14.2541 137.757 14.408C137.755 14.5619 137.723 14.7139 137.662 14.8553L134.147 23.0584C134.027 23.3397 133.801 23.5627 133.518 23.6798C133.236 23.7969 132.919 23.7988 132.635 23.6851L127.583 21.6642C121.992 28.0026 124.663 28.5425 117.997 25.1599C117.72 25.2803 110.996 31.3079 110.805 30.8001ZM29.9458 33.1439C29.7279 33.1442 29.5143 33.0838 29.3289 32.9694C29.1435 32.8549 28.9937 32.691 28.8963 32.4961L25.7044 26.1126C18.9331 26.255 20.8617 26.2791 20.5696 20.2533H17.054C16.8197 20.2532 16.5909 20.183 16.3969 20.0517C16.203 19.9205 16.0527 19.7341 15.9656 19.5167L13.6218 13.6574C13.0371 12.2541 15.254 11.3687 15.7983 12.7864L17.8473 17.9092C24.5663 17.7698 22.6089 17.7622 22.913 23.7686H26.4287C26.6463 23.7686 26.8597 23.8292 27.0448 23.9436C27.2299 24.058 27.3796 24.2217 27.4769 24.4164L30.9925 31.4476C31.393 32.2 30.7907 33.1629 29.9458 33.1439Z" fill="black"/>
<path d="M70.212 14.4528C76.3116 13.5744 77.7718 22.6228 71.7061 23.7076C65.6068 24.586 64.147 15.5376 70.212 14.4528Z" fill="black"/>
<path d="M52.2108 26.1127C51.9877 26.1128 51.7692 26.0492 51.581 25.9294C51.3927 25.8096 51.2426 25.6386 51.1482 25.4365L49.5782 22.0729C48.9164 20.7062 51.0776 19.6931 51.7022 21.0821L53.2722 24.4454C53.6455 25.1971 53.0434 26.1311 52.2108 26.1127Z" fill="black"/>
<path d="M49.2108 19.6907C48.0582 20.4815 43.4498 8.29044 42.9447 7.85861C42.8135 7.5768 42.7995 7.25443 42.9058 6.9623C43.0121 6.67017 43.23 6.43218 43.5116 6.3006C44.0976 6.02609 44.7963 6.28068 45.0691 6.8672L50.2722 18.0235C50.6454 18.7752 50.0437 19.7095 49.2108 19.6907ZM87.3664 24.9413C86.5754 24.9542 85.9804 24.1193 86.2625 23.3748L87.5516 19.7654C88.0435 18.3278 90.2911 19.1285 89.7591 20.5538L88.47 24.1632C88.3887 24.3908 88.2391 24.5878 88.0415 24.7271C87.8439 24.8664 87.6082 24.9412 87.3664 24.9413ZM90.425 16.3869C89.6343 16.3989 89.039 15.5657 89.3211 14.821L92.1219 6.96915C92.6106 5.53156 94.8617 6.33019 94.3294 7.75636L91.5286 15.6082C91.4474 15.8359 91.2977 16.033 91.1002 16.1724C90.9026 16.3118 90.6668 16.3867 90.425 16.3869ZM111.976 112.81H54.5539C54.2489 112.81 53.9563 112.689 53.7406 112.473C53.5249 112.257 53.4037 111.965 53.4037 111.659C53.4037 111.354 53.5249 111.062 53.7406 110.846C53.9563 110.63 54.2489 110.509 54.5539 110.509H111.976C113.451 110.488 113.48 112.832 111.976 112.81Z" fill="black"/>
<path d="M82.679 76.5032C77.9915 72.9876 75.6477 39.0032 75.6477 39.0032C75.6477 39.0032 73.304 72.9876 68.6165 76.5032C63.929 80.0188 61.5852 81.1907 61.5852 81.1907C61.5852 81.1907 65.1008 83.5344 69.7883 87.0501C74.4758 90.5657 75.6477 92.9094 75.6477 92.9094C75.6477 92.9094 76.8196 90.5657 81.5071 87.0501C86.1946 83.5344 89.7102 81.1907 89.7102 81.1907C89.7102 81.1907 87.3665 80.0188 82.679 76.5032Z" fill="#8AC9DD"/>
<path d="M124.866 95.2316H25.2571C24.952 95.2316 24.6595 95.1104 24.4437 94.8947C24.228 94.679 24.1069 94.3865 24.1069 94.0814V47.2064C23.83 46.2563 28.7917 43.3466 29.254 42.7703C30.437 41.8671 31.8398 43.7262 30.6342 44.6107L26.4067 47.7812V92.9312H123.716V48.8541L119.365 44.5035C118.297 43.4716 119.951 41.8006 120.991 42.8775C121.329 43.3791 126.306 47.7273 126.016 48.3777V94.0811C126.016 94.2322 125.986 94.3818 125.929 94.5214C125.871 94.6609 125.786 94.7878 125.68 94.8947C125.573 95.0015 125.446 95.0863 125.307 95.1441C125.167 95.2019 125.017 95.2317 124.866 95.2316ZM47.5227 112.81H39.3196C37.8295 112.831 37.8254 110.487 39.3196 110.509H47.5227C49.0127 110.488 49.0168 112.832 47.5227 112.81ZM101.429 139.802H47.5227C47.3665 139.802 47.2118 139.772 47.0675 139.712C46.9232 139.652 46.7921 139.564 46.6816 139.454C46.5712 139.344 46.4835 139.212 46.4238 139.068C46.364 138.924 46.3332 138.769 46.3332 138.613C46.3332 134.726 49.4952 131.564 53.3821 131.564H95.5696C100.678 131.046 104.856 139.137 101.429 139.802ZM48.8657 137.423H100.086C99.5589 135.423 97.7337 133.943 95.5696 133.943H53.3821C51.2179 133.943 49.3927 135.423 48.8657 137.423Z" fill="black"/>
<path d="M75.6477 95.0318C74.1969 95.2439 68.0364 82.35 57.6849 81.8479C57.3802 81.8359 57.0926 81.7034 56.8855 81.4796C56.6784 81.2557 56.5687 80.9588 56.5804 80.654C56.6056 80.0201 57.1347 79.544 57.774 79.5495C65.2019 79.8367 71.3967 86.3312 74.4975 90.2892V38.0936C67.2137 21.5031 37.3722 37.3685 31.0945 41.964V53.0658C31.1285 54.559 28.7633 54.5573 28.7941 53.0658C29.0349 52.4851 28.2336 40.4353 29.2921 40.3995C29.8543 40.0134 43.2079 30.9123 57.2059 28.4953C71.8745 26.415 76.6643 36.8578 76.7973 37.8305L76.7976 93.8825C76.8061 94.5062 76.27 95.04 75.6477 95.0318ZM29.9446 89.3722C29.3302 89.3833 28.7812 88.8413 28.7947 88.222V57.0856C28.7727 55.6023 31.117 55.5868 31.0951 57.0856V86.6918C34.8418 85.6052 45.0146 82.6483 52.9951 80.2644C53.2846 80.1859 53.5934 80.2237 53.8555 80.3697C54.1176 80.5156 54.3124 80.7581 54.3982 81.0456C54.4841 81.3331 54.4543 81.6427 54.3151 81.9085C54.176 82.1743 53.9385 82.3752 53.6534 82.4684C43.2336 85.5246 30.7039 89.2975 29.9446 89.3722Z" fill="black"/>
<path d="M134.246 79.9321L128.797 65.7648C128.731 65.5936 128.63 65.4381 128.5 65.3083L125.877 62.6854C125.105 61.8612 123.605 62.4756 123.638 63.607L123.586 76.176L121.411 70.1959C121.338 69.9952 121.217 69.8153 121.059 69.6719C120.901 69.5285 120.71 69.4259 120.503 69.373C119.193 68.9719 115.604 72.8335 115.351 77.6748C115.351 80.2116 115.802 81.9935 116.187 83.0543C110.353 86.8108 110.882 98.3115 115.351 102.224V117.379C115.351 117.725 115.488 118.056 115.731 118.302C115.974 118.548 116.304 118.687 116.65 118.691C116.904 118.584 132.037 119.196 131.648 118.451C132.426 118.855 131.888 102.592 132.037 102.348C132.381 98.7873 133.451 89.1926 134.361 86.5427C135.099 84.3938 135.058 82.054 134.246 79.9321Z" fill="#F8CF7C"/>
<path d="M121.338 118.691C120.992 118.687 120.662 118.548 120.419 118.302C120.176 118.056 120.04 117.725 120.04 117.379V104.121C120.04 103.019 119.696 101.949 119.047 101.058C117.9 99.4838 116.524 96.7105 116.524 92.4628C116.524 88.8276 117.817 86.3324 119.14 84.7313C122.029 80.9558 118.011 77.0532 122.041 71.9268C121.633 70.7107 121.043 68.4259 119.312 69.6593C119.15 69.8016 115.352 73.2001 115.352 77.6746C115.352 80.2111 115.802 81.9929 116.188 83.0538C110.353 86.8102 110.882 98.311 115.352 102.224V117.379C115.352 117.724 115.488 118.056 115.731 118.301C115.974 118.547 116.305 118.687 116.65 118.69C116.933 118.644 130.685 118.92 130.95 118.786L121.338 118.691Z" fill="#D0AD67"/>
<path d="M122.523 81.1908L126.411 90.7785C126.572 91.2085 127.21 91.0931 127.21 90.6337L126.038 75.6496C126.038 75.2309 125.487 75.0783 125.272 75.4371L122.625 79.8481C122.56 79.9562 122.478 81.073 122.523 81.1908Z" fill="black"/>
<path d="M134.246 79.9321L128.797 65.7648C128.731 65.5936 128.63 65.4381 128.5 65.3083L125.877 62.6854C125.105 61.8612 123.605 62.4756 123.638 63.607L123.632 65.1273C123.823 65.3247 124.021 65.5011 124.109 65.7648L129.559 79.9321C130.371 82.054 130.412 84.3938 129.674 86.5427C128.764 89.1926 127.694 98.7873 127.35 102.347V117.519C127.36 118.139 126.883 118.71 126.262 118.786C127.021 118.666 131.145 119.189 131.648 118.451C132.438 118.839 131.881 102.603 132.037 102.348C132.382 98.7873 133.452 89.1926 134.362 86.5427C135.099 84.3938 135.058 82.054 134.246 79.9321Z" fill="#FFEECC"/>
<path d="M130.726 118.831C130.723 118.835 116.656 118.687 116.65 118.69C116.305 118.686 115.974 118.547 115.731 118.301C115.488 118.055 115.352 117.724 115.352 117.378V102.222C110.862 98.2814 110.374 86.7917 116.187 83.054C115.801 81.9938 115.352 80.2125 115.352 77.6754C115.609 72.8247 119.185 68.9804 120.503 69.3736C121.662 69.329 123.117 75.4623 123.585 76.1746L123.637 63.608C123.605 62.4794 125.103 61.858 125.876 62.6857C126.138 62.9813 128.764 65.4346 128.798 65.7674C130.018 70.2982 136.658 81.7878 134.356 86.5442C133.655 87.6938 134.276 91.2756 132.072 91.0732C129.819 90.6522 131.893 86.2527 131.88 85.6761C132.421 84.117 132.392 82.417 131.799 80.877L126.45 66.9692L126.247 66.7659L126.178 83.5401C126.177 83.848 126.067 84.1456 125.869 84.3809C125.67 84.6161 125.395 84.774 125.092 84.8268C124.788 84.8789 124.476 84.823 124.21 84.6688C123.944 84.5146 123.74 84.2718 123.634 83.9828L119.698 73.1561C115.306 78.8992 120.817 83.6045 118.427 84.7055C113.218 87.1726 113.57 97.6656 117.458 100.597C118.507 100.414 117.769 115.578 117.975 116.08L129.415 116.194C129.476 108.026 128.992 102.388 130.529 92.7038C130.741 91.0266 133.387 91.3802 133.126 93.0683C131.641 101.856 132.079 109.814 132.037 117.519C132.051 118.222 131.431 118.845 130.726 118.831Z" fill="black"/>
<path d="M38.7923 92.4642C38.7923 98.0892 36.3782 101.136 35.2767 102.226V117.378C35.2767 118.093 34.7024 118.679 33.9759 118.691L19.9134 118.831C19.2024 118.848 18.5751 118.219 18.5892 117.519V102.343C18.2962 99.2728 17.4525 91.6556 16.6439 87.9525C15.8013 85.251 15.2836 82.6014 16.3863 79.9369L20.4759 65.5931C20.5462 65.3822 20.6517 65.183 20.8157 65.0306L24.3314 61.515C25.0236 60.7741 26.3947 61.1854 26.5345 62.1947C26.664 62.236 26.5893 65.5955 26.652 65.7103L26.9095 76.5502L29.2181 70.1986C29.292 69.9977 29.4139 69.8179 29.5732 69.6749C29.7326 69.5319 29.9244 69.4301 30.1321 69.3783C31.4385 68.9743 35.025 72.8344 35.277 77.6749C35.2767 80.2064 34.8314 81.9994 34.4446 83.0541C36.0149 84.2611 38.7923 87.1439 38.7923 92.4642Z" fill="#F8CF7C"/>
<path d="M29.1734 118.745C29.519 118.742 29.8493 118.602 30.0925 118.357C30.3356 118.111 30.472 117.779 30.4719 117.434V104.176C30.4719 103.073 30.8149 102.004 31.4645 101.113C32.6117 99.5383 33.9875 96.765 33.9875 92.5173C34.2418 85.9838 29.7351 85.1971 30.2495 80.669C30.7783 78.1987 30.4593 74.7346 28.7727 72.9871L29.9445 70.6433C30.0928 70.2358 29.5244 69.579 29.9445 69.4715C31.318 68.9678 34.8957 72.8699 35.16 77.7285C35.1597 80.2653 34.7094 82.0471 34.3235 83.108C40.158 86.8647 39.6292 98.3649 35.1597 102.278V117.433C35.1597 117.778 35.0233 118.11 34.7802 118.356C34.537 118.601 34.2068 118.741 33.8612 118.744C33.5788 118.698 19.8263 118.975 19.562 118.84L29.1734 118.745Z" fill="#D0AD67"/>
<path d="M27.6009 81.1907L24.4324 90.501C24.271 90.9311 23.6332 90.8156 23.6332 90.3563L24.8051 75.3721C24.8051 74.9534 25.3564 74.8008 25.5715 75.1597L28.2181 79.5706C28.2829 79.6784 27.6451 81.073 27.6009 81.1907Z" fill="black"/>
<path d="M23.8861 118.175C24.0736 118.363 24.3196 118.468 24.5775 118.503C23.8193 118.393 19.7077 118.903 19.1986 118.175C18.0466 117.69 18.7846 103.462 18.5889 102.343C18.2962 99.2727 17.4525 91.6555 16.6439 87.9524C16.3981 85.0593 15.3032 82.4578 16.5973 79.6555L22.0462 65.4876C22.1165 65.3118 22.2103 65.1594 22.3392 65.0305L24.9642 62.4055C25.3737 61.9919 26.0277 61.9069 26.5345 62.1946C26.6449 62.2189 26.6028 65.6074 26.6517 65.7102L21.2845 79.6555C20.4759 81.7649 20.429 84.1204 21.1673 86.2649C22.0814 88.9133 23.1478 98.511 23.4993 102.073V117.238C23.4993 117.589 23.6282 117.929 23.8861 118.175Z" fill="#FFEECC"/>
<path d="M19.9019 118.83C19.197 118.844 18.5768 118.224 18.5906 117.519V102.348C18.42 100.635 18.2317 98.9238 18.0257 97.2147C18.0051 97.0437 18.0183 96.8704 18.0646 96.7045C18.111 96.5387 18.1896 96.3836 18.2959 96.2482C18.4023 96.1127 18.5342 95.9996 18.6843 95.9152C18.8344 95.8308 18.9997 95.7768 19.1706 95.7563C19.8846 95.6681 20.5429 96.1819 20.629 96.9012C21.5534 102.427 21.1286 111.188 21.2132 116.195L32.6528 116.08C32.8737 115.507 32.0944 100.45 33.1795 100.59C37.0828 97.6066 37.3886 87.1609 32.1931 84.702C29.8168 83.5887 35.322 78.9132 30.9304 73.1567L26.9935 83.9833C26.8894 84.271 26.6881 84.5132 26.4242 84.668C26.1604 84.8229 25.8508 84.8806 25.5489 84.8312C25.247 84.7818 24.9719 84.6283 24.7712 84.3975C24.5705 84.1666 24.4569 83.8728 24.4499 83.567L24.019 65.5339L22.9083 66.6445L18.8651 80.7677C17.4966 84.9402 19.4323 86.1425 19.8726 91.1646C20.1579 92.8345 17.5116 93.2511 17.2807 91.5627C16.6989 86.3517 14.7354 84.4488 16.3807 79.9354L20.4805 65.596C20.5417 65.3821 20.6563 65.1876 20.8136 65.0294L24.3292 61.5138C24.5111 61.3326 24.7419 61.2086 24.9934 61.1571C25.2448 61.1056 25.5058 61.1287 25.7443 61.2237C25.9825 61.3193 26.1875 61.4826 26.3338 61.6934C26.4802 61.9043 26.5616 62.1534 26.5678 62.41L26.9059 76.5498C27.3899 75.8145 28.9514 69.3328 30.1239 69.3741C31.4331 68.9728 35.0232 72.8306 35.276 77.6757C35.2757 80.2131 34.826 81.9944 34.4402 83.0546C40.272 86.8084 39.747 98.3083 35.2757 102.222V117.379C35.2757 117.724 35.1394 118.056 34.8962 118.302C34.6531 118.547 34.3229 118.687 33.9773 118.69C33.9717 118.694 19.9095 118.828 19.9019 118.83ZM75.0618 109.294C69.7001 109.198 69.701 101.23 75.062 101.134C80.4234 101.231 80.4225 109.198 75.0618 109.294ZM75.0618 103.435C72.7535 103.403 72.7537 107.026 75.062 106.994C77.3701 107.026 77.3703 103.402 75.0618 103.435ZM70.9602 23.7689C64.8005 23.6587 64.8002 14.5034 70.9605 14.3939C73.5448 14.3939 75.6477 16.4968 75.6477 19.0814C75.9357 20.8966 73.2524 21.2391 73.2855 19.3594C73.463 17.9801 72.3503 16.7282 70.9599 16.7376C67.896 16.7537 67.8952 21.4093 70.9602 21.4251C71.818 21.3352 72.9035 20.7589 73.3614 21.8666C73.9116 23.3133 72.0559 23.7932 70.9602 23.7689ZM103.173 24.8848C100.957 24.8124 103.16 20.5485 98.4855 20.1973C98.1747 20.1973 97.8766 20.0738 97.6568 19.854C97.4371 19.6343 97.3136 19.3362 97.3136 19.0254C97.386 16.8097 101.65 19.0119 102.001 14.3379C101.979 12.8203 104.367 12.8156 104.345 14.3382C104.706 19.0248 108.945 16.7974 109.032 19.0254C108.96 21.2411 104.696 19.0392 104.345 23.7132C104.345 24.0239 104.221 24.3219 104.002 24.5416C103.782 24.7614 103.484 24.8848 103.173 24.8848ZM101.998 19.0254C102.443 19.3601 102.839 19.7558 103.173 20.2008C103.508 19.7557 103.904 19.36 104.349 19.0254C103.904 18.6909 103.508 18.2952 103.173 17.85C102.839 18.295 102.443 18.6907 101.998 19.0254ZM34.0347 137.382C31.8213 137.313 34.0189 133.044 29.3472 132.695C29.0364 132.695 28.7383 132.571 28.5186 132.352C28.2988 132.132 28.1753 131.834 28.1753 131.523C28.2483 129.308 32.5119 131.509 32.8628 126.836C32.8403 125.317 35.2291 125.314 35.2066 126.836C35.0027 129.645 38.3909 129.728 37.5752 131.549C36.5721 133.11 34.7645 131.28 34.0329 130.35C33.6989 130.794 33.3038 131.189 32.8593 131.523C33.3854 131.919 33.8418 132.399 34.2096 132.945C35.1497 132.625 36.084 133.714 35.5945 134.599C34.9945 135.525 35.5866 137.347 34.0347 137.382Z" fill="black"/>
</svg>
