<svg width="150" height="150" viewBox="0 0 150 150" fill="none" xmlns="http://www.w3.org/2000/svg">
<path d="M122.555 33.8613V41.5723H26.9355V33.8613C26.9355 30.627 29.5605 28.002 32.7949 28.002H53.0098V28.2012C53.0098 30.0879 54.5332 31.623 56.4258 31.623H68.2559C69.0586 31.623 69.7969 32.0566 70.1777 32.7598L70.2715 32.9297C70.6582 33.6328 71.3906 34.0664 72.1934 34.0664H79.125C79.957 34.0664 80.7188 33.5918 81.0879 32.8418C81.2694 32.4762 81.5493 32.1685 81.896 31.9532C82.2427 31.738 82.6426 31.6236 83.0508 31.623H93.5742C95.4609 31.623 96.9902 30.0879 96.9902 28.2012V28.002H116.695C119.93 28.002 122.555 30.627 122.555 33.8613Z" fill="#72C2E9"/>
<path d="M101.092 28.002V28.2012C101.092 32.3496 97.7168 35.7246 93.5742 35.7246H84.1055C82.9336 37.2539 81.1113 38.168 79.125 38.168H72.1934C70.2246 38.168 68.3965 37.2539 67.2129 35.7246H56.4258C52.2832 35.7246 48.9082 32.3496 48.9082 28.2012V28.002H53.0098V28.2012C53.0098 30.0879 54.5332 31.623 56.4258 31.623H68.2559C69.0586 31.623 69.7969 32.0566 70.1777 32.7598L70.2715 32.9297C70.6582 33.6328 71.3906 34.0664 72.1934 34.0664H79.125C79.957 34.0664 80.7187 33.5918 81.0879 32.8418C81.2694 32.4762 81.5493 32.1685 81.896 31.9532C82.2427 31.738 82.6426 31.6236 83.0508 31.623H93.5742C95.4609 31.623 96.9902 30.0879 96.9902 28.2012V28.002H101.092Z" fill="#4BA5C8"/>
<path d="M96.9902 13.1426V28.2012C96.9902 29.1087 96.6297 29.9791 95.988 30.6208C95.3463 31.2625 94.4759 31.623 93.5684 31.623H83.0508C82.6417 31.6234 82.2409 31.7382 81.8936 31.9544C81.5463 32.1706 81.2664 32.4796 81.0855 32.8465C80.9048 33.2122 80.6255 33.5203 80.2791 33.7358C79.9327 33.9513 79.533 34.0658 79.125 34.0664H72.1934C71.8012 34.0664 71.4161 33.9613 71.0784 33.7618C70.7407 33.5624 70.4626 33.2761 70.2732 32.9326L70.1766 32.7568C69.9872 32.4134 69.7091 32.127 69.3714 31.9276C69.0337 31.7282 68.6486 31.623 68.2564 31.623H56.4258C55.5198 31.623 54.6509 31.2631 54.0103 30.6225C53.3697 29.9819 53.0098 29.113 53.0098 28.207V13.1426C53.0098 11.2559 54.5332 9.72656 56.4258 9.72656H59.5723V22.8281C59.5723 23.2943 59.7575 23.7414 60.0871 24.0711C60.4168 24.4007 60.8639 24.5859 61.3301 24.5859H68.8535C69.7002 24.5859 70.4209 25.1279 70.7508 25.9078C71.0121 26.5284 71.4506 27.0582 72.0116 27.4307C72.5725 27.8032 73.2309 28.0019 73.9043 28.002H76.582C77.2551 28.0011 77.913 27.8022 78.4737 27.4299C79.0344 27.0576 79.4731 26.5284 79.735 25.9084C80.0648 25.1285 80.7856 24.5859 81.6328 24.5859H89.1445C89.6107 24.5859 90.0578 24.4007 90.3875 24.0711C90.7171 23.7414 90.9023 23.2943 90.9023 22.8281V9.72656H93.5742C94.4802 9.72656 95.3491 10.0865 95.9897 10.7271C96.6303 11.3677 96.9902 12.2366 96.9902 13.1426Z" fill="#EFEFEF"/>
<path d="M35.2389 63.3053H8.73108L26.9356 41.5735H46.1614L35.2389 63.3053Z" fill="#FC5D3D"/>
<path d="M61.7461 63.3053H35.2389L46.1614 41.5735H65.3871L61.7461 63.3053Z" fill="#F0C020"/>
<path d="M88.2539 63.3053H61.7461L65.3871 41.5735H84.6129L88.2539 63.3053Z" fill="#FC5D3D"/>
<path d="M114.761 63.3053H88.2539L84.6129 41.5735H103.839L114.761 63.3053Z" fill="#F0C020"/>
<path d="M141.269 63.3053H114.761L103.839 41.5735H123.064L141.269 63.3053Z" fill="#FC5D3D"/>
<path d="M35.2383 63.3047V68.1445C35.2383 76.9512 26.7422 83.4082 18.1582 80.8359C12.7031 79.1953 8.73047 74.1328 8.73047 68.1445V63.3047H35.2383Z" fill="#B25035"/>
<path d="M61.7461 63.3047V68.1445C61.7461 75.4336 55.834 81.3984 48.4922 81.3984C41.1738 81.3984 35.2383 75.4629 35.2383 68.1445V63.3047H61.7461Z" fill="#E8A61E"/>
<path d="M88.2539 63.3047V68.1445C88.2539 75.4336 82.3418 81.3984 75 81.3984C67.6816 81.3984 61.7461 75.4629 61.7461 68.1445V63.3047H88.2539Z" fill="#B25035"/>
<path d="M114.762 63.3047V68.1445C114.762 75.4336 108.85 81.3984 101.508 81.3984C94.1895 81.3984 88.2539 75.4629 88.2539 68.1445V63.3047H114.762Z" fill="#E8A61E"/>
<path d="M141.27 63.3047V68.1445C141.27 74.0977 137.326 79.1836 131.842 80.8359C123.275 83.4023 114.762 76.9688 114.762 68.1445V63.3047H141.27Z" fill="#B25035"/>
<path d="M131.842 80.8359V143.947C131.842 144.724 131.533 145.469 130.984 146.019C130.434 146.568 129.689 146.877 128.912 146.877H21.0879C20.3109 146.877 19.5657 146.568 19.0163 146.019C18.4669 145.469 18.1582 144.724 18.1582 143.947V80.8359C26.7422 83.4082 35.2383 76.9512 35.2383 68.1445C35.2383 75.4629 41.1738 81.3984 48.4922 81.3984C55.834 81.3984 61.7461 75.4336 61.7461 68.1445C61.7461 75.4629 67.6816 81.3984 75 81.3984C82.3418 81.3984 88.2539 75.4336 88.2539 68.1445C88.2539 75.4629 94.1894 81.3984 101.508 81.3984C108.85 81.3984 114.762 75.4336 114.762 68.1445C114.762 76.9688 123.275 83.4023 131.842 80.8359Z" fill="#72C2E9"/>
<path d="M124.225 96.6797V113.443C124.225 114.065 123.978 114.661 123.538 115.101C123.099 115.54 122.502 115.787 121.881 115.787H103.852C103.23 115.787 102.634 115.54 102.194 115.101C101.755 114.661 101.508 114.065 101.508 113.443V96.6797C101.508 96.0581 101.755 95.4619 102.194 95.0224C102.634 94.5829 103.23 94.3359 103.852 94.3359H121.881C122.502 94.3359 123.099 94.5829 123.538 95.0224C123.978 95.4619 124.225 96.0581 124.225 96.6797Z" fill="#EFEFEF"/>
<path d="M93.457 146.875H56.543V96.6797C56.543 96.0581 56.7899 95.4619 57.2294 95.0224C57.669 94.5829 58.2651 94.3359 58.8867 94.3359H91.1133C91.7349 94.3359 92.331 94.5829 92.7706 95.0224C93.2101 95.4619 93.457 96.0581 93.457 96.6797V146.875Z" fill="#F0C020"/>
<path d="M64.1601 117.318V104.297C64.1601 103.675 64.4071 103.079 64.8466 102.64C65.2862 102.2 65.8823 101.953 66.5039 101.953H83.4961C84.1177 101.953 84.7138 102.2 85.1534 102.64C85.5929 103.079 85.8398 103.675 85.8398 104.297V117.318C85.8398 117.94 85.5929 118.536 85.1534 118.975C84.7138 119.415 84.1177 119.662 83.4961 119.662H66.5039C65.8823 119.662 65.2862 119.415 64.8466 118.975C64.4071 118.536 64.1601 117.94 64.1601 117.318ZM48.4922 96.6797V113.443C48.4922 114.065 48.2453 114.661 47.8057 115.101C47.3662 115.54 46.77 115.787 46.1484 115.787H28.1191C27.4975 115.787 26.9014 115.54 26.4619 115.101C26.0223 114.661 25.7754 114.065 25.7754 113.443V96.6797C25.7754 96.0581 26.0223 95.4619 26.4619 95.0224C26.9014 94.5829 27.4975 94.3359 28.1191 94.3359H46.1484C46.77 94.3359 47.3662 94.5829 47.8057 95.0224C48.2453 95.4619 48.4922 96.0581 48.4922 96.6797Z" fill="#EFEFEF"/>
<path d="M90.9023 6.1875V22.8281C90.9023 23.2943 90.7171 23.7414 90.3875 24.0711C90.0578 24.4007 89.6107 24.5859 89.1445 24.5859H81.6328C80.7856 24.5859 80.0654 25.1279 79.735 25.9084C79.4731 26.5284 79.0344 27.0576 78.4737 27.4299C77.913 27.8022 77.2551 28.0011 76.582 28.002H73.9043C73.2309 28.0019 72.5725 27.8032 72.0116 27.4307C71.4506 27.0582 71.0121 26.5284 70.7508 25.9078C70.4209 25.1279 69.7002 24.5859 68.8535 24.5859H61.3301C60.8639 24.5859 60.4168 24.4007 60.0871 24.0711C59.7575 23.7414 59.5723 23.2943 59.5723 22.8281V6.1875C59.5723 5.7213 59.7575 5.27419 60.0871 4.94454C60.4168 4.61489 60.8639 4.42969 61.3301 4.42969H71.8242C72.7302 4.42969 73.5991 4.78959 74.2397 5.43022C74.8803 6.07084 75.2402 6.93972 75.2402 7.8457C75.2402 5.95898 76.7754 4.42969 78.6621 4.42969H89.1445C89.6107 4.42969 90.0578 4.61489 90.3875 4.94454C90.7171 5.27419 90.9023 5.7213 90.9023 6.1875Z" fill="#F0C020"/>
<path d="M131.842 80.8359V85.0723C125.484 86.5137 118.951 84.3047 114.756 79.3359C107.812 87.5449 95.2148 87.5625 88.2539 79.3301C81.2988 87.5625 68.6953 87.5508 61.7461 79.3301C54.8027 87.5449 42.2051 87.5625 35.2441 79.3359C31.0957 84.2519 24.5801 86.5312 18.1582 85.0781V80.8359C26.7422 83.4082 35.2383 76.9512 35.2383 68.1445C35.2383 75.4629 41.1738 81.3984 48.4922 81.3984C55.834 81.3984 61.7461 75.4336 61.7461 68.1445C61.7461 75.4629 67.6816 81.3984 75 81.3984C82.3418 81.3984 88.2539 75.4336 88.2539 68.1445C88.2539 75.4629 94.1894 81.3984 101.508 81.3984C108.85 81.3984 114.762 75.4336 114.762 68.1445C114.762 76.9688 123.275 83.4023 131.842 80.8359Z" fill="#4BA5C8"/>
<path d="M119.688 11.7369C117.503 11.0174 115.796 10.5521 114.654 5.63084C114.282 4.02712 111.989 4.03181 111.618 5.63084C110.501 10.4431 108.943 10.9582 106.584 11.7375C105.164 12.2068 105.161 14.2265 106.584 14.697C110.502 15.9914 110.946 17.9056 111.618 20.8031C111.991 22.4103 114.281 22.4097 114.654 20.8031C115.771 15.9914 117.414 15.4482 119.688 14.697C121.108 14.2271 121.111 12.2074 119.688 11.7369Z" fill="black"/>
<path d="M115.509 13.2656C114.647 13.875 113.874 14.6836 113.206 15.8672C112.649 14.9355 111.888 14.0566 110.763 13.2891C111.671 12.668 112.485 11.8184 113.177 10.5703C113.88 11.8359 114.683 12.6738 115.509 13.2656Z" fill="#F0C020"/>
<path d="M43.4162 11.7369C41.2312 11.0174 39.525 10.5521 38.3824 5.63084C38.0103 4.02712 35.7176 4.03181 35.3467 5.63084C34.2293 10.4431 32.6713 10.9582 30.3129 11.7375C28.8926 12.2068 28.8891 14.2265 30.3129 14.697C34.2305 15.9914 34.6746 17.9056 35.3467 20.8031C35.7199 22.4103 38.0098 22.4097 38.383 20.8031C39.4992 15.9914 41.1422 15.4482 43.4168 14.697C44.8365 14.2271 44.8395 12.2074 43.4162 11.7369Z" fill="black"/>
<path d="M39.2373 13.2656C38.376 13.875 37.6025 14.6836 36.9346 15.8672C36.3779 14.9355 35.6162 14.0566 34.4912 13.2891C35.3994 12.668 36.2139 11.8184 36.9053 10.5703C37.6084 11.8359 38.4111 12.6738 39.2373 13.2656Z" fill="#F0C020"/>
<path d="M38.4902 58.3008H29.6016C29.2131 58.3008 28.8405 58.1465 28.5658 57.8717C28.291 57.597 28.1367 57.2244 28.1367 56.8359C28.1367 56.4474 28.291 56.0748 28.5658 55.8001C28.8405 55.5254 29.2131 55.3711 29.6016 55.3711H38.4902C38.8787 55.3711 39.2513 55.5254 39.526 55.8001C39.8007 56.0748 39.9551 56.4474 39.9551 56.8359C39.9551 57.2244 39.8007 57.597 39.526 57.8717C39.2513 58.1465 38.8787 58.3008 38.4902 58.3008ZM23.7422 58.3008H21.9844C21.5959 58.3008 21.2233 58.1465 20.9486 57.8717C20.6739 57.597 20.5195 57.2244 20.5195 56.8359C20.5195 56.4474 20.6739 56.0748 20.9486 55.8001C21.2233 55.5254 21.5959 55.3711 21.9844 55.3711H23.7422C24.1307 55.3711 24.5033 55.5254 24.778 55.8001C25.0527 56.0748 25.207 56.4474 25.207 56.8359C25.207 57.2244 25.0527 57.597 24.778 57.8717C24.5033 58.1465 24.1307 58.3008 23.7422 58.3008Z" fill="#FFCBC3"/>
<path d="M62.8301 58.3008H38.4902C38.1017 58.3008 37.7291 58.1465 37.4544 57.8717C37.1797 57.597 37.0254 57.2244 37.0254 56.8359C37.0254 56.4474 37.1797 56.0748 37.4544 55.8001C37.7291 55.5254 38.1017 55.3711 38.4902 55.3711H62.8301C63.2186 55.3711 63.5912 55.5254 63.8659 55.8001C64.1406 56.0748 64.2949 56.4474 64.2949 56.8359C64.2949 57.2244 64.1406 57.597 63.8659 57.8717C63.5912 58.1465 63.2186 58.3008 62.8301 58.3008Z" fill="#F8E5B0"/>
<path d="M87.1699 58.3008H62.8301C62.4416 58.3008 62.069 58.1465 61.7943 57.8717C61.5196 57.597 61.3652 57.2244 61.3652 56.8359C61.3652 56.4474 61.5196 56.0748 61.7943 55.8001C62.069 55.5254 62.4416 55.3711 62.8301 55.3711H87.1699C87.5584 55.3711 87.931 55.5254 88.2057 55.8001C88.4804 56.0748 88.6348 56.4474 88.6348 56.8359C88.6348 57.2244 88.4804 57.597 88.2057 57.8717C87.931 58.1465 87.5584 58.3008 87.1699 58.3008Z" fill="#FFCBC3"/>
<path d="M111.51 58.3008H87.1699C86.7814 58.3008 86.4088 58.1465 86.1341 57.8717C85.8594 57.597 85.7051 57.2244 85.7051 56.8359C85.7051 56.4474 85.8594 56.0748 86.1341 55.8001C86.4088 55.5254 86.7814 55.3711 87.1699 55.3711H111.51C111.898 55.3711 112.271 55.5254 112.546 55.8001C112.82 56.0748 112.975 56.4474 112.975 56.8359C112.975 57.2244 112.82 57.597 112.546 57.8717C112.271 58.1465 111.898 58.3008 111.51 58.3008Z" fill="#F8E5B0"/>
<path d="M128.016 58.3008H111.51C111.121 58.3008 110.749 58.1465 110.474 57.8717C110.199 57.597 110.045 57.2244 110.045 56.8359C110.045 56.4474 110.199 56.0748 110.474 55.8001C110.749 55.5254 111.121 55.3711 111.51 55.3711H128.016C128.404 55.3711 128.777 55.5254 129.051 55.8001C129.326 56.0748 129.48 56.4474 129.48 56.8359C129.48 57.2244 129.326 57.597 129.051 57.8717C128.777 58.1465 128.404 58.3008 128.016 58.3008Z" fill="#FFCBC3"/>
<path d="M124.225 141.357H122.467C122.078 141.357 121.706 141.203 121.431 140.928C121.156 140.654 121.002 140.281 121.002 139.893C121.002 139.504 121.156 139.131 121.431 138.857C121.706 138.582 122.078 138.428 122.467 138.428H124.225C124.613 138.428 124.986 138.582 125.26 138.857C125.535 139.131 125.689 139.504 125.689 139.893C125.689 140.281 125.535 140.654 125.26 140.928C124.986 141.203 124.613 141.357 124.225 141.357ZM116.607 141.357H93.457C93.0685 141.357 92.6959 141.203 92.4212 140.928C92.1465 140.654 91.9922 140.281 91.9922 139.893C91.9922 139.504 92.1465 139.131 92.4212 138.857C92.6959 138.582 93.0685 138.428 93.457 138.428H116.607C116.996 138.428 117.368 138.582 117.643 138.857C117.918 139.131 118.072 139.504 118.072 139.893C118.072 140.281 117.918 140.654 117.643 140.928C117.368 141.203 116.996 141.357 116.607 141.357ZM56.543 141.357H33.3926C33.0041 141.357 32.6315 141.203 32.3568 140.928C32.0821 140.654 31.9277 140.281 31.9277 139.893C31.9277 139.504 32.0821 139.131 32.3568 138.857C32.6315 138.582 33.0041 138.428 33.3926 138.428H56.543C56.9315 138.428 57.3041 138.582 57.5788 138.857C57.8535 139.131 58.0078 139.504 58.0078 139.893C58.0078 140.281 57.8535 140.654 57.5788 140.928C57.3041 141.203 56.9315 141.357 56.543 141.357ZM27.5332 141.357H25.7754C25.3869 141.357 25.0143 141.203 24.7396 140.928C24.4649 140.654 24.3105 140.281 24.3105 139.893C24.3105 139.504 24.4649 139.131 24.7396 138.857C25.0143 138.582 25.3869 138.428 25.7754 138.428H27.5332C27.9217 138.428 28.2943 138.582 28.569 138.857C28.8437 139.131 28.998 139.504 28.998 139.893C28.998 140.281 28.8437 140.654 28.569 140.928C28.2943 141.203 27.9217 141.357 27.5332 141.357Z" fill="#C5E5FE"/>
<path d="M93.457 141.357H56.543C56.1545 141.357 55.7819 141.203 55.5072 140.928C55.2325 140.654 55.0781 140.281 55.0781 139.893C55.0781 139.504 55.2325 139.131 55.5072 138.857C55.7819 138.582 56.1545 138.428 56.543 138.428H93.457C93.8455 138.428 94.2181 138.582 94.4928 138.857C94.7675 139.131 94.9219 139.504 94.9219 139.893C94.9219 140.281 94.7675 140.654 94.4928 140.928C94.2181 141.203 93.8455 141.357 93.457 141.357Z" fill="#F8E5B0"/>
<path d="M64.1602 126.074C63.7717 126.074 63.3991 126.229 63.1244 126.503C62.8496 126.778 62.6953 127.151 62.6953 127.539C62.6953 127.928 62.8496 128.3 63.1244 128.575C63.3991 128.85 63.7717 129.004 64.1602 129.004H68.6906C69.0791 129.004 69.4517 128.85 69.7264 128.575C70.0011 128.3 70.1555 127.928 70.1555 127.539C70.1555 127.151 70.0011 126.778 69.7264 126.503C69.4517 126.229 69.0791 126.074 68.6906 126.074H64.1602ZM65.901 12.2719H68.6912C68.8836 12.2719 69.0741 12.234 69.2518 12.1603C69.4295 12.0867 69.591 11.9788 69.727 11.8428C69.863 11.7068 69.9709 11.5453 70.0446 11.3676C70.1182 11.1899 70.1561 10.9994 70.1561 10.807C70.1561 10.6146 70.1182 10.4242 70.0446 10.2464C69.9709 10.0687 69.863 9.90723 69.727 9.77121C69.591 9.63518 69.4295 9.52728 69.2518 9.45367C69.0741 9.38005 68.8836 9.34216 68.6912 9.34216H65.901C65.7086 9.34216 65.5181 9.38005 65.3404 9.45367C65.1627 9.52728 65.0012 9.63518 64.8652 9.77121C64.7292 9.90723 64.6213 10.0687 64.5476 10.2464C64.474 10.4242 64.4361 10.6146 64.4361 10.807C64.4361 10.9994 64.474 11.1899 64.5476 11.3676C64.6213 11.5453 64.7292 11.7068 64.8652 11.8428C65.0012 11.9788 65.1627 12.0867 65.3404 12.1603C65.5181 12.234 65.7086 12.2719 65.901 12.2719ZM65.901 18.5267H68.6912C69.0797 18.5267 69.4523 18.3724 69.727 18.0977C70.0017 17.823 70.1561 17.4504 70.1561 17.0619C70.1561 16.6734 70.0017 16.3008 69.727 16.0261C69.4523 15.7514 69.0797 15.597 68.6912 15.597H65.901C65.5125 15.597 65.1399 15.7514 64.8652 16.0261C64.5905 16.3008 64.4361 16.6734 64.4361 17.0619C64.4361 17.4504 64.5905 17.823 64.8652 18.0977C65.1399 18.3724 65.5125 18.5267 65.901 18.5267ZM81.7875 12.2719H84.5777C84.7701 12.2719 84.9606 12.234 85.1383 12.1603C85.316 12.0867 85.4775 11.9788 85.6135 11.8428C85.7496 11.7068 85.8575 11.5453 85.9311 11.3676C86.0047 11.1899 86.0426 10.9994 86.0426 10.807C86.0426 10.6146 86.0047 10.4242 85.9311 10.2464C85.8575 10.0687 85.7496 9.90723 85.6135 9.77121C85.4775 9.63518 85.316 9.52728 85.1383 9.45367C84.9606 9.38005 84.7701 9.34216 84.5777 9.34216H81.7875C81.5951 9.34216 81.4046 9.38005 81.2269 9.45367C81.0492 9.52728 80.8877 9.63518 80.7517 9.77121C80.6157 9.90723 80.5078 10.0687 80.4342 10.2464C80.3605 10.4242 80.3227 10.6146 80.3227 10.807C80.3227 10.9994 80.3605 11.1899 80.4342 11.3676C80.5078 11.5453 80.6157 11.7068 80.7517 11.8428C80.8877 11.9788 81.0492 12.0867 81.2269 12.1603C81.4046 12.234 81.5951 12.2719 81.7875 12.2719ZM81.7875 18.5267H84.5777C84.9662 18.5267 85.3388 18.3724 85.6135 18.0977C85.8882 17.823 86.0426 17.4504 86.0426 17.0619C86.0426 16.6734 85.8882 16.3008 85.6135 16.0261C85.3388 15.7514 84.9662 15.597 84.5777 15.597H81.7875C81.399 15.597 81.0264 15.7514 80.7517 16.0261C80.477 16.3008 80.3227 16.6734 80.3227 17.0619C80.3227 17.4504 80.477 17.823 80.7517 18.0977C81.0264 18.3724 81.399 18.5267 81.7875 18.5267ZM107.654 49.166C107.483 49.252 107.329 49.3711 107.204 49.5163C107.078 49.6616 106.982 49.8302 106.922 50.0125C106.862 50.1949 106.838 50.3873 106.852 50.5789C106.866 50.7704 106.918 50.9573 107.004 51.1289C107.09 51.3014 107.209 51.4552 107.355 51.5814C107.501 51.7076 107.67 51.8037 107.853 51.8642C108.036 51.9246 108.229 51.9483 108.421 51.9337C108.613 51.9191 108.801 51.8666 108.973 51.7793C109.145 51.6934 109.298 51.5744 109.424 51.4292C109.55 51.2839 109.645 51.1152 109.706 50.9327C109.766 50.7502 109.79 50.5577 109.776 50.366C109.762 50.1743 109.71 49.9873 109.623 49.8158C109.266 49.1127 108.363 48.8086 107.654 49.166Z" fill="black"/>
<path d="M7.26562 68.1446C7.26562 74.2184 11.0912 79.7116 16.6934 81.8772V108.792C16.6934 109.18 16.8477 109.553 17.1224 109.827C17.3971 110.102 17.7697 110.256 18.1582 110.256C18.5467 110.256 18.9193 110.102 19.194 109.827C19.4687 109.553 19.623 109.18 19.623 108.792V82.6694C26.3496 83.7785 32.5477 80.1276 35.2441 74.5535C37.6307 79.4678 42.6721 82.8645 48.4922 82.8645C54.317 82.8645 59.3613 79.4631 61.7461 74.543C64.1309 79.4631 69.1758 82.8645 75 82.8645C80.8242 82.8645 85.8691 79.4631 88.2539 74.543C90.6387 79.4631 95.6836 82.8645 101.508 82.8645C107.328 82.8645 112.369 79.4684 114.756 74.5541C117.43 80.083 123.608 83.7856 130.376 82.6694V143.947C130.376 144.755 129.719 145.412 128.912 145.412H94.9219V137.695C94.9219 137.307 94.7675 136.934 94.4928 136.66C94.2181 136.385 93.8455 136.23 93.457 136.23C93.0685 136.23 92.6959 136.385 92.4212 136.66C92.1465 136.934 91.9922 137.307 91.9922 137.695V145.412H58.0078V96.6797C58.0078 96.1951 58.4021 95.8008 58.8867 95.8008H91.1133C91.5978 95.8008 91.9922 96.1951 91.9922 96.6797V125.977C91.9922 126.365 92.1465 126.738 92.4212 127.012C92.6959 127.287 93.0685 127.441 93.457 127.441C93.8455 127.441 94.2181 127.287 94.4928 127.012C94.7675 126.738 94.9219 126.365 94.9219 125.977V96.6797C94.9219 94.5797 93.2133 92.8711 91.1133 92.8711H58.8867C57.877 92.8724 56.909 93.274 56.195 93.988C55.481 94.702 55.0794 95.67 55.0781 96.6797V145.412H21.0879C20.6995 145.412 20.3272 145.257 20.0526 144.983C19.778 144.708 19.6235 144.336 19.623 143.947V120.51C19.623 120.121 19.4687 119.749 19.194 119.474C18.9193 119.199 18.5467 119.045 18.1582 119.045C17.7697 119.045 17.3971 119.199 17.1224 119.474C16.8477 119.749 16.6934 120.121 16.6934 120.51V143.947L16.6939 143.953C16.6969 146.374 18.6668 148.342 21.0885 148.342H128.913C131.336 148.342 133.307 146.371 133.307 143.947V81.8766C138.909 79.7098 142.735 74.2155 142.735 68.1446V63.3047C142.735 62.9883 142.622 62.6391 142.392 62.3649L124.188 40.633C124.138 40.5727 124.079 40.5229 124.02 40.4725V33.8614C124.02 29.8225 120.735 26.5371 116.696 26.5371H98.4557V13.1426C98.4557 10.4514 96.266 8.26174 93.5748 8.26174H92.3678V6.18811C92.3678 4.41155 90.9223 2.96546 89.1451 2.96546H78.6627C77.383 2.96435 76.1543 3.46674 75.242 4.36409C74.331 3.4669 73.1034 2.96445 71.8248 2.96546H61.3307C60.4762 2.96639 59.6571 3.30621 59.0529 3.91038C58.4488 4.51454 58.1089 5.3337 58.108 6.18811V8.26174H56.4258C53.7346 8.26174 51.5449 10.4514 51.5449 13.1426V26.5371H32.7949C28.7561 26.5371 25.4707 29.8225 25.4707 33.8614V41.0408L7.6084 62.3643C7.38912 62.6286 7.26801 62.9607 7.26562 63.3041V68.1446ZM63.6562 43.0371L60.5062 61.8399H37.6148L47.0654 43.0371H63.6562ZM83.373 43.0383L86.523 61.8399H63.4775L66.6275 43.0383H83.373ZM27.6193 43.0383H43.7853L34.3359 61.8399H11.8699L27.6193 43.0383ZM29.0127 77.6045C21.1969 83.4235 10.1953 77.7235 10.1953 68.1446V64.7701H33.7734V68.1446C33.7734 71.9045 32.0379 75.3528 29.0127 77.6045ZM48.4922 79.9336C41.9918 79.9336 36.7031 74.6455 36.7031 68.1446V64.7696H60.2812V68.1446C60.2812 74.6455 54.9926 79.9336 48.4922 79.9336ZM75 79.9336C68.4996 79.9336 63.2109 74.6455 63.2109 68.1446V64.7701H86.7891V68.1446C86.7891 74.6455 81.5004 79.9336 75 79.9336ZM101.508 79.9336C95.0074 79.9336 89.7187 74.6455 89.7187 68.1446V64.7701H113.297V68.1446C113.297 74.6455 108.008 79.9336 101.508 79.9336ZM131.421 79.4326C123.795 81.7143 116.226 76.0037 116.226 68.144V64.7696H139.804V68.144C139.805 73.3037 136.356 77.9461 131.421 79.4326ZM138.13 61.8399H115.662L112.253 55.0489C111.896 54.3457 110.994 54.0469 110.285 54.3985C109.937 54.5734 109.674 54.879 109.552 55.2482C109.43 55.6174 109.459 56.0199 109.634 56.3672L112.387 61.8399H89.4932L86.3432 43.0383H102.935L104.372 45.8965C104.458 46.0688 104.577 46.2225 104.722 46.3486C104.867 46.4748 105.036 46.5708 105.218 46.6313C105.401 46.6917 105.594 46.7153 105.785 46.7007C105.977 46.6861 106.164 46.6337 106.335 46.5463C107.08 46.1737 107.34 45.2737 106.992 44.5782L106.216 43.0383H122.381L138.13 61.8399ZM78.6621 5.89514H89.1445C89.2222 5.89514 89.2967 5.92601 89.3517 5.98095C89.4066 6.03589 89.4375 6.11041 89.4375 6.18811V22.8281C89.4375 22.9059 89.4066 22.9804 89.3517 23.0353C89.2967 23.0903 89.2222 23.1211 89.1445 23.1211H81.6328C80.2301 23.1211 78.9557 23.9912 78.3861 25.3371C78.2447 25.6721 78.0127 25.9609 77.7162 26.1713C77.4196 26.3816 77.0703 26.5051 76.7074 26.5278V7.84631L76.7062 7.83518C76.7104 7.3192 76.9183 6.82578 77.2847 6.4624C77.651 6.09902 78.1461 5.89513 78.6621 5.89514ZM61.0371 6.18811C61.0371 6.11041 61.068 6.03589 61.1229 5.98095C61.1779 5.92601 61.2524 5.89514 61.3301 5.89514H71.8242C72.3415 5.89576 72.8374 6.10153 73.2032 6.46731C73.569 6.83309 73.7748 7.32902 73.7754 7.84631C73.7754 7.85393 73.7777 7.86096 73.7777 7.86917V26.5278C73.415 26.505 73.0659 26.3815 72.7695 26.1711C72.4732 25.9608 72.2414 25.672 72.1002 25.3371C71.5312 23.9907 70.2568 23.1211 68.8535 23.1211H61.3301C61.2524 23.1211 61.1779 23.0903 61.1229 23.0353C61.068 22.9804 61.0371 22.9059 61.0371 22.8281V6.18811ZM54.4746 13.1426C54.4752 12.6253 54.681 12.1294 55.0468 11.7636C55.4126 11.3978 55.9085 11.1921 56.4258 11.1914H58.1074V22.8281C58.1074 24.6047 59.5529 26.0508 61.3301 26.0508H68.8535C69.1242 26.0508 69.3146 26.2717 69.4019 26.478C69.7748 27.3642 70.401 28.1206 71.2021 28.6523C72.0032 29.1841 72.9434 29.4674 73.9049 29.4668H76.5826C77.5439 29.4673 78.4839 29.1839 79.2849 28.6523C80.0858 28.1207 80.712 27.3645 81.0849 26.4785C81.1723 26.2717 81.3627 26.0508 81.6334 26.0508H89.1451C90.9223 26.0508 92.3678 24.6047 92.3678 22.8281V11.1914H93.5748C94.0921 11.1921 94.588 11.3978 94.9538 11.7636C95.3196 12.1294 95.5254 12.6253 95.526 13.1426V28.2012C95.5261 28.7193 95.3208 29.2163 94.955 29.5831C94.5892 29.95 94.0929 30.1568 93.5748 30.1582H83.0514C82.3702 30.1615 81.7033 30.3537 81.1248 30.7132C80.5463 31.0728 80.0788 31.5857 79.7742 32.1949C79.7145 32.3163 79.6222 32.4186 79.5076 32.4905C79.3931 32.5624 79.2608 32.6011 79.1256 32.6022H72.1939C72.0629 32.603 71.9342 32.568 71.8216 32.5011C71.7089 32.4342 71.6167 32.3379 71.5547 32.2225C70.7572 30.7776 69.5467 30.1588 68.257 30.1588H56.4258C55.9077 30.1574 55.4113 29.9506 55.0456 29.5837C54.6798 29.2168 54.4744 28.7199 54.4746 28.2018V13.1426ZM28.4004 33.8614C28.4004 31.4379 30.3715 29.4668 32.7949 29.4668H51.7107C52.2762 31.5721 54.2139 33.0879 56.4258 33.0879H68.2559C68.5236 33.0879 68.7662 33.2297 68.8951 33.4676C69.682 34.8949 70.8961 35.5313 72.1928 35.5313H79.1244C79.8067 35.5336 80.4759 35.3436 81.0552 34.983C81.6345 34.6225 82.1005 34.106 82.3998 33.4928C82.5217 33.2467 82.7771 33.0879 83.0502 33.0879H93.5736C94.3011 33.087 95.0192 32.9233 95.6754 32.6091C96.3315 32.2948 96.9091 31.8378 97.3658 31.2715C97.7958 30.7408 98.1101 30.1261 98.2887 29.4668H116.695C119.118 29.4668 121.089 31.4379 121.089 33.8614V40.1074H28.4004V33.8614Z" fill="black"/>
<path d="M121.881 117.251C123.981 117.251 125.689 115.543 125.689 113.443V96.6797C125.689 94.5797 123.981 92.8711 121.881 92.8711H103.852C102.842 92.8723 101.874 93.274 101.16 93.988C100.446 94.702 100.044 95.67 100.043 96.6797V113.443C100.043 115.543 101.752 117.251 103.852 117.251H121.881ZM102.973 113.443V96.6797C102.973 96.1951 103.367 95.8008 103.852 95.8008H121.881C122.365 95.8008 122.76 96.1951 122.76 96.6797V113.443C122.76 113.927 122.365 114.322 121.881 114.322H103.852C103.367 114.322 102.973 113.928 102.973 113.443Z" fill="black"/>
<path d="M93.457 133.301C94.266 133.301 94.9219 132.645 94.9219 131.836C94.9219 131.027 94.266 130.371 93.457 130.371C92.648 130.371 91.9922 131.027 91.9922 131.836C91.9922 132.645 92.648 133.301 93.457 133.301Z" fill="black"/>
<path d="M87.3047 117.318V104.297C87.3047 102.197 85.5961 100.488 83.4961 100.488H66.5039C65.4942 100.49 64.5262 100.891 63.8122 101.605C63.0982 102.319 62.6965 103.287 62.6953 104.297V117.318C62.6953 119.418 64.4039 121.127 66.5039 121.127H83.4961C85.5961 121.127 87.3047 119.418 87.3047 117.318ZM65.625 117.318V104.297C65.625 103.812 66.0193 103.418 66.5039 103.418H83.4961C83.9807 103.418 84.375 103.812 84.375 104.297V117.318C84.375 117.803 83.9807 118.197 83.4961 118.197H66.5039C66.0193 118.197 65.625 117.803 65.625 117.318ZM46.1484 117.251C48.2484 117.251 49.957 115.543 49.957 113.443V96.6797C49.957 94.5797 48.2484 92.8711 46.1484 92.8711H28.1191C27.1094 92.8723 26.1414 93.274 25.4274 93.988C24.7134 94.702 24.3118 95.67 24.3105 96.6797V113.443C24.3105 115.543 26.0191 117.251 28.1191 117.251H46.1484ZM27.2402 113.443V96.6797C27.2402 96.1951 27.6346 95.8008 28.1191 95.8008H46.1484C46.633 95.8008 47.0273 96.1951 47.0273 96.6797V113.443C47.0273 113.927 46.633 114.322 46.1484 114.322H28.1191C27.6346 114.322 27.2402 113.928 27.2402 113.443Z" fill="black"/>
<path d="M18.1582 116.115C18.9672 116.115 19.623 115.459 19.623 114.65C19.623 113.841 18.9672 113.186 18.1582 113.186C17.3492 113.186 16.6934 113.841 16.6934 114.65C16.6934 115.459 17.3492 116.115 18.1582 116.115Z" fill="black"/>
</svg>
