<svg width="75" height="75" viewBox="0 0 75 75" fill="none" xmlns="http://www.w3.org/2000/svg">
<path d="M69.7656 5.69973C58.3665 9.80277 45.7553 7.94696 36.0216 0.734051C33.5284 -1.11341 30.0968 0.710174 29.5904 4.15168L27.2089 20.3349C27.125 20.9101 27.0554 21.4872 27 22.0659C27.0473 22.0504 27.0948 22.0358 27.1419 22.02C30.414 20.9286 33.4765 19.3155 36.2444 17.2251C37.6663 16.1513 39.3406 15.5836 41.0861 15.5836C43.1757 15.5836 45.2056 16.3997 46.8016 17.8814C48.3327 19.3027 49.3607 21.2668 49.6963 23.4118L52.2247 39.5727C52.9355 44.1169 52.8396 48.7585 51.9645 53.1846L56.4497 50.8577C64.9351 46.4556 71.0226 37.4427 72.558 27.0081L74.9396 10.8249C75.446 7.38372 72.6852 4.64885 69.7656 5.69973Z" fill="#525E16"/>
<path d="M45.3547 24.0913C44.9656 21.6044 43.0524 19.9785 41.0863 19.9785C40.3354 19.9785 39.577 20.2155 38.8928 20.7323C32.5239 25.5418 24.884 28.0383 17.1433 28.0383C13.1335 28.0383 9.09768 27.3689 5.19518 26.0041C4.77404 25.8568 4.35641 25.7878 3.9524 25.7878C1.54669 25.7875 -0.392331 28.2338 0.0680705 31.1763L2.5964 47.3373C4.22662 57.7574 10.3957 66.7147 18.9206 71.0396L24.8799 74.0629C26.1223 74.6931 27.4582 75.0002 28.7818 75.0002C30.9936 75.0002 33.1717 74.1435 34.8268 72.5068L39.5781 67.8079C46.3748 61.0859 49.5134 50.6726 47.8831 40.2522L45.3547 24.0913ZM14.4864 43.6406C13.5316 43.79 12.672 44.4306 12.066 45.4445C11.6546 46.133 10.9257 46.5149 10.1779 46.5149C9.78145 46.5149 9.39249 46.4072 9.05256 46.2033C8.01091 45.5808 7.67121 44.2316 8.29377 43.19C9.58152 41.0355 11.5396 39.6537 13.8072 39.2989C16.0749 38.9443 18.3614 39.6621 20.2455 41.3203C21.1564 42.1221 21.2449 43.5105 20.4432 44.4213C19.6415 45.3322 18.253 45.4208 17.3421 44.6191C16.4555 43.8386 15.4412 43.491 14.4864 43.6406ZM28.3329 63.2136C23.7056 63.9375 19.3677 60.7733 18.6438 56.146L18.6416 56.1322C18.549 55.5335 19.1452 55.0617 19.713 55.2728C22.0295 56.134 24.5922 56.431 27.2077 56.0218C29.8232 55.6126 32.1728 54.5471 34.1155 53.0195C34.5917 52.6451 35.3035 52.9122 35.3983 53.5106L35.4005 53.5243C36.1244 58.1516 32.96 62.4896 28.3329 63.2136ZM41.4709 41.1316C40.6692 42.0426 39.2807 42.131 38.3698 41.3293C37.483 40.5489 36.4685 40.2016 35.5141 40.3508C34.5591 40.5002 33.6996 41.1408 33.0938 42.1546C32.6823 42.8431 31.9532 43.2251 31.2056 43.2251C30.8219 43.2251 30.4336 43.1247 30.0804 42.9137C29.0388 42.2912 28.6989 40.9422 29.3215 39.9004C30.6091 37.7459 32.5672 36.3639 34.8349 36.0092C37.102 35.6542 39.3889 36.3723 41.2732 38.0305C42.1842 38.8322 42.2726 40.2206 41.4709 41.1316Z" fill="#525E16"/>
</svg>
