<svg version="1.1" xmlns="http://www.w3.org/2000/svg" xmlns:xlink="http://www.w3.org/1999/xlink" x="0px" y="0px" viewBox="0 0 256 256" enable-background="new 0 0 256 256" xml:space="preserve">
<metadata> Svg Vector Icons : http://www.onlinewebfonts.com/icon </metadata>
<g><g><path fill="#525E16" d="M235.4,79C196.6,1.2,127.6,17.8,127.6,17.8l-9.7-5.8c0,0-1,5.8-2,8.7c16.5,7.8,26.2,49.6,10.7,63.2c-5.8-2.9-10.7-6.8-10.7-14.6l2,1l1-2.9l-2-2.9c0-1,0-1,0-2l2.9,1l1-3.9l-3.9-3.9c0-1,0-2,0-2.9l2.9,2.9v-3.9l-6.8-4.9c0-1-1-1.9-1-2.9l6.8,1l-1-2.9l-13.6-5.8l10.7-1l-2-2.9c0,0-9.7-2.9-20.4-2.9c2-2,5.8-5.8,11.7-7.8c0-3.9,1-7.8,1-7.8s-12.6,2.9-23.3,7.8c-10.7,4.9-25.3,13.6-23.3,17.5c-1,2.9-12.6,6.8-14.6,9.7c-2,2.9,3.9,5.8,4.9,13.6c5.8-2.9,18.5-12.6,22.3-4.9c5.8,1,23.3-11.7,23.3,3.9c0,13.6-4.9,20.4-4.9,36.9c-2.9,6.8-2.9,14.6-5.8,14.6c-5.8-4.9-10.7-17.5-10.7-23.3C73.2,83.8,78,77,78,77l-1.9-2l1-4.9l-2.9-2.9h-4.9l2.9,2v2.9l-2,1v-2.9h-1l-2.9-3.9l-5.8-1l-1,2h2l2,2.9h-3.9l-1,2l-1-2h-2.9l-5.8,4.9l3.9-1l2,1c0,2.9,1.9,2.9,5.8,9.7c3.9,7.8,1,13.6,1,13.6l-3.9,3.9l1,3.9l-1,1h-4.9l4.9,3.9l4.9-2.9l1,1l3.9-5.8c0,0,0-1,2,0c2.9,18.5,10.7,25.3,13.6,28.2c-1,3.9-5.8,2-5.8,2s2.9,5.8,10.7,1c2.9,0,4.9-1,5.8-2.9c0-1,2-2.9,3.9-4.9c7.8,12.6,19.4,21.4,23.3,23.3c1,1,2.9,2.9,3.9,3.9c0,4.9,0,19.4,6.8,23.3c7.8,4.9-34,17.5-43.7-4.9l-6.8-3.9h-5.8l-1.9,2.9l3.9,1l-7.8,2.9l-2,5.8l3.9-2.9l2,2l-5.8,5.8l1,5.8l2.9-2.9h2l1,2h2l2.9-2h5.8l5.8,5.8v6.8l1,2v1.9l-3.9,3.9l4.9,1l3.9-1.9l1-3.9l1-2v-6.8v-2.9c0,0,3.9,4.9,19.4,3.9c15.6-1,21.4-4.9,21.4-4.9s2.9,3.9-1,7.8c5.8,2,5.8-8.7,5.8-8.7s2.9-5.8,0-8.7c-1-2.9,1-7.8,2.9-11.7c4.9,2,8.7,2.9,12.6,7.8c10.7,13.6-7.8,47.6-33,47.6c-97.2,0-103-87.5-103-87.5l14.6,6.8c0,0-2.9-30.1-24.3-43.7c0,1-3.9,13.6-3.9,27.2c2.9,60.2,51.5,114.6,119.5,115.6c50.5,0,69-34,69-66.1c1-18.5-5.8-35-13.6-44.7c-7.8-9.7,5.8-21.4,7.8-1c23.3,0,22.3,69.9-16.5,101C251.9,199.5,255.8,119.8,235.4,79z M64.4,42.1c-2.9-2.9,7.8-4.9,7.8-4.9S66.4,45.9,64.4,42.1z"/></g></g>
</svg>