<svg width="75" height="53" viewBox="0 0 75 53" fill="none" xmlns="http://www.w3.org/2000/svg">
<path d="M31.6384 13.8994C25.1289 8.82086 18.3765 4.17783 11.1817 0.11662C10.487 -0.275432 9.85234 0.397685 9.92581 0.999519C9.14577 1.78519 8.47922 2.74062 7.72544 3.54098C6.82635 4.49343 5.93031 5.44876 5.03735 6.40696C4.79224 6.67052 4.86384 7.04725 5.07112 7.27266C5.05549 7.46962 5.13677 7.66471 5.36438 7.76882C13.3752 11.4317 22.1545 13.9848 30.8684 15.2228C31.5337 15.3169 32.3475 14.4528 31.6384 13.8994ZM16.9108 9.99889C16.7923 10.0136 16.6826 10.0089 16.5716 10.007C16.2237 9.89728 15.876 9.78661 15.5283 9.67593C15.0456 9.29733 14.8768 8.63734 15.2685 7.85136C15.6228 7.14073 16.2496 6.67864 16.949 6.34881C17.2651 6.52701 17.6065 6.56641 17.93 6.7715C18.298 7.00504 18.5716 7.42492 18.6835 7.84011C18.9958 9 17.9788 9.86571 16.9108 9.99889ZM70.6713 8.29594C70.7626 8.09929 70.7745 7.86574 70.642 7.64252C69.8888 6.37507 68.5479 5.37368 67.5002 4.34353C66.5148 3.37434 65.5306 2.37858 64.3785 1.60792C64.4016 1.58635 64.4276 1.56665 64.4507 1.54476C64.6052 1.40064 64.4454 1.09519 64.2356 1.17522C64.0978 1.22775 63.9633 1.29528 63.8258 1.34968C63.6654 1.3478 63.52 1.40533 63.4149 1.52444C56.1379 4.49266 49.393 9.7394 42.7553 13.8653C42.0606 14.2971 42.3629 15.3379 43.1639 15.3738C52.0245 15.7721 61.9937 12.1345 70.4622 9.8532C71.2616 9.63779 71.2035 8.64922 70.6713 8.29594ZM58.9317 11.0475C57.8671 11.5418 56.1736 11.1838 55.6124 10.0611C55.2941 9.42394 55.5814 8.66829 56.0813 8.14055C56.0882 8.1393 56.0938 8.14149 56.1004 8.13993C57.1981 7.92358 58.7194 7.14448 59.6573 8.19214C60.4658 9.09505 59.9412 10.5788 58.9317 11.0475ZM42.3254 23.6985C41.35 21.1508 40.1848 18.7216 38.7754 16.3843C38.4971 15.9231 37.7137 15.7224 37.3313 16.1983C36.5631 17.154 32.3872 21.6498 32.8618 23.4365C32.7621 24.1703 33.5071 24.9131 34.3059 24.452C35.019 24.0399 35.7321 23.6272 36.445 23.2145C36.7548 23.0351 37.2844 22.5977 37.6055 22.6093C37.8612 22.6183 38.7966 23.4024 39.0146 23.5478L40.8935 24.7993C41.5682 25.2483 42.629 24.4917 42.3254 23.6985Z" fill="#525E16"/>
<path d="M72.0361 14.0754C71.6197 13.1825 70.4345 13.7396 70.3576 14.53C69.9099 19.1246 68.7909 23.0967 67.102 27.292C65.4954 25.4287 63.7593 23.8664 61.7577 22.401C61.2731 22.0462 60.4759 22.4104 60.3562 22.9713C59.7628 25.7519 59.1703 28.5326 58.5779 31.3129C57.5052 29.4702 56.3259 27.7303 54.9981 26.0167C54.5614 25.4531 53.5503 25.7895 53.4102 26.436C52.839 29.0744 51.9983 31.5042 50.8459 33.8903C49.8258 31.7197 48.6437 29.629 47.3097 27.6359C46.8273 26.914 45.8868 27.1085 45.582 27.8616C44.4778 30.5888 43.3263 34.8723 41.3432 37.405C40.6035 35.3985 39.8044 33.4407 38.849 31.5036C38.5595 30.9165 37.5693 30.9061 37.283 31.5036C36.5798 32.9705 35.8173 34.3699 35.0191 35.7702C33.4625 33.2775 31.9058 30.7851 30.3526 28.2903C29.9972 27.7191 29.1415 27.6916 28.7919 28.2903L25.3663 34.1585C24.0495 31.804 22.9299 29.4289 21.9664 26.8549C21.6853 26.1043 20.8074 26.0117 20.3425 26.6426C19.2157 28.1727 18.134 29.3576 16.8453 30.5385L13.5666 22.3054C13.3281 21.706 12.3001 21.3237 11.969 22.0965C11.1217 24.0813 10.1212 25.9972 8.97643 27.8266C7.06213 22.6859 5.3376 17.4488 3.0697 12.4597C2.9584 12.2146 2.73705 12.178 2.53384 12.2368C2.3178 12.1889 2.06769 12.2684 2.00297 12.5225C-0.566313 22.5964 -1.23099 33.7615 3.45331 43.3133C3.60463 43.6216 3.85443 43.7197 4.09985 43.6922C4.2915 43.9539 4.68012 44.0805 4.92085 43.7754C6.12858 42.2447 8.7976 37.7148 10.1832 37.9074C12.2026 38.1882 14.8822 46.7599 15.6119 48.4666C15.8674 49.0643 16.8494 49.0121 17.122 48.4666C17.7792 47.1513 18.3303 45.5565 19.1742 44.3553C20.622 42.295 19.2304 42.1556 20.5529 43.3271C21.6124 44.2656 23.2207 49.6293 23.8747 50.8605C24.2039 51.4801 25.0662 51.3957 25.4148 50.8605C26.0985 49.8109 28.4702 45.0994 29.3763 45.221C29.7114 45.2661 32.5149 52.2207 32.6218 52.4362C32.9438 53.0849 33.8336 52.9601 34.1853 52.4362C34.4942 51.9763 37.3792 46.8105 37.7919 46.7251C39.3214 46.4091 41.3798 51.5958 41.8894 52.4518C42.1355 52.8651 42.5403 52.9511 42.8999 52.8504C43.3132 53.0249 43.8903 52.9245 44.1073 52.3855C44.7582 50.767 46.085 46.2571 47.7495 46.3997C48.9542 46.5032 50.7387 51.0524 51.0954 51.7146C51.4556 52.3836 52.3319 52.1216 52.5702 51.5217C53.3765 49.4914 54.1834 45.1401 55.7138 43.6097C57.9948 41.3283 58.3537 44.7277 59.6137 47.8722C59.8481 48.4575 60.7801 48.7761 61.1187 48.0689C62.248 45.7122 63.1943 43.3211 64.06 40.8816C64.6666 42.8887 65.2037 44.9037 65.6054 46.9921C65.7277 47.6268 66.6396 47.841 67.0595 47.3761C75.4552 38.0884 77.3263 25.4143 72.0361 14.0754Z" fill="#525E16"/>
</svg>
