<svg width="75" height="77" viewBox="0 0 75 77" fill="none" xmlns="http://www.w3.org/2000/svg">
<path d="M43.7078 66.8591C43.2043 66.8591 42.7214 66.659 42.3653 66.303C42.0093 65.947 41.8093 65.4641 41.8093 64.9605V64.481C41.7923 63.4715 41.3794 62.509 40.6595 61.8011C39.9396 61.0932 38.9703 60.6965 37.9606 60.6965C36.951 60.6965 35.9817 61.0932 35.2618 61.8011C34.5419 62.509 34.129 63.4715 34.112 64.481V64.9605C34.112 65.4641 33.912 65.947 33.556 66.303C33.1999 66.659 32.717 66.8591 32.2135 66.8591C31.71 66.8591 31.2271 66.659 30.871 66.303C30.515 65.947 30.3149 65.4641 30.3149 64.9605V64.481C30.3149 62.4525 31.1208 60.5071 32.5551 59.0728C33.9895 57.6384 35.9349 56.8326 37.9634 56.8326C39.9918 56.8326 41.9372 57.6384 43.3716 59.0728C44.806 60.5071 45.6118 62.4525 45.6118 64.481V64.9605C45.6119 65.2103 45.5627 65.4577 45.467 65.6885C45.3713 65.9193 45.231 66.1288 45.0541 66.3052C44.8772 66.4816 44.6672 66.6214 44.4362 66.7164C44.2051 66.8114 43.9576 66.8599 43.7078 66.8591Z" fill="#D99D8D"/>
<path d="M6.7816 50.2029H68.2184C70.0163 50.2012 71.74 49.4863 73.0114 48.2151C74.2828 46.9439 74.998 45.2203 75 43.4224V38.2866C75 37.783 74.8 37.3001 74.4439 36.9441C74.0879 36.588 73.605 36.388 73.1015 36.388H65.0017L61.2773 1.70112C61.2273 1.2354 61.0068 0.804626 60.6584 0.491613C60.3099 0.178601 59.8581 0.00545108 59.3896 0.00545639H53.502C52.9985 0.00545639 52.5156 0.205481 52.1595 0.561527C51.8035 0.917573 51.6035 1.40047 51.6035 1.904C51.6035 2.40752 51.8035 2.89042 52.1595 3.24647C52.5156 3.60251 52.9985 3.80254 53.502 3.80254H57.6842L61.183 36.388H14.8802L18.3735 3.80254H24.8828C26.2632 3.79943 27.6264 4.10831 28.8706 4.70608C30.1148 5.30385 31.2078 6.17507 32.068 7.25463L36.5475 12.8537C36.7316 13.0662 36.9593 13.2367 37.2151 13.3535C37.4708 13.4703 37.7488 13.5308 38.03 13.5308C38.3112 13.5308 38.5891 13.4703 38.8449 13.3535C39.1007 13.2367 39.3283 13.0662 39.5125 12.8537L43.9898 7.25572C44.2711 6.90526 44.5775 6.57567 44.9065 6.26956C45.0933 6.10086 45.2446 5.8967 45.3518 5.66896C45.459 5.44122 45.5198 5.19445 45.5307 4.94299C45.5416 4.69153 45.5024 4.44042 45.4154 4.20425C45.3284 3.96808 45.1953 3.75156 45.0238 3.56731C44.8524 3.38305 44.646 3.23472 44.4167 3.13095C44.1874 3.02718 43.9397 2.97004 43.6881 2.96286C43.4365 2.95567 43.186 2.99859 42.9512 3.0891C42.7163 3.17961 42.5018 3.31592 42.3201 3.49009C41.8551 3.92166 41.4225 4.38689 41.0259 4.882L38.0294 8.62701L35.0319 4.882C33.8176 3.35558 32.2739 2.12356 30.5161 1.27813C28.7584 0.432708 26.8322 -0.00422706 24.8817 3.08228e-05H16.6681C16.1996 -0.00021515 15.7476 0.172852 15.3991 0.485911C15.0506 0.798969 14.8302 1.22989 14.7804 1.6957L11.056 36.388H1.89854C1.39502 36.388 0.912118 36.588 0.556073 36.9441C0.200027 37.3001 0 37.783 0 38.2866V43.4224C0.00201054 45.2203 0.71718 46.9439 1.98857 48.2151C3.25996 49.4863 4.98372 50.2012 6.7816 50.2029ZM3.79708 40.1851H71.2029V43.4224C71.2021 44.2136 70.8873 44.9721 70.3278 45.5314C69.7682 46.0908 69.0096 46.4052 68.2184 46.4058H6.7816C5.99042 46.4052 5.23179 46.0908 4.67225 45.5314C4.1127 44.9721 3.79795 44.2136 3.79708 43.4224V40.1851ZM53.7656 53.0051C51.6498 53.0074 49.5726 53.5709 47.7457 54.6383C45.9189 55.7056 44.4079 57.2385 43.367 59.0805C42.6577 58.3694 41.815 57.8052 40.8873 57.4202C39.9595 57.0353 38.965 56.8371 37.9605 56.8371C36.9561 56.8371 35.9615 57.0353 35.0338 57.4202C34.1061 57.8052 33.2634 58.3694 32.554 59.0805C31.1217 56.5596 28.8205 54.6464 26.0805 53.6983C23.3405 52.7502 20.349 52.832 17.665 53.9286C14.9809 55.0251 12.7878 57.0613 11.4955 59.6568C10.2032 62.2523 9.89999 65.2295 10.6426 68.0322C11.3851 70.8349 13.1227 73.2714 15.5306 74.8866C17.9385 76.5017 20.852 77.1849 23.7269 76.8087C26.6018 76.4324 29.2414 75.0223 31.1525 72.8419C33.0637 70.6615 34.1156 67.8599 34.1119 64.9605V64.481C34.1289 63.4715 34.5418 62.509 35.2617 61.8011C35.9816 61.0932 36.9509 60.6965 37.9605 60.6965C38.9702 60.6965 39.9394 61.0932 40.6594 61.8011C41.3793 62.509 41.7922 63.4715 41.8091 64.481V64.9605C41.8089 67.3253 42.51 69.6371 43.8237 71.6035C45.1373 73.5699 47.0046 75.1025 49.1893 76.0076C51.3741 76.9128 53.7782 77.1497 56.0976 76.6885C58.417 76.2273 60.5475 75.0886 62.2197 73.4165C63.892 71.7444 65.0308 69.614 65.4923 67.2946C65.9537 64.9753 65.717 62.5711 64.8121 60.3863C63.9071 58.2015 62.3747 56.3341 60.4084 55.0202C58.4421 53.7064 56.1304 53.0051 53.7656 53.0051ZM22.1565 73.121C20.543 73.121 18.9656 72.6425 17.624 71.7461C16.2824 70.8496 15.2367 69.5755 14.6192 68.0847C14.0018 66.594 13.8402 64.9537 14.155 63.3711C14.4698 61.7885 15.2468 60.3349 16.3877 59.1939C17.5287 58.0529 18.9824 57.2759 20.5649 56.9612C22.1475 56.6464 23.7878 56.8079 25.2786 57.4254C26.7693 58.0429 28.0435 59.0886 28.9399 60.4302C29.8364 61.7718 30.3148 63.3491 30.3148 64.9627C30.3122 67.1256 29.4519 69.1992 27.9225 70.7286C26.393 72.2581 24.3195 73.1184 22.1565 73.121ZM53.7656 73.121C52.1521 73.121 50.5747 72.6425 49.2331 71.7461C47.8915 70.8496 46.8458 69.5755 46.2283 68.0847C45.6109 66.594 45.4493 64.9537 45.7641 63.3711C46.0789 61.7885 46.8559 60.3349 47.9968 59.1939C49.1378 58.0529 50.5915 57.2759 52.174 56.9612C53.7566 56.6464 55.3969 56.8079 56.8877 57.4254C58.3784 58.0429 59.6526 59.0886 60.549 60.4302C61.4455 61.7718 61.9239 63.3491 61.9239 64.9627C61.9213 67.1256 61.061 69.1992 59.5316 70.7286C58.0021 72.2581 55.9285 73.1184 53.7656 73.121Z" fill="#525E16"/>
</svg>
