<svg width="75" height="81" viewBox="0 0 75 81" fill="none" xmlns="http://www.w3.org/2000/svg">
<path d="M37.6272 30.9566C35.777 30.9566 33.9683 31.5053 32.4299 32.5332C30.8914 33.5612 29.6924 35.0222 28.9843 36.7316C28.2763 38.441 28.091 40.322 28.452 42.1367C28.8129 43.9514 29.7039 45.6183 31.0122 46.9266C32.3206 48.2349 33.9875 49.1259 35.8022 49.4869C37.6169 49.8478 39.4978 49.6626 41.2072 48.9545C42.9167 48.2465 44.3777 47.0474 45.4057 45.509C46.4336 43.9706 46.9823 42.1619 46.9823 40.3116C46.9796 37.8313 45.9931 35.4534 44.2392 33.6996C42.4854 31.9458 40.1075 30.9593 37.6272 30.9566ZM37.6272 47.2854C36.248 47.2854 34.8997 46.8764 33.7528 46.1101C32.606 45.3438 31.7122 44.2546 31.1843 42.9804C30.6565 41.7061 30.5184 40.3039 30.7875 38.9511C31.0566 37.5983 31.7208 36.3557 32.6961 35.3804C33.6714 34.4051 34.914 33.741 36.2667 33.4719C37.6195 33.2028 39.0217 33.3409 40.296 33.8687C41.5703 34.3966 42.6594 35.2904 43.4257 36.4372C44.192 37.584 44.601 38.9323 44.601 40.3116C44.599 42.1606 43.8636 43.9332 42.5562 45.2406C41.2488 46.548 39.4762 47.2834 37.6272 47.2854Z" fill="#525E16"/>
<path d="M41.7094 39.121C41.3937 39.121 41.0908 39.2464 40.8675 39.4697C40.6443 39.693 40.5188 39.9958 40.5188 40.3116C40.517 40.8179 40.3831 41.315 40.1302 41.7537C39.8774 42.1923 39.5144 42.5574 39.0771 42.8126C38.942 42.8914 38.8238 42.996 38.7291 43.1205C38.6344 43.2449 38.5652 43.3868 38.5254 43.538C38.4855 43.6892 38.4759 43.8468 38.4969 44.0018C38.518 44.1567 38.5694 44.306 38.6481 44.4411C38.7269 44.5762 38.8315 44.6944 38.956 44.7891C39.0804 44.8838 39.2223 44.953 39.3735 44.9929C39.5247 45.0327 39.6823 45.0423 39.8373 45.0213C39.9922 45.0002 40.1415 44.9488 40.2766 44.8701C41.073 44.4045 41.734 43.739 42.1941 42.9395C42.6543 42.14 42.8976 41.2341 42.9001 40.3116C42.9001 39.9958 42.7746 39.693 42.5514 39.4697C42.3281 39.2464 42.0252 39.121 41.7094 39.121Z" fill="#525E16"/>
<path d="M68.4002 37.5289C68.8342 37.643 69.2809 37.7015 69.7296 37.7031C70.772 37.7025 71.7909 37.3929 72.6575 36.8136C73.5241 36.2342 74.1995 35.411 74.5985 34.4479C74.9974 33.4849 75.102 32.4252 74.899 31.4027C74.6961 30.3802 74.1946 29.4409 73.458 28.7032C73.3716 28.6175 73.2797 28.54 73.1859 28.4603C74.0703 25.2531 73.8662 22.4595 72.5375 20.1558C69.6799 15.2028 62.1762 13.5801 51.8802 15.63C48.4968 5.68853 43.3369 0 37.6273 0C31.9176 0 26.7584 5.68785 23.3716 15.6307C13.0736 13.5794 5.57186 15.2028 2.71501 20.1551C1.42708 22.3799 1.2012 25.1755 2.0224 28.2787C1.0531 29.0376 0.379861 30.1117 0.11939 31.3148C-0.141081 32.518 0.0276303 33.7743 0.596281 34.8662C1.16493 35.958 2.09768 36.8164 3.23284 37.2927C4.36801 37.769 5.63404 37.833 6.81149 37.4738C7.54703 38.4495 8.31864 39.3975 9.12473 40.3157C2.2061 48.2107 -0.140479 55.5198 2.71433 60.4674C4.76563 64.0237 9.20569 65.8682 15.3576 65.8682C18.0506 65.8352 20.7341 65.5408 23.3702 64.9891C26.7564 74.9334 31.917 80.6232 37.6273 80.6232C40.2072 80.6232 42.7518 79.4136 45.0385 77.1371C46.1636 77.63 47.4255 77.7145 48.6063 77.3759C49.787 77.0373 50.8124 76.2969 51.5053 75.2826C52.1981 74.2683 52.5149 73.0438 52.4009 71.8208C52.2868 70.5977 51.7492 69.4529 50.8808 68.5842C50.795 68.4978 50.7032 68.4195 50.6127 68.3406C51.0763 67.2385 51.5016 66.1207 51.8877 64.9891C54.5226 65.5411 57.205 65.8355 59.897 65.8682C66.0481 65.8682 70.4889 64.023 72.5402 60.4674C75.3977 55.5198 73.0484 48.2107 66.1311 40.3164C66.9212 39.4152 67.678 38.4854 68.4002 37.5289ZM71.7734 34.4768C71.2307 35.018 70.4956 35.3218 69.7293 35.3218C68.9629 35.3218 68.2278 35.018 67.6851 34.4768C67.2811 34.0725 67.0061 33.5575 66.8948 32.997C66.7834 32.4364 66.8408 31.8554 67.0596 31.3274C67.2785 30.7994 67.6489 30.3482 68.1241 30.0307C68.5994 29.7132 69.1581 29.5438 69.7296 29.5438C70.3011 29.5438 70.8598 29.7132 71.3351 30.0307C71.8103 30.3482 72.1807 30.7994 72.3996 31.3274C72.6184 31.8554 72.6758 32.4364 72.5644 32.997C72.4531 33.5575 72.1774 34.0725 71.7734 34.4768ZM70.4773 21.3458C71.4087 22.963 71.5884 24.9735 71.0277 27.333C69.9096 27.0486 68.7291 27.1391 67.6674 27.5905C66.6057 28.0418 65.7215 28.8291 65.1504 29.8316C64.5794 30.834 64.3531 31.9961 64.5063 33.1396C64.6595 34.2831 65.1837 35.3446 65.9985 36.1614C66.0842 36.2478 66.1761 36.3254 66.2665 36.405C65.7141 37.1243 65.1308 37.8383 64.5166 38.5468C61.5982 35.5163 58.4196 32.7478 55.0174 30.2728C54.573 26.0905 53.7672 21.9545 52.6089 17.9113C61.5815 16.1764 68.2171 17.4282 70.4773 21.3458ZM50.2746 62.2071C46.9621 61.3989 43.7149 60.3434 40.5603 59.0496C44.666 57.0709 48.6176 54.7871 52.3816 52.2173C51.93 55.5952 51.2256 58.9345 50.2746 62.2071ZM24.98 62.2071C24.0281 58.9346 23.3231 55.5953 22.8708 52.2173C26.6362 54.7866 30.5886 57.0704 34.6949 59.0496C31.54 60.3434 28.2926 61.3989 24.98 62.2071ZM24.98 18.4161C28.2924 19.2243 31.5396 20.2798 34.6942 21.5737C30.589 23.5568 26.6366 25.8416 22.8695 28.4093C23.322 25.0301 24.0274 21.6897 24.98 18.4161ZM19.9378 47.1384C17.2369 45.0587 14.6982 42.7765 12.3435 40.3116C14.6984 37.847 17.2371 35.5648 19.9378 33.4848C19.5959 38.0296 19.5959 42.5936 19.9378 47.1384ZM29.8486 53.7924C27.3203 52.3334 24.8663 50.7491 22.4959 49.0455C22.2115 46.1941 22.0619 43.2624 22.0619 40.3116C22.0619 37.3609 22.2115 34.4299 22.4959 31.5778C24.8663 29.8741 27.3203 28.2898 29.8486 26.8309C32.3749 25.3715 34.9711 24.0369 37.6279 22.8317C40.2852 24.037 42.8819 25.3716 45.4086 26.8309C47.9369 28.2899 50.3909 29.8741 52.7613 31.5778C53.0457 34.4292 53.1954 37.3609 53.1954 40.3116C53.1954 43.2624 53.0457 46.1934 52.7613 49.0455C50.3909 50.7492 47.937 52.3334 45.4086 53.7924C42.8824 55.2517 40.2862 56.5864 37.6293 57.7916C34.9715 56.5865 32.3743 55.2519 29.8473 53.7924H29.8486ZM50.2759 18.4134C51.2277 21.6859 51.9328 25.0252 52.3851 28.4032C50.5025 27.1202 48.5735 25.9067 46.602 24.7653C44.6272 23.6285 42.6118 22.5639 40.5596 21.5737C43.7145 20.2798 46.9619 19.2244 50.2746 18.4161L50.2759 18.4134ZM55.3167 33.4848C58.0176 35.5646 60.5563 37.8468 62.911 40.3116C60.5561 42.7763 58.0174 45.0584 55.3167 47.1384C55.6586 42.5936 55.6586 38.0296 55.3167 33.4848ZM37.6273 2.38128C42.1435 2.38128 46.5489 7.50375 49.5438 16.1417C45.4613 17.1566 41.474 18.5224 37.6266 20.2238C33.7797 18.5222 29.7929 17.1564 25.7107 16.1417C28.7063 7.50307 33.111 2.38128 37.6273 2.38128ZM3.22052 34.4768C2.74599 34.0037 2.45022 33.3807 2.38364 32.7139C2.31706 32.0472 2.48378 31.378 2.85538 30.8204C3.22699 30.2628 3.78047 29.8513 4.42149 29.6561C5.06251 29.4609 5.75138 29.4941 6.37068 29.75C6.98997 30.0059 7.50136 30.4686 7.81766 31.0593C8.13397 31.6501 8.23561 32.3322 8.10526 32.9895C7.97491 33.6467 7.62065 34.2385 7.10285 34.6638C6.58505 35.0891 5.93578 35.3217 5.2657 35.3218C4.88573 35.3234 4.50924 35.2495 4.15804 35.1045C3.80685 34.9594 3.48863 34.7461 3.22052 34.4768ZM8.99342 28.7032C8.37731 28.0882 7.61852 27.6353 6.78476 27.3849C5.951 27.1345 5.06822 27.0945 4.21522 27.2683C3.66548 24.9374 3.84918 22.948 4.77652 21.3492C7.03737 17.4296 13.673 16.1784 22.6456 17.914C21.4873 21.9575 20.6812 26.0937 20.2364 30.2762C16.8341 32.7485 13.6553 35.5146 10.7365 38.5427C10.0738 37.7779 9.45471 37.0177 8.87912 36.2621C8.91654 36.2267 8.95668 36.1941 8.99342 36.158C9.98107 35.1685 10.5358 33.8276 10.5358 32.4296C10.5358 31.0316 9.98107 29.6907 8.99342 28.7012V28.7032ZM4.77516 59.2768C2.52043 55.3633 4.75339 48.989 10.7399 42.0806C13.6578 45.1096 16.8357 47.8768 20.2371 50.3504C20.6815 54.5327 21.4873 58.6687 22.6456 62.712C13.6723 64.4455 7.03669 63.195 4.77652 59.2768H4.77516ZM49.1969 74.3571C48.7237 74.8318 48.1005 75.1277 47.4336 75.1943C46.7666 75.261 46.0972 75.0943 45.5395 74.7226C44.9817 74.3509 44.5701 73.7973 44.3749 73.1561C44.1796 72.5149 44.2128 71.8259 44.4687 71.2064C44.7247 70.5869 45.1876 70.0754 45.7785 69.759C46.3693 69.4427 47.0517 69.341 47.7091 69.4714C48.3666 69.6018 48.9584 69.9562 49.3838 70.4742C49.8092 70.9922 50.0418 71.6416 50.0419 72.3119C50.0421 73.0786 49.7382 73.8141 49.1969 74.3571ZM47.1558 67.0411C46.1523 67.0411 45.1697 67.3274 44.3234 67.8666C43.4771 68.4057 42.8023 69.1753 42.3783 70.0847C41.9543 70.9942 41.7987 72.0058 41.9298 73.0007C42.0609 73.9955 42.4733 74.9323 43.1185 75.7008C41.3495 77.3861 39.5071 78.242 37.6307 78.242C33.1144 78.242 28.709 73.1195 25.7141 64.4816C29.7967 63.4667 33.7839 62.1009 37.6313 60.3994C41.4791 62.1012 45.4669 63.467 49.55 64.4816C49.2166 65.4375 48.8696 66.3526 48.5063 67.2201C48.0646 67.1021 47.6095 67.042 47.1524 67.0411H47.1558ZM70.4814 59.2768C68.2206 63.1957 61.5849 64.4476 52.6123 62.712C53.7706 58.6685 54.5767 54.5323 55.0215 50.3497C58.4216 47.8763 61.5981 45.1093 64.5146 42.0806C70.5011 48.989 72.7341 55.3633 70.478 59.2768H70.4814Z" fill="#525E16"/>
</svg>
