<svg xmlns:xlink="http://www.w3.org/1999/xlink" fill="#525E16" width="128" height="128" viewBox="0 0 64 64" xmlns="http://www.w3.org/2000/svg">

<g id="Voodoo">

<path d="M42.3,7h0a8.33,8.33,0,0,0-7.16,11.35L32.46,21,27,15.57l.69-.69a3.1,3.1,0,0,0,0-4.39h0a3.09,3.09,0,0,0-4.38,0L17.81,16a3.1,3.1,0,1,0,4.39,4.39l.69-.69,5.46,5.46c-3,2.94-6.38,6.35-9.9,9.88-7.6,7.6-5.43,18.77-5.34,19.22A3.37,3.37,0,0,0,19.75,53a20.59,20.59,0,0,1,1-9.34,25.24,25.24,0,0,0,4.34,11.89,3.38,3.38,0,0,0,5.5-3.92c0-.07-4.8-7.14-2.49-13.46L30,33l1.56-1.55.52,6.23a3,3,0,0,0,6-.51l-.22-2.59,4.78,4.78a2.89,2.89,0,0,0,2,.86h0a2.9,2.9,0,0,0,2.05-5L41,29.53l-1.57-5.87.55-.54A8.33,8.33,0,1,0,42.3,7ZM19.23,19a1.11,1.11,0,0,1,0-1.57l5.49-5.48a1.1,1.1,0,0,1,1.56,0h0a1.1,1.1,0,0,1,0,1.56c-2.16,2.16-5.56,5.57-5.48,5.48A1.1,1.1,0,0,1,19.23,19Zm5.08-.7L25.58,17,31,22.45l-1.27,1.26ZM29,52.82a1.38,1.38,0,1,1-2.25,1.59c-.05-.07-4.76-6.5-3.93-14.12.74-.84,1-1,3.86-3.91l-.42,1.15C23.54,44.82,28.71,52.48,29,52.82ZM45.56,37.34a.88.88,0,0,1-.26.63.91.91,0,0,1-.64.27h0A.9.9,0,0,1,44,38l-6.46-6.46-.23-2.76,8,8A.88.88,0,0,1,45.56,37.34ZM37.22,25.79l.52-.52.39,1.44Zm10.16-6A6.35,6.35,0,0,1,40.14,21a1,1,0,0,0-1.14.19c-.37.36-3.37,3.32-3.64,3.6a1,1,0,0,0-.29.79l1,11.75a1,1,0,0,1-.92,1.09,1,1,0,0,1-1.09-.92l-.7-8.37a1,1,0,0,0-1.71-.63l-9.83,9.84c-5.49,5.48-4.09,14.6-4,15a1.37,1.37,0,0,1-1.1,1.6,1.39,1.39,0,0,1-1.61-1.12c0-.11-2-10.61,4.79-17.44C25.49,30.8,31.35,25,37,19.3a1,1,0,0,0,.19-1.15,6.33,6.33,0,1,1,10.15,1.67Z"/>

<circle cx="42.18" cy="12.06" r="1.25"/>

</g>

</svg>